CrimsonText-Regular jlb 10-Bold_Sup_LCUP.ufo
<glyph name="exclam" format="1">
  <advance width="127"/>
  <unicode hex="0021"/>
  <outline>
    <contour>
      <point x="63" y="123" type="curve"/>
      <point x="71" y="123"/>
      <point x="76" y="129"/>
      <point x="78" y="143" type="curve"/>
      <point x="86" y="195"/>
      <point x="105" y="332"/>
      <point x="105" y="360" type="curve"/>
      <point x="105" y="386"/>
      <point x="86" y="403"/>
      <point x="64" y="403" type="curve"/>
      <point x="40" y="403"/>
      <point x="22" y="386"/>
      <point x="22" y="360" type="curve"/>
      <point x="22" y="332"/>
      <point x="40" y="195"/>
      <point x="48" y="142" type="curve"/>
      <point x="50" y="129"/>
      <point x="55" y="123"/>
    </contour>
    <contour>
      <point x="65" y="-7" type="curve"/>
      <point x="91" y="-7"/>
      <point x="111" y="17"/>
      <point x="111" y="43" type="curve"/>
      <point x="111" y="69"/>
      <point x="89" y="90"/>
      <point x="64" y="90" type="curve"/>
      <point x="31" y="90"/>
      <point x="17" y="66"/>
      <point x="17" y="43" type="curve"/>
      <point x="17" y="18"/>
      <point x="32" y="-7"/>
    </contour>
  </outline>
</glyph>
<glyph name="numbersign" format="1">
  <advance width="296"/>
  <unicode hex="0023"/>
  <outline>
    <contour>
      <point x="147" y="335" type="line"/>
      <point x="104" y="335" type="line"/>
      <point x="54" y="0" type="line"/>
      <point x="97" y="0" type="line"/>
    </contour>
    <contour>
      <point x="241" y="335" type="line"/>
      <point x="198" y="335" type="line"/>
      <point x="148" y="0" type="line"/>
      <point x="191" y="0" type="line"/>
    </contour>
    <contour>
      <point x="279" y="237" type="line"/>
      <point x="18" y="237" type="line"/>
      <point x="18" y="196" type="line"/>
      <point x="279" y="196" type="line"/>
    </contour>
    <contour>
      <point x="279" y="148" type="line"/>
      <point x="18" y="148" type="line"/>
      <point x="18" y="107" type="line"/>
      <point x="279" y="107" type="line"/>
    </contour>
  </outline>
</glyph>
<glyph name="dollar" format="1">
  <advance width="311"/>
  <unicode hex="0024"/>
  <outline>
    <contour>
      <point x="21" y="305" type="curve"/>
      <point x="21" y="254"/>
      <point x="37" y="228"/>
      <point x="115" y="179" type="curve"/>
      <point x="181" y="138"/>
      <point x="199" y="117"/>
      <point x="199" y="85" type="curve"/>
      <point x="199" y="53"/>
      <point x="180" y="30"/>
      <point x="143" y="30" type="curve"/>
      <point x="88" y="30"/>
      <point x="57" y="71"/>
      <point x="45" y="118" type="curve"/>
      <point x="45" y="120"/>
      <point x="39" y="121"/>
      <point x="29" y="121" type="curve"/>
      <point x="19" y="121"/>
      <point x="15" y="119"/>
      <point x="13" y="115" type="curve"/>
      <point x="13" y="95"/>
      <point x="21" y="34"/>
      <point x="27" y="10" type="curve"/>
      <point x="75" y="0"/>
      <point x="99" y="-6"/>
      <point x="134" y="-6" type="curve"/>
      <point x="217" y="-6"/>
      <point x="291" y="37"/>
      <point x="291" y="115" type="curve"/>
      <point x="291" y="168"/>
      <point x="272" y="193"/>
      <point x="190" y="242" type="curve"/>
      <point x="124" y="282"/>
      <point x="109" y="305"/>
      <point x="109" y="334" type="curve"/>
      <point x="109" y="367"/>
      <point x="131" y="385"/>
      <point x="160" y="385" type="curve"/>
      <point x="202" y="385"/>
      <point x="226" y="354"/>
      <point x="241" y="295" type="curve"/>
      <point x="241" y="292"/>
      <point x="246" y="291"/>
      <point x="255" y="291" type="curve"/>
      <point x="263" y="291"/>
      <point x="268" y="293"/>
      <point x="270" y="297" type="curve"/>
      <point x="270" y="325"/>
      <point x="268" y="360"/>
      <point x="264" y="404" type="curve"/>
      <point x="226" y="416"/>
      <point x="191" y="421"/>
      <point x="171" y="421" type="curve"/>
      <point x="85" y="421"/>
      <point x="21" y="365"/>
    </contour>
    <contour>
      <point x="212" y="476" type="line"/>
      <point x="173" y="476" type="line"/>
      <point x="98" y="-63" type="line"/>
      <point x="137" y="-63" type="line"/>
    </contour>
  </outline>
</glyph>
<glyph name="percent" format="1">
  <advance width="451"/>
  <unicode hex="0025"/>
  <outline>
    <contour>
      <point x="94" y="0" type="line"/>
      <point x="405" y="401" type="line"/>
      <point x="357" y="401" type="line"/>
      <point x="46" y="0" type="line"/>
    </contour>
    <contour>
      <point x="115" y="377" type="curve"/>
      <point x="135" y="377"/>
      <point x="154" y="338"/>
      <point x="154" y="295" type="curve"/>
      <point x="154" y="251"/>
      <point x="145" y="229"/>
      <point x="128" y="229" type="curve"/>
      <point x="106" y="229"/>
      <point x="89" y="267"/>
      <point x="89" y="312" type="curve"/>
      <point x="89" y="356"/>
      <point x="98" y="377"/>
    </contour>
    <contour>
      <point x="119" y="404" type="curve"/>
      <point x="65" y="404"/>
      <point x="24" y="360"/>
      <point x="24" y="303" type="curve"/>
      <point x="24" y="244"/>
      <point x="65" y="201"/>
      <point x="122" y="201" type="curve"/>
      <point x="176" y="201"/>
      <point x="217" y="244"/>
      <point x="217" y="303" type="curve"/>
      <point x="217" y="359"/>
      <point x="174" y="404"/>
    </contour>
    <contour>
      <point x="325" y="169" type="curve"/>
      <point x="345" y="169"/>
      <point x="363" y="131"/>
      <point x="363" y="88" type="curve"/>
      <point x="363" y="44"/>
      <point x="354" y="21"/>
      <point x="338" y="21" type="curve"/>
      <point x="316" y="21"/>
      <point x="299" y="60"/>
      <point x="299" y="104" type="curve"/>
      <point x="299" y="148"/>
      <point x="307" y="169"/>
    </contour>
    <contour>
      <point x="328" y="197" type="curve"/>
      <point x="275" y="197"/>
      <point x="234" y="153"/>
      <point x="234" y="96" type="curve"/>
      <point x="234" y="37"/>
      <point x="274" y="-7"/>
      <point x="331" y="-7" type="curve"/>
      <point x="386" y="-7"/>
      <point x="427" y="37"/>
      <point x="427" y="96" type="curve"/>
      <point x="427" y="151"/>
      <point x="383" y="197"/>
    </contour>
  </outline>
</glyph>
<glyph name="ampersand" format="1">
  <advance width="492"/>
  <unicode hex="0026"/>
  <outline>
    <contour>
      <point x="169" y="-2" type="curve"/>
      <point x="264" y="-2"/>
      <point x="331" y="48"/>
      <point x="408" y="167" type="curve"/>
      <point x="413" y="173"/>
      <point x="435" y="178"/>
      <point x="456" y="178" type="curve"/>
      <point x="459" y="178"/>
      <point x="460" y="183"/>
      <point x="460" y="190" type="curve"/>
      <point x="460" y="198"/>
      <point x="459" y="204"/>
      <point x="457" y="205" type="curve"/>
      <point x="419" y="204"/>
      <point x="393" y="204"/>
      <point x="382" y="204" type="curve"/>
      <point x="352" y="204"/>
      <point x="325" y="204"/>
      <point x="305" y="206" type="curve"/>
      <point x="304" y="201"/>
      <point x="304" y="197"/>
      <point x="304" y="192" type="curve"/>
      <point x="304" y="187"/>
      <point x="304" y="181"/>
      <point x="305" y="177" type="curve"/>
      <point x="341" y="177"/>
      <point x="349" y="175"/>
      <point x="349" y="167" type="curve"/>
      <point x="349" y="148"/>
      <point x="329" y="120"/>
      <point x="294" y="86" type="curve"/>
      <point x="261" y="55"/>
      <point x="234" y="45"/>
      <point x="192" y="45" type="curve"/>
      <point x="149" y="45"/>
      <point x="116" y="74"/>
      <point x="116" y="116" type="curve"/>
      <point x="116" y="148"/>
      <point x="135" y="176"/>
      <point x="185" y="206" type="curve"/>
      <point x="272" y="257"/>
      <point x="304" y="294"/>
      <point x="304" y="333" type="curve"/>
      <point x="304" y="389"/>
      <point x="260" y="418"/>
      <point x="201" y="418" type="curve"/>
      <point x="134" y="418"/>
      <point x="81" y="367"/>
      <point x="81" y="312" type="curve"/>
      <point x="81" y="269"/>
      <point x="98" y="242"/>
      <point x="159" y="154" type="curve"/>
      <point x="242" y="36"/>
      <point x="289" y="0"/>
      <point x="358" y="0" type="curve"/>
      <point x="407" y="0"/>
      <point x="444" y="17"/>
      <point x="470" y="69" type="curve"/>
      <point x="470" y="79"/>
      <point x="447" y="88"/>
      <point x="442" y="88" type="curve"/>
      <point x="428" y="61"/>
      <point x="409" y="50"/>
      <point x="397" y="50" type="curve"/>
      <point x="352" y="50"/>
      <point x="319" y="79"/>
      <point x="231" y="191" type="curve"/>
      <point x="183" y="252"/>
      <point x="160" y="295"/>
      <point x="160" y="330" type="curve"/>
      <point x="160" y="361"/>
      <point x="171" y="379"/>
      <point x="196" y="379" type="curve"/>
      <point x="217" y="379"/>
      <point x="235" y="359"/>
      <point x="235" y="333" type="curve"/>
      <point x="235" y="284"/>
      <point x="216" y="261"/>
      <point x="141" y="224" type="curve"/>
      <point x="59" y="183"/>
      <point x="25" y="149"/>
      <point x="25" y="99" type="curve"/>
      <point x="25" y="36"/>
      <point x="81" y="-2"/>
    </contour>
  </outline>
</glyph>
<glyph name="parenleft" format="1">
  <advance width="193"/>
  <unicode hex="0028"/>
  <outline>
    <contour>
      <point x="97" y="196" type="curve"/>
      <point x="97" y="307"/>
      <point x="136" y="420"/>
      <point x="186" y="453" type="curve"/>
      <point x="174" y="470" type="line"/>
      <point x="87" y="437"/>
      <point x="13" y="310"/>
      <point x="13" y="196" type="curve"/>
      <point x="13" y="82"/>
      <point x="87" y="-45"/>
      <point x="174" y="-78" type="curve"/>
      <point x="186" y="-61" type="line"/>
      <point x="136" y="-28"/>
      <point x="97" y="85"/>
    </contour>
  </outline>
</glyph>
<glyph name="parenright" format="1">
  <advance width="193"/>
  <unicode hex="0029"/>
  <outline>
    <contour>
      <point x="96" y="196" type="curve"/>
      <point x="96" y="85"/>
      <point x="57" y="-28"/>
      <point x="7" y="-61" type="curve"/>
      <point x="19" y="-78" type="line"/>
      <point x="106" y="-45"/>
      <point x="180" y="82"/>
      <point x="180" y="196" type="curve"/>
      <point x="180" y="310"/>
      <point x="106" y="437"/>
      <point x="19" y="470" type="curve"/>
      <point x="7" y="453" type="line"/>
      <point x="57" y="420"/>
      <point x="96" y="307"/>
    </contour>
  </outline>
</glyph>
<glyph name="asterisk" format="1">
  <advance width="273"/>
  <unicode hex="002A"/>
  <outline>
    <contour>
      <point x="198" y="390" type="curve"/>
      <point x="191" y="385"/>
      <point x="185" y="372"/>
      <point x="175" y="356" type="curve"/>
      <point x="164" y="339"/>
      <point x="158" y="329"/>
      <point x="154" y="324" type="curve"/>
      <point x="151" y="320"/>
      <point x="149" y="319"/>
      <point x="148" y="319" type="curve"/>
      <point x="147" y="319"/>
      <point x="145" y="320"/>
      <point x="144" y="323" type="curve"/>
      <point x="139" y="335"/>
      <point x="136" y="348"/>
      <point x="133" y="362" type="curve"/>
      <point x="131" y="377"/>
      <point x="127" y="392"/>
      <point x="122" y="401" type="curve"/>
      <point x="117" y="411"/>
      <point x="107" y="418"/>
      <point x="96" y="418" type="curve"/>
      <point x="81" y="418"/>
      <point x="69" y="405"/>
      <point x="69" y="389" type="curve"/>
      <point x="69" y="377"/>
      <point x="78" y="363"/>
      <point x="96" y="344" type="curve"/>
      <point x="111" y="330"/>
      <point x="122" y="315"/>
      <point x="122" y="308" type="curve"/>
      <point x="122" y="306"/>
      <point x="116" y="305"/>
      <point x="104" y="305" type="curve"/>
      <point x="85" y="305"/>
      <point x="64" y="310"/>
      <point x="47" y="310" type="curve"/>
      <point x="25" y="310"/>
      <point x="10" y="300"/>
      <point x="10" y="283" type="curve"/>
      <point x="10" y="267"/>
      <point x="24" y="254"/>
      <point x="40" y="254" type="curve"/>
      <point x="48" y="254"/>
      <point x="62" y="259"/>
      <point x="81" y="268" type="curve"/>
      <point x="92" y="274"/>
      <point x="109" y="282"/>
      <point x="122" y="282" type="curve"/>
      <point x="123" y="282"/>
      <point x="124" y="280"/>
      <point x="124" y="278" type="curve"/>
      <point x="124" y="273"/>
      <point x="121" y="264"/>
      <point x="110" y="238" type="curve"/>
      <point x="99" y="215"/>
      <point x="95" y="203"/>
      <point x="95" y="193" type="curve"/>
      <point x="95" y="178"/>
      <point x="106" y="167"/>
      <point x="122" y="167" type="curve"/>
      <point x="142" y="167"/>
      <point x="152" y="180"/>
      <point x="152" y="205" type="curve"/>
      <point x="152" y="217"/>
      <point x="147" y="252"/>
      <point x="147" y="269" type="curve"/>
      <point x="147" y="272"/>
      <point x="150" y="276"/>
      <point x="153" y="276" type="curve"/>
      <point x="157" y="276"/>
      <point x="173" y="264"/>
      <point x="189" y="249" type="curve"/>
      <point x="211" y="228"/>
      <point x="223" y="221"/>
      <point x="235" y="221" type="curve"/>
      <point x="251" y="221"/>
      <point x="263" y="232"/>
      <point x="263" y="246" type="curve"/>
      <point x="263" y="258"/>
      <point x="257" y="268"/>
      <point x="248" y="273" type="curve"/>
      <point x="238" y="279"/>
      <point x="224" y="283"/>
      <point x="209" y="285" type="curve"/>
      <point x="186" y="288"/>
      <point x="166" y="295"/>
      <point x="166" y="299" type="curve"/>
      <point x="166" y="304"/>
      <point x="173" y="309"/>
      <point x="202" y="325" type="curve"/>
      <point x="235" y="344"/>
      <point x="246" y="355"/>
      <point x="246" y="371" type="curve"/>
      <point x="246" y="386"/>
      <point x="234" y="398"/>
      <point x="219" y="398" type="curve"/>
      <point x="211" y="398"/>
      <point x="205" y="395"/>
    </contour>
  </outline>
</glyph>
<glyph name="plus" format="1">
  <advance width="354"/>
  <unicode hex="002B"/>
  <outline>
    <contour>
      <point x="322" y="179" type="line"/>
      <point x="31" y="179" type="line"/>
      <point x="31" y="130" type="line"/>
      <point x="322" y="130" type="line"/>
    </contour>
    <contour>
      <point x="202" y="7" type="line"/>
      <point x="202" y="302" type="line"/>
      <point x="152" y="302" type="line"/>
      <point x="152" y="7" type="line"/>
    </contour>
  </outline>
</glyph>
<glyph name="comma" format="1">
  <advance width="127"/>
  <unicode hex="002C"/>
  <outline>
    <contour>
      <point x="24" y="-105" type="curve"/>
      <point x="73" y="-75"/>
      <point x="111" y="-19"/>
      <point x="111" y="23" type="curve"/>
      <point x="111" y="74"/>
      <point x="89" y="90"/>
      <point x="64" y="90" type="curve"/>
      <point x="39" y="90"/>
      <point x="17" y="71"/>
      <point x="17" y="43" type="curve"/>
      <point x="17" y="1"/>
      <point x="43" y="2"/>
      <point x="43" y="-30" type="curve"/>
      <point x="43" y="-48"/>
      <point x="34" y="-60"/>
      <point x="6" y="-84" type="curve"/>
      <point x="6" y="-92"/>
      <point x="19" y="-105"/>
    </contour>
  </outline>
</glyph>
<glyph name="hyphen" format="1">
  <advance width="200"/>
  <unicode hex="002D"/>
  <outline>
    <contour>
      <point x="18" y="130" type="curve"/>
      <point x="18" y="124"/>
      <point x="20" y="122"/>
      <point x="22" y="121" type="curve"/>
      <point x="177" y="128" type="line"/>
      <point x="180" y="135"/>
      <point x="182" y="149"/>
      <point x="182" y="165" type="curve"/>
      <point x="182" y="171"/>
      <point x="181" y="174"/>
      <point x="178" y="176" type="curve"/>
      <point x="25" y="168" type="line"/>
      <point x="20" y="166"/>
      <point x="18" y="155"/>
    </contour>
  </outline>
</glyph>
<glyph name="period" format="1">
  <advance width="127"/>
  <unicode hex="002E"/>
  <outline>
    <contour>
      <point x="65" y="-7" type="curve"/>
      <point x="91" y="-7"/>
      <point x="111" y="17"/>
      <point x="111" y="43" type="curve"/>
      <point x="111" y="69"/>
      <point x="89" y="90"/>
      <point x="64" y="90" type="curve"/>
      <point x="31" y="90"/>
      <point x="17" y="66"/>
      <point x="17" y="43" type="curve"/>
      <point x="17" y="18"/>
      <point x="32" y="-7"/>
    </contour>
  </outline>
</glyph>
<glyph name="slash" format="1">
  <advance width="267"/>
  <unicode hex="002F"/>
  <outline>
    <contour>
      <point x="66" y="-18" type="line"/>
      <point x="255" y="474" type="line"/>
      <point x="203" y="474" type="line"/>
      <point x="14" y="-18" type="line"/>
    </contour>
  </outline>
</glyph>
<glyph name="zero" format="1">
  <advance width="341"/>
  <unicode hex="0030"/>
  <outline>
    <contour>
      <point x="172" y="-2" type="curve" smooth="yes"/>
      <point x="254" y="-2"/>
      <point x="313" y="82"/>
      <point x="313" y="200" type="curve" smooth="yes"/>
      <point x="313" y="318"/>
      <point x="254" y="403"/>
      <point x="172" y="403" type="curve" smooth="yes"/>
      <point x="88" y="403"/>
      <point x="28" y="318"/>
      <point x="28" y="200" type="curve" smooth="yes"/>
      <point x="28" y="82"/>
      <point x="88" y="-2"/>
    </contour>
    <contour>
      <point x="173" y="32" type="curve" smooth="yes"/>
      <point x="132" y="32"/>
      <point x="116" y="133"/>
      <point x="116" y="201" type="curve" smooth="yes"/>
      <point x="116" y="269"/>
      <point x="126" y="370"/>
      <point x="172" y="370" type="curve" smooth="yes"/>
      <point x="214" y="370"/>
      <point x="224" y="275"/>
      <point x="224" y="204" type="curve" smooth="yes"/>
      <point x="224" y="135"/>
      <point x="217" y="32"/>
    </contour>
  </outline>
</glyph>
<glyph name="one" format="1">
  <advance width="224"/>
  <unicode hex="0031"/>
  <outline>
    <contour>
      <point x="30" y="-3" type="curve"/>
      <point x="34" y="-2"/>
      <point x="93" y="3"/>
      <point x="114" y="3" type="curve" smooth="yes"/>
      <point x="135" y="3"/>
      <point x="192" y="-2"/>
      <point x="197" y="-3" type="curve"/>
      <point x="198" y="-1"/>
      <point x="198" y="3"/>
      <point x="198" y="8" type="curve" smooth="yes"/>
      <point x="198" y="17"/>
      <point x="198" y="21"/>
      <point x="197" y="21" type="curve" smooth="yes"/>
      <point x="190" y="21"/>
      <point x="163" y="31"/>
      <point x="162" y="37" type="curve"/>
      <point x="158" y="50"/>
      <point x="157" y="65"/>
      <point x="157" y="81" type="curve" smooth="yes"/>
      <point x="157" y="333" type="line" smooth="yes"/>
      <point x="157" y="360"/>
      <point x="158" y="380"/>
      <point x="162" y="392" type="curve"/>
      <point x="160" y="400"/>
      <point x="158" y="404"/>
      <point x="155" y="404" type="curve" smooth="yes"/>
      <point x="153" y="404" type="line"/>
      <point x="89" y="369"/>
      <point x="31" y="331"/>
      <point x="6" y="315" type="curve"/>
      <point x="5" y="315"/>
      <point x="4" y="312"/>
      <point x="4" y="307" type="curve" smooth="yes"/>
      <point x="4" y="303"/>
      <point x="8" y="295"/>
      <point x="14" y="292" type="curve"/>
      <point x="39" y="307"/>
      <point x="52" y="313"/>
      <point x="58" y="313" type="curve" smooth="yes"/>
      <point x="66" y="313"/>
      <point x="71" y="304"/>
      <point x="71" y="283" type="curve" smooth="yes"/>
      <point x="71" y="74" type="line" smooth="yes"/>
      <point x="71" y="60"/>
      <point x="70" y="48"/>
      <point x="67" y="38" type="curve" smooth="yes"/>
      <point x="65" y="31"/>
      <point x="39" y="21"/>
      <point x="30" y="21" type="curve" smooth="yes"/>
      <point x="28" y="21"/>
      <point x="27" y="18"/>
      <point x="27" y="11" type="curve" smooth="yes"/>
      <point x="27" y="4"/>
      <point x="28" y="-1"/>
    </contour>
  </outline>
</glyph>
<glyph name="two" format="1">
  <advance width="286"/>
  <unicode hex="0032"/>
  <outline>
    <contour>
      <point x="9" y="0" type="curve"/>
      <point x="242" y="0" type="line" smooth="yes"/>
      <point x="246" y="0"/>
      <point x="248" y="3"/>
      <point x="249" y="9" type="curve"/>
      <point x="258" y="52"/>
      <point x="266" y="90"/>
      <point x="274" y="124" type="curve"/>
      <point x="271" y="126"/>
      <point x="266" y="127"/>
      <point x="259" y="127" type="curve" smooth="yes"/>
      <point x="253" y="127"/>
      <point x="249" y="126"/>
      <point x="248" y="123" type="curve"/>
      <point x="241" y="95"/>
      <point x="232" y="67"/>
      <point x="196" y="67" type="curve" smooth="yes"/>
      <point x="77" y="67" type="line"/>
      <point x="74" y="60" type="line"/>
      <point x="207" y="177"/>
      <point x="244" y="229"/>
      <point x="244" y="294" type="curve" smooth="yes"/>
      <point x="244" y="361"/>
      <point x="196" y="403"/>
      <point x="133" y="403" type="curve" smooth="yes"/>
      <point x="64" y="403"/>
      <point x="30" y="356"/>
      <point x="14" y="323" type="curve"/>
      <point x="14" y="314"/>
      <point x="26" y="306"/>
      <point x="33" y="306" type="curve"/>
      <point x="54" y="337"/>
      <point x="69" y="350"/>
      <point x="99" y="350" type="curve" smooth="yes"/>
      <point x="131" y="350"/>
      <point x="151" y="317"/>
      <point x="151" y="283" type="curve" smooth="yes"/>
      <point x="151" y="222"/>
      <point x="79" y="108"/>
      <point x="1" y="21" type="curve"/>
      <point x="2" y="12"/>
      <point x="4" y="6"/>
    </contour>
  </outline>
</glyph>
<glyph name="three" format="1">
  <advance width="279"/>
  <unicode hex="0033"/>
  <outline>
    <contour>
      <point x="83" y="-2" type="curve" smooth="yes"/>
      <point x="182" y="-2"/>
      <point x="261" y="60"/>
      <point x="261" y="142" type="curve" smooth="yes"/>
      <point x="261" y="189"/>
      <point x="225" y="240"/>
      <point x="145" y="240" type="curve"/>
      <point x="144" y="232" type="line"/>
      <point x="197" y="245"/>
      <point x="223" y="294"/>
      <point x="223" y="332" type="curve" smooth="yes"/>
      <point x="223" y="373"/>
      <point x="190" y="403"/>
      <point x="142" y="403" type="curve" smooth="yes"/>
      <point x="101" y="403"/>
      <point x="63" y="384"/>
      <point x="36" y="350" type="curve"/>
      <point x="36" y="343"/>
      <point x="45" y="333"/>
      <point x="51" y="333" type="curve"/>
      <point x="65" y="349"/>
      <point x="84" y="358"/>
      <point x="103" y="358" type="curve" smooth="yes"/>
      <point x="132" y="358"/>
      <point x="146" y="342"/>
      <point x="146" y="309" type="curve" smooth="yes"/>
      <point x="146" y="265"/>
      <point x="118" y="233"/>
      <point x="72" y="226" type="curve"/>
      <point x="71" y="223"/>
      <point x="70" y="220"/>
      <point x="70" y="216" type="curve" smooth="yes"/>
      <point x="70" y="207"/>
      <point x="71" y="201"/>
      <point x="74" y="197" type="curve"/>
      <point x="88" y="199"/>
      <point x="100" y="200"/>
      <point x="109" y="200" type="curve" smooth="yes"/>
      <point x="148" y="200"/>
      <point x="172" y="168"/>
      <point x="172" y="119" type="curve" smooth="yes"/>
      <point x="172" y="63"/>
      <point x="152" y="31"/>
      <point x="113" y="31" type="curve" smooth="yes"/>
      <point x="65" y="31"/>
      <point x="72" y="76"/>
      <point x="35" y="76" type="curve" smooth="yes"/>
      <point x="18" y="76"/>
      <point x="8" y="63"/>
      <point x="8" y="45" type="curve" smooth="yes"/>
      <point x="8" y="15"/>
      <point x="38" y="-2"/>
    </contour>
  </outline>
</glyph>
<glyph name="four" format="1">
  <advance width="310"/>
  <unicode hex="0034"/>
  <outline>
    <contour>
      <point x="219" y="-3" type="curve" smooth="yes"/>
      <point x="236" y="-3"/>
      <point x="251" y="-1"/>
      <point x="262" y="3" type="curve"/>
      <point x="262" y="109" type="line"/>
      <point x="292" y="109" type="line"/>
      <point x="293" y="110"/>
      <point x="295" y="119"/>
      <point x="295" y="125" type="curve" smooth="yes"/>
      <point x="295" y="144"/>
      <point x="292" y="154"/>
      <point x="286" y="154" type="curve" smooth="yes"/>
      <point x="262" y="154" type="line"/>
      <point x="262" y="398" type="line" smooth="yes"/>
      <point x="262" y="402"/>
      <point x="258" y="404"/>
      <point x="250" y="404" type="curve" smooth="yes"/>
      <point x="244" y="404"/>
      <point x="238" y="401"/>
      <point x="233" y="395" type="curve" smooth="yes"/>
      <point x="14" y="141" type="line"/>
      <point x="14" y="126"/>
      <point x="18" y="116"/>
      <point x="24" y="109" type="curve"/>
      <point x="180" y="109" type="line"/>
      <point x="180" y="6" type="line" smooth="yes"/>
      <point x="180" y="0"/>
      <point x="193" y="-3"/>
    </contour>
    <contour>
      <point x="53" y="137" type="line"/>
      <point x="188" y="292" type="line"/>
      <point x="180" y="293" type="line"/>
      <point x="180" y="154" type="line"/>
      <point x="60" y="154" type="line"/>
    </contour>
  </outline>
</glyph>
<glyph name="five" format="1">
  <advance width="278"/>
  <unicode hex="0035"/>
  <outline>
    <contour>
      <point x="93" y="-2" type="curve" smooth="yes"/>
      <point x="186" y="-2"/>
      <point x="264" y="65"/>
      <point x="264" y="150" type="curve" smooth="yes"/>
      <point x="264" y="211"/>
      <point x="197" y="268"/>
      <point x="130" y="268" type="curve" smooth="yes"/>
      <point x="114" y="268"/>
      <point x="97" y="266"/>
      <point x="79" y="262" type="curve"/>
      <point x="92" y="338" type="line"/>
      <point x="87" y="333" type="line"/>
      <point x="146" y="333" type="line" smooth="yes"/>
      <point x="175" y="332"/>
      <point x="209" y="334"/>
      <point x="227" y="334" type="curve"/>
      <point x="232" y="341"/>
      <point x="234" y="358"/>
      <point x="234" y="382" type="curve" smooth="yes"/>
      <point x="234" y="392"/>
      <point x="232" y="399"/>
      <point x="229" y="404" type="curve"/>
      <point x="221" y="403"/>
      <point x="167" y="402"/>
      <point x="68" y="402" type="curve"/>
      <point x="32" y="206" type="line"/>
      <point x="35" y="203"/>
      <point x="38" y="200"/>
      <point x="43" y="197" type="curve"/>
      <point x="61" y="203"/>
      <point x="77" y="206"/>
      <point x="93" y="206" type="curve" smooth="yes"/>
      <point x="145" y="206"/>
      <point x="175" y="166"/>
      <point x="175" y="115" type="curve" smooth="yes"/>
      <point x="175" y="64"/>
      <point x="152" y="32"/>
      <point x="115" y="32" type="curve" smooth="yes"/>
      <point x="68" y="32"/>
      <point x="75" y="77"/>
      <point x="38" y="77" type="curve" smooth="yes"/>
      <point x="22" y="77"/>
      <point x="10" y="63"/>
      <point x="10" y="44" type="curve" smooth="yes"/>
      <point x="10" y="16"/>
      <point x="39" y="-2"/>
    </contour>
  </outline>
</glyph>
<glyph name="six" format="1">
  <advance width="305"/>
  <unicode hex="0036"/>
  <outline>
    <contour>
      <point x="154" y="-4" type="curve" smooth="yes"/>
      <point x="237" y="-4"/>
      <point x="284" y="65"/>
      <point x="284" y="130" type="curve" smooth="yes"/>
      <point x="284" y="190"/>
      <point x="235" y="240"/>
      <point x="176" y="240" type="curve" smooth="yes"/>
      <point x="163" y="240"/>
      <point x="135" y="233"/>
      <point x="119" y="224" type="curve"/>
      <point x="127" y="218" type="line"/>
      <point x="144" y="277"/>
      <point x="208" y="351"/>
      <point x="270" y="380" type="curve"/>
      <point x="270" y="390"/>
      <point x="264" y="401"/>
      <point x="257" y="406" type="curve"/>
      <point x="118" y="350"/>
      <point x="28" y="243"/>
      <point x="28" y="135" type="curve" smooth="yes"/>
      <point x="28" y="57"/>
      <point x="83" y="-4"/>
    </contour>
    <contour>
      <point x="155" y="30" type="curve" smooth="yes"/>
      <point x="139" y="30"/>
      <point x="114" y="72"/>
      <point x="114" y="130" type="curve" smooth="yes"/>
      <point x="114" y="146"/>
      <point x="117" y="168"/>
      <point x="120" y="180" type="curve" smooth="yes"/>
      <point x="123" y="193"/>
      <point x="129" y="199"/>
      <point x="138" y="199" type="curve" smooth="yes"/>
      <point x="172" y="199"/>
      <point x="197" y="157"/>
      <point x="197" y="104" type="curve" smooth="yes"/>
      <point x="197" y="63"/>
      <point x="178" y="30"/>
    </contour>
  </outline>
</glyph>
<glyph name="seven" format="1">
  <advance width="294"/>
  <unicode hex="0037"/>
  <outline>
    <contour>
      <point x="104" y="-7" type="curve" smooth="yes"/>
      <point x="108" y="-7" type="line"/>
      <point x="273" y="355" type="line" smooth="yes"/>
      <point x="286" y="385"/>
      <point x="289" y="392"/>
      <point x="289" y="397" type="curve" smooth="yes"/>
      <point x="289" y="401"/>
      <point x="288" y="403"/>
      <point x="285" y="403" type="curve" smooth="yes"/>
      <point x="268" y="403"/>
      <point x="254" y="401"/>
      <point x="243" y="401" type="curve" smooth="yes"/>
      <point x="57" y="401" type="line" smooth="yes"/>
      <point x="50" y="401"/>
      <point x="46" y="399"/>
      <point x="45" y="394" type="curve" smooth="yes"/>
      <point x="38" y="360"/>
      <point x="30" y="330"/>
      <point x="16" y="279" type="curve"/>
      <point x="18" y="277"/>
      <point x="23" y="275"/>
      <point x="28" y="275" type="curve" smooth="yes"/>
      <point x="36" y="275"/>
      <point x="44" y="277"/>
      <point x="45" y="280" type="curve" smooth="yes"/>
      <point x="56" y="311"/>
      <point x="62" y="335"/>
      <point x="91" y="335" type="curve" smooth="yes"/>
      <point x="230" y="335" type="line"/>
      <point x="66" y="15" type="line"/>
      <point x="66" y="2"/>
      <point x="85" y="-7"/>
    </contour>
  </outline>
</glyph>
<glyph name="eight" format="1">
  <advance width="317"/>
  <unicode hex="0038"/>
  <outline>
    <contour>
      <point x="159" y="-6" type="curve" smooth="yes"/>
      <point x="223" y="-6"/>
      <point x="296" y="43"/>
      <point x="296" y="108" type="curve" smooth="yes"/>
      <point x="296" y="215"/>
      <point x="121" y="233"/>
      <point x="121" y="316" type="curve" smooth="yes"/>
      <point x="121" y="354"/>
      <point x="138" y="374"/>
      <point x="158" y="374" type="curve" smooth="yes"/>
      <point x="180" y="374"/>
      <point x="197" y="348"/>
      <point x="197" y="306" type="curve" smooth="yes"/>
      <point x="197" y="281"/>
      <point x="189" y="250"/>
      <point x="170" y="235" type="curve"/>
      <point x="192" y="209" type="line"/>
      <point x="255" y="240"/>
      <point x="283" y="276"/>
      <point x="283" y="313" type="curve" smooth="yes"/>
      <point x="283" y="370"/>
      <point x="229" y="404"/>
      <point x="165" y="404" type="curve" smooth="yes"/>
      <point x="110" y="404"/>
      <point x="36" y="361"/>
      <point x="36" y="298" type="curve" smooth="yes"/>
      <point x="36" y="181"/>
      <point x="207" y="166"/>
      <point x="207" y="89" type="curve" smooth="yes"/>
      <point x="207" y="50"/>
      <point x="187" y="28"/>
      <point x="159" y="28" type="curve" smooth="yes"/>
      <point x="131" y="28"/>
      <point x="110" y="58"/>
      <point x="110" y="98" type="curve" smooth="yes"/>
      <point x="110" y="133"/>
      <point x="123" y="163"/>
      <point x="143" y="182" type="curve"/>
      <point x="130" y="203" type="line"/>
      <point x="65" y="184"/>
      <point x="20" y="145"/>
      <point x="21" y="98" type="curve" smooth="yes"/>
      <point x="22" y="36"/>
      <point x="89" y="-6"/>
    </contour>
  </outline>
</glyph>
<glyph name="nine" format="1">
  <advance width="305"/>
  <unicode hex="0039"/>
  <outline>
    <contour>
      <point x="48" y="-4" type="curve"/>
      <point x="187" y="51"/>
      <point x="277" y="158"/>
      <point x="277" y="266" type="curve" smooth="yes"/>
      <point x="277" y="345"/>
      <point x="222" y="405"/>
      <point x="151" y="405" type="curve" smooth="yes"/>
      <point x="68" y="405"/>
      <point x="20" y="336"/>
      <point x="20" y="271" type="curve" smooth="yes"/>
      <point x="20" y="212"/>
      <point x="70" y="161"/>
      <point x="129" y="161" type="curve" smooth="yes"/>
      <point x="142" y="161"/>
      <point x="170" y="169"/>
      <point x="186" y="177" type="curve"/>
      <point x="178" y="183" type="line"/>
      <point x="161" y="124"/>
      <point x="97" y="50"/>
      <point x="35" y="21" type="curve"/>
      <point x="35" y="11"/>
      <point x="41" y="0"/>
    </contour>
    <contour>
      <point x="167" y="202" type="curve" smooth="yes"/>
      <point x="132" y="202"/>
      <point x="107" y="244"/>
      <point x="107" y="298" type="curve" smooth="yes"/>
      <point x="107" y="338"/>
      <point x="126" y="371"/>
      <point x="149" y="371" type="curve" smooth="yes"/>
      <point x="166" y="371"/>
      <point x="190" y="329"/>
      <point x="190" y="271" type="curve" smooth="yes"/>
      <point x="190" y="255"/>
      <point x="188" y="234"/>
      <point x="185" y="221" type="curve" smooth="yes"/>
      <point x="182" y="209"/>
      <point x="176" y="202"/>
    </contour>
  </outline>
</glyph>
<glyph name="colon" format="1">
  <advance width="127"/>
  <unicode hex="003A"/>
  <outline>
    <contour>
      <point x="115" y="48" type="curve"/>
      <point x="113" y="76"/>
      <point x="87" y="98"/>
      <point x="59" y="95" type="curve"/>
      <point x="24" y="93"/>
      <point x="9" y="64"/>
      <point x="12" y="38" type="curve"/>
      <point x="14" y="11"/>
      <point x="34" y="-14"/>
      <point x="70" y="-11" type="curve"/>
      <point x="98" y="-9"/>
      <point x="118" y="19"/>
    </contour>
    <contour>
      <point x="115" y="237" type="curve"/>
      <point x="113" y="266"/>
      <point x="87" y="287"/>
      <point x="59" y="284" type="curve"/>
      <point x="24" y="282"/>
      <point x="9" y="253"/>
      <point x="12" y="227" type="curve"/>
      <point x="14" y="200"/>
      <point x="34" y="175"/>
      <point x="70" y="178" type="curve"/>
      <point x="98" y="180"/>
      <point x="118" y="208"/>
    </contour>
  </outline>
</glyph>
<glyph name="semicolon" format="1">
  <advance width="127"/>
  <unicode hex="003B"/>
  <outline>
    <contour>
      <point x="115" y="237" type="curve"/>
      <point x="113" y="266"/>
      <point x="87" y="287"/>
      <point x="59" y="284" type="curve"/>
      <point x="24" y="282"/>
      <point x="9" y="253"/>
      <point x="12" y="227" type="curve"/>
      <point x="14" y="200"/>
      <point x="34" y="175"/>
      <point x="70" y="178" type="curve"/>
      <point x="98" y="180"/>
      <point x="118" y="208"/>
    </contour>
    <contour>
      <point x="17" y="43" type="curve"/>
      <point x="17" y="1"/>
      <point x="43" y="2"/>
      <point x="43" y="-30" type="curve"/>
      <point x="43" y="-48"/>
      <point x="34" y="-60"/>
      <point x="6" y="-84" type="curve"/>
      <point x="6" y="-92"/>
      <point x="19" y="-105"/>
      <point x="24" y="-105" type="curve"/>
      <point x="73" y="-75"/>
      <point x="111" y="-19"/>
      <point x="111" y="23" type="curve"/>
      <point x="111" y="74"/>
      <point x="89" y="90"/>
      <point x="64" y="90" type="curve"/>
      <point x="39" y="90"/>
      <point x="17" y="71"/>
    </contour>
  </outline>
</glyph>
<glyph name="less" format="1">
  <advance width="324"/>
  <unicode hex="003C"/>
  <outline>
    <contour>
      <point x="292" y="251" type="line"/>
      <point x="270" y="299" type="line"/>
      <point x="31" y="178" type="line"/>
      <point x="31" y="131" type="line"/>
      <point x="270" y="10" type="line"/>
      <point x="292" y="58" type="line"/>
      <point x="76" y="167" type="line"/>
      <point x="76" y="142" type="line"/>
    </contour>
  </outline>
</glyph>
<glyph name="equal" format="1">
  <advance width="354"/>
  <unicode hex="003D"/>
  <outline>
    <contour>
      <point x="31" y="128" type="line"/>
      <point x="31" y="80" type="line"/>
      <point x="322" y="80" type="line"/>
      <point x="322" y="128" type="line"/>
    </contour>
    <contour>
      <point x="31" y="229" type="line"/>
      <point x="31" y="181" type="line"/>
      <point x="322" y="181" type="line"/>
      <point x="322" y="229" type="line"/>
    </contour>
  </outline>
</glyph>
<glyph name="greater" format="1">
  <advance width="324"/>
  <unicode hex="003E"/>
  <outline>
    <contour>
      <point x="292" y="178" type="line"/>
      <point x="54" y="299" type="line"/>
      <point x="31" y="251" type="line"/>
      <point x="248" y="142" type="line"/>
      <point x="248" y="167" type="line"/>
      <point x="31" y="58" type="line"/>
      <point x="54" y="10" type="line"/>
      <point x="292" y="131" type="line"/>
    </contour>
  </outline>
</glyph>
<glyph name="question" format="1">
  <advance width="218"/>
  <unicode hex="003F"/>
  <outline>
    <contour>
      <point x="61" y="122" type="curve"/>
      <point x="66" y="122"/>
      <point x="71" y="123"/>
      <point x="71" y="127" type="curve"/>
      <point x="71" y="155"/>
      <point x="72" y="164"/>
      <point x="80" y="167" type="curve"/>
      <point x="86" y="170"/>
      <point x="108" y="179"/>
      <point x="120" y="183" type="curve"/>
      <point x="177" y="205"/>
      <point x="198" y="237"/>
      <point x="198" y="296" type="curve"/>
      <point x="198" y="357"/>
      <point x="133" y="406"/>
      <point x="48" y="406" type="curve"/>
      <point x="15" y="406"/>
      <point x="4" y="396"/>
      <point x="4" y="369" type="curve"/>
      <point x="4" y="345"/>
      <point x="26" y="325"/>
      <point x="51" y="325" type="curve"/>
      <point x="75" y="325"/>
      <point x="90" y="334"/>
      <point x="109" y="334" type="curve"/>
      <point x="131" y="334"/>
      <point x="141" y="326"/>
      <point x="141" y="304" type="curve"/>
      <point x="141" y="281"/>
      <point x="126" y="270"/>
      <point x="68" y="238" type="curve"/>
      <point x="46" y="225"/>
      <point x="39" y="212"/>
      <point x="39" y="169" type="curve"/>
      <point x="39" y="150"/>
      <point x="42" y="136"/>
      <point x="44" y="129" type="curve"/>
      <point x="46" y="122"/>
      <point x="56" y="122"/>
    </contour>
    <contour>
      <point x="65" y="-7" type="curve"/>
      <point x="91" y="-7"/>
      <point x="111" y="17"/>
      <point x="111" y="43" type="curve"/>
      <point x="111" y="69"/>
      <point x="89" y="90"/>
      <point x="64" y="90" type="curve"/>
      <point x="31" y="90"/>
      <point x="17" y="66"/>
      <point x="17" y="43" type="curve"/>
      <point x="17" y="18"/>
      <point x="32" y="-7"/>
    </contour>
  </outline>
</glyph>
<glyph name="B" format="1">
  <advance width="405"/>
  <unicode hex="0042"/>
  <outline>
    <contour>
      <point x="22" y="-3" type="curve"/>
      <point x="71" y="1"/>
      <point x="93" y="1"/>
      <point x="116" y="1" type="curve" smooth="yes"/>
      <point x="145" y="1"/>
      <point x="174" y="0"/>
      <point x="203" y="0" type="curve" smooth="yes"/>
      <point x="311" y="0"/>
      <point x="381" y="50"/>
      <point x="381" y="124" type="curve" smooth="yes"/>
      <point x="381" y="180"/>
      <point x="342" y="215"/>
      <point x="271" y="222" type="curve"/>
      <point x="263" y="214" type="line"/>
      <point x="318" y="228"/>
      <point x="352" y="267"/>
      <point x="352" y="318" type="curve" smooth="yes"/>
      <point x="352" y="378"/>
      <point x="298" y="415"/>
      <point x="213" y="415" type="curve" smooth="yes"/>
      <point x="179" y="414"/>
      <point x="146" y="414"/>
      <point x="115" y="414" type="curve" smooth="yes"/>
      <point x="94" y="414"/>
      <point x="69" y="415"/>
      <point x="21" y="417" type="curve"/>
      <point x="20" y="416"/>
      <point x="19" y="412"/>
      <point x="19" y="405" type="curve" smooth="yes"/>
      <point x="19" y="397"/>
      <point x="20" y="394"/>
      <point x="21" y="394" type="curve" smooth="yes"/>
      <point x="32" y="394"/>
      <point x="62" y="381"/>
      <point x="63" y="376" type="curve"/>
      <point x="66" y="366"/>
      <point x="67" y="350"/>
      <point x="67" y="327" type="curve" smooth="yes"/>
      <point x="67" y="90" type="line" smooth="yes"/>
      <point x="67" y="63"/>
      <point x="66" y="45"/>
      <point x="63" y="35" type="curve"/>
      <point x="62" y="29"/>
      <point x="37" y="21"/>
      <point x="22" y="21" type="curve" smooth="yes"/>
      <point x="20" y="21"/>
      <point x="20" y="18"/>
      <point x="20" y="8" type="curve" smooth="yes"/>
      <point x="20" y="3"/>
      <point x="20" y="-1"/>
    </contour>
    <contour>
      <point x="195" y="33" type="curve" smooth="yes"/>
      <point x="166" y="33"/>
      <point x="159" y="39"/>
      <point x="159" y="64" type="curve" smooth="yes"/>
      <point x="159" y="193" type="line"/>
      <point x="168" y="196"/>
      <point x="177" y="197"/>
      <point x="197" y="197" type="curve" smooth="yes"/>
      <point x="251" y="197"/>
      <point x="283" y="166"/>
      <point x="283" y="112" type="curve" smooth="yes"/>
      <point x="283" y="61"/>
      <point x="252" y="33"/>
    </contour>
    <contour>
      <point x="191" y="233" type="curve" smooth="yes"/>
      <point x="175" y="233"/>
      <point x="166" y="233"/>
      <point x="159" y="235" type="curve"/>
      <point x="159" y="369" type="line" smooth="yes"/>
      <point x="159" y="377"/>
      <point x="169" y="381"/>
      <point x="187" y="381" type="curve" smooth="yes"/>
      <point x="228" y="381"/>
      <point x="254" y="353"/>
      <point x="254" y="307" type="curve" smooth="yes"/>
      <point x="254" y="257"/>
      <point x="233" y="233"/>
    </contour>
    <contour>
      <point x="194" y="0" type="move" name="bottom"/>
    </contour>
    <contour>
      <point x="194" y="413" type="move" name="top"/>
    </contour>
  </outline>
</glyph>
<glyph name="C" format="1">
  <advance width="412"/>
  <unicode hex="0043"/>
  <outline>
    <contour>
      <point x="254" y="-4" type="curve" smooth="yes"/>
      <point x="294" y="-4"/>
      <point x="327" y="4"/>
      <point x="371" y="21" type="curve"/>
      <point x="376" y="24"/>
      <point x="395" y="92"/>
      <point x="395" y="113" type="curve"/>
      <point x="394" y="117"/>
      <point x="384" y="119"/>
      <point x="366" y="119" type="curve"/>
      <point x="360" y="98"/>
      <point x="352" y="79"/>
      <point x="339" y="64" type="curve" smooth="yes"/>
      <point x="321" y="43"/>
      <point x="295" y="30"/>
      <point x="259" y="30" type="curve" smooth="yes"/>
      <point x="182" y="30"/>
      <point x="131" y="103"/>
      <point x="131" y="216" type="curve" smooth="yes"/>
      <point x="131" y="323"/>
      <point x="172" y="383"/>
      <point x="252" y="383" type="curve" smooth="yes"/>
      <point x="305" y="383"/>
      <point x="349" y="354"/>
      <point x="364" y="300" type="curve"/>
      <point x="376" y="297"/>
      <point x="386" y="298"/>
      <point x="393" y="301" type="curve"/>
      <point x="391" y="326"/>
      <point x="386" y="379"/>
      <point x="378" y="400" type="curve"/>
      <point x="335" y="412"/>
      <point x="287" y="419"/>
      <point x="254" y="419" type="curve" smooth="yes"/>
      <point x="129" y="419"/>
      <point x="28" y="330"/>
      <point x="28" y="202" type="curve" smooth="yes"/>
      <point x="28" y="77"/>
      <point x="122" y="-4"/>
    </contour>
    <contour>
      <point x="214" y="0" type="move" name="bottom"/>
    </contour>
    <contour>
      <point x="214" y="413" type="move" name="top"/>
    </contour>
  </outline>
</glyph>
<glyph name="D" format="1">
  <advance width="471"/>
  <unicode hex="0044"/>
  <outline>
    <contour>
      <point x="22" y="-3" type="curve"/>
      <point x="54" y="-1"/>
      <point x="86" y="1"/>
      <point x="116" y="1" type="curve" smooth="yes"/>
      <point x="224" y="-2" type="line" smooth="yes"/>
      <point x="354" y="-2"/>
      <point x="443" y="85"/>
      <point x="443" y="211" type="curve" smooth="yes"/>
      <point x="443" y="329"/>
      <point x="352" y="414"/>
      <point x="218" y="414" type="curve" smooth="yes"/>
      <point x="115" y="414" type="line" smooth="yes"/>
      <point x="87" y="414"/>
      <point x="56" y="415"/>
      <point x="21" y="417" type="curve"/>
      <point x="20" y="416"/>
      <point x="19" y="412"/>
      <point x="19" y="405" type="curve" smooth="yes"/>
      <point x="19" y="398"/>
      <point x="20" y="394"/>
      <point x="21" y="394" type="curve" smooth="yes"/>
      <point x="32" y="394"/>
      <point x="62" y="381"/>
      <point x="63" y="376" type="curve"/>
      <point x="66" y="366"/>
      <point x="67" y="350"/>
      <point x="67" y="327" type="curve" smooth="yes"/>
      <point x="67" y="90" type="line" smooth="yes"/>
      <point x="67" y="64"/>
      <point x="66" y="45"/>
      <point x="63" y="35" type="curve"/>
      <point x="62" y="30"/>
      <point x="35" y="21"/>
      <point x="22" y="21" type="curve" smooth="yes"/>
      <point x="20" y="21"/>
      <point x="20" y="17"/>
      <point x="20" y="8" type="curve" smooth="yes"/>
      <point x="20" y="3"/>
      <point x="20" y="-1"/>
    </contour>
    <contour>
      <point x="220" y="34" type="curve" smooth="yes"/>
      <point x="196" y="34"/>
      <point x="175" y="36"/>
      <point x="165" y="42" type="curve"/>
      <point x="161" y="42"/>
      <point x="159" y="57"/>
      <point x="159" y="85" type="curve" smooth="yes"/>
      <point x="159" y="328" type="line" smooth="yes"/>
      <point x="159" y="347"/>
      <point x="162" y="360"/>
      <point x="168" y="368" type="curve" smooth="yes"/>
      <point x="173" y="375"/>
      <point x="192" y="378"/>
      <point x="214" y="378" type="curve" smooth="yes"/>
      <point x="297" y="378"/>
      <point x="340" y="311"/>
      <point x="340" y="214" type="curve" smooth="yes"/>
      <point x="340" y="98"/>
      <point x="302" y="34"/>
    </contour>
    <contour>
      <point x="231" y="0" type="move" name="bottom"/>
    </contour>
    <contour>
      <point x="231" y="207" type="move" name="center"/>
    </contour>
    <contour>
      <point x="141" y="207" type="move" name="stroke"/>
    </contour>
    <contour>
      <point x="231" y="413" type="move" name="top"/>
    </contour>
  </outline>
</glyph>
<glyph name="E" format="1">
  <advance width="384"/>
  <unicode hex="0045"/>
  <outline>
    <contour>
      <point x="22" y="-3" type="curve"/>
      <point x="116" y="1" type="line"/>
      <point x="145" y="1"/>
      <point x="182" y="1"/>
      <point x="229" y="0" type="curve" smooth="yes"/>
      <point x="276" y="0"/>
      <point x="309" y="-1"/>
      <point x="331" y="-1" type="curve"/>
      <point x="333" y="13"/>
      <point x="342" y="44"/>
      <point x="365" y="107" type="curve"/>
      <point x="362" y="110"/>
      <point x="356" y="111"/>
      <point x="345" y="111" type="curve" smooth="yes"/>
      <point x="340" y="111"/>
      <point x="337" y="110"/>
      <point x="337" y="107" type="curve"/>
      <point x="328" y="86"/>
      <point x="308" y="61"/>
      <point x="291" y="52" type="curve" smooth="yes"/>
      <point x="269" y="40"/>
      <point x="246" y="35"/>
      <point x="222" y="35" type="curve" smooth="yes"/>
      <point x="207" y="35" type="line" smooth="yes"/>
      <point x="181" y="35"/>
      <point x="166" y="38"/>
      <point x="164" y="45" type="curve"/>
      <point x="162" y="55"/>
      <point x="159" y="69"/>
      <point x="159" y="88" type="curve" smooth="yes"/>
      <point x="159" y="185" type="line" smooth="yes"/>
      <point x="159" y="189"/>
      <point x="174" y="191"/>
      <point x="205" y="191" type="curve" smooth="yes"/>
      <point x="240" y="191"/>
      <point x="254" y="187"/>
      <point x="260" y="178" type="curve"/>
      <point x="262" y="174"/>
      <point x="267" y="159"/>
      <point x="269" y="149" type="curve"/>
      <point x="270" y="146"/>
      <point x="273" y="144"/>
      <point x="279" y="144" type="curve" smooth="yes"/>
      <point x="286" y="144"/>
      <point x="291" y="145"/>
      <point x="292" y="147" type="curve"/>
      <point x="292" y="266" type="line"/>
      <point x="291" y="268"/>
      <point x="285" y="269"/>
      <point x="278" y="269" type="curve" smooth="yes"/>
      <point x="273" y="269"/>
      <point x="269" y="268"/>
      <point x="269" y="264" type="curve"/>
      <point x="268" y="252"/>
      <point x="263" y="234"/>
      <point x="260" y="230" type="curve"/>
      <point x="258" y="227"/>
      <point x="242" y="226"/>
      <point x="218" y="226" type="curve" smooth="yes"/>
      <point x="186" y="226" type="line" smooth="yes"/>
      <point x="168" y="226"/>
      <point x="159" y="227"/>
      <point x="159" y="230" type="curve" smooth="yes"/>
      <point x="159" y="326" type="line" smooth="yes"/>
      <point x="159" y="348"/>
      <point x="161" y="364"/>
      <point x="163" y="374" type="curve"/>
      <point x="163" y="380"/>
      <point x="176" y="383"/>
      <point x="201" y="383" type="curve" smooth="yes"/>
      <point x="223" y="383" type="line" smooth="yes"/>
      <point x="267" y="383"/>
      <point x="292" y="366"/>
      <point x="313" y="324" type="curve"/>
      <point x="314" y="321"/>
      <point x="317" y="320"/>
      <point x="322" y="320" type="curve" smooth="yes"/>
      <point x="329" y="320"/>
      <point x="335" y="321"/>
      <point x="336" y="323" type="curve"/>
      <point x="325" y="376"/>
      <point x="318" y="415"/>
      <point x="318" y="417" type="curve"/>
      <point x="299" y="417"/>
      <point x="263" y="416"/>
      <point x="220" y="416" type="curve" smooth="yes"/>
      <point x="160" y="416"/>
      <point x="130" y="414"/>
      <point x="115" y="414" type="curve" smooth="yes"/>
      <point x="87" y="414"/>
      <point x="56" y="415"/>
      <point x="21" y="417" type="curve"/>
      <point x="20" y="416"/>
      <point x="19" y="412"/>
      <point x="19" y="405" type="curve" smooth="yes"/>
      <point x="19" y="398"/>
      <point x="20" y="394"/>
      <point x="21" y="394" type="curve" smooth="yes"/>
      <point x="33" y="394"/>
      <point x="62" y="381"/>
      <point x="63" y="376" type="curve"/>
      <point x="66" y="366"/>
      <point x="67" y="350"/>
      <point x="67" y="327" type="curve" smooth="yes"/>
      <point x="67" y="90" type="line" smooth="yes"/>
      <point x="67" y="64"/>
      <point x="66" y="45"/>
      <point x="63" y="35" type="curve"/>
      <point x="62" y="30"/>
      <point x="36" y="21"/>
      <point x="22" y="21" type="curve" smooth="yes"/>
      <point x="20" y="21"/>
      <point x="20" y="17"/>
      <point x="20" y="8" type="curve" smooth="yes"/>
      <point x="20" y="3"/>
      <point x="20" y="-1"/>
    </contour>
    <contour>
      <point x="192" y="0" type="move" name="bottom"/>
    </contour>
    <contour>
      <point x="342" y="6" type="move" name="ogonek"/>
    </contour>
    <contour>
      <point x="192" y="413" type="move" name="top"/>
    </contour>
    <contour>
      <point x="15" y="413" type="move" name="topleft"/>
    </contour>
  </outline>
</glyph>
<glyph name="F" format="1">
  <advance width="357"/>
  <unicode hex="0046"/>
  <outline>
    <contour>
      <point x="22" y="-3" type="curve"/>
      <point x="54" y="-1"/>
      <point x="85" y="1"/>
      <point x="116" y="1" type="curve" smooth="yes"/>
      <point x="131" y="1"/>
      <point x="164" y="0"/>
      <point x="215" y="-3" type="curve"/>
      <point x="216" y="0"/>
      <point x="216" y="4"/>
      <point x="216" y="9" type="curve" smooth="yes"/>
      <point x="216" y="17"/>
      <point x="216" y="21"/>
      <point x="214" y="21" type="curve" smooth="yes"/>
      <point x="193" y="21"/>
      <point x="166" y="30"/>
      <point x="164" y="38" type="curve" smooth="yes"/>
      <point x="161" y="51"/>
      <point x="159" y="68"/>
      <point x="159" y="89" type="curve" smooth="yes"/>
      <point x="159" y="185" type="line" smooth="yes"/>
      <point x="159" y="189"/>
      <point x="174" y="191"/>
      <point x="205" y="191" type="curve" smooth="yes"/>
      <point x="232" y="191"/>
      <point x="252" y="190"/>
      <point x="260" y="179" type="curve"/>
      <point x="261" y="176"/>
      <point x="265" y="165"/>
      <point x="269" y="150" type="curve"/>
      <point x="270" y="147"/>
      <point x="273" y="145"/>
      <point x="279" y="145" type="curve" smooth="yes"/>
      <point x="286" y="145"/>
      <point x="291" y="145"/>
      <point x="293" y="147" type="curve"/>
      <point x="293" y="265" type="line"/>
      <point x="291" y="267"/>
      <point x="286" y="269"/>
      <point x="278" y="269" type="curve" smooth="yes"/>
      <point x="273" y="269"/>
      <point x="270" y="267"/>
      <point x="268" y="264" type="curve"/>
      <point x="267" y="253"/>
      <point x="265" y="231"/>
      <point x="261" y="229" type="curve"/>
      <point x="259" y="227"/>
      <point x="245" y="226"/>
      <point x="218" y="226" type="curve" smooth="yes"/>
      <point x="186" y="226" type="line" smooth="yes"/>
      <point x="168" y="226"/>
      <point x="159" y="227"/>
      <point x="159" y="230" type="curve" smooth="yes"/>
      <point x="159" y="326" type="line" smooth="yes"/>
      <point x="159" y="348"/>
      <point x="161" y="364"/>
      <point x="163" y="374" type="curve"/>
      <point x="163" y="380"/>
      <point x="176" y="383"/>
      <point x="201" y="383" type="curve" smooth="yes"/>
      <point x="223" y="383" type="line" smooth="yes"/>
      <point x="270" y="383"/>
      <point x="292" y="364"/>
      <point x="313" y="324" type="curve"/>
      <point x="314" y="321"/>
      <point x="317" y="320"/>
      <point x="322" y="320" type="curve" smooth="yes"/>
      <point x="329" y="320"/>
      <point x="335" y="321"/>
      <point x="336" y="323" type="curve"/>
      <point x="323" y="387"/>
      <point x="318" y="416"/>
      <point x="318" y="417" type="curve"/>
      <point x="296" y="417"/>
      <point x="265" y="416"/>
      <point x="222" y="416" type="curve" smooth="yes"/>
      <point x="179" y="415"/>
      <point x="143" y="414"/>
      <point x="115" y="414" type="curve" smooth="yes"/>
      <point x="92" y="414"/>
      <point x="61" y="415"/>
      <point x="21" y="417" type="curve"/>
      <point x="20" y="416"/>
      <point x="19" y="412"/>
      <point x="19" y="405" type="curve" smooth="yes"/>
      <point x="19" y="398"/>
      <point x="20" y="394"/>
      <point x="21" y="394" type="curve" smooth="yes"/>
      <point x="32" y="394"/>
      <point x="62" y="381"/>
      <point x="63" y="376" type="curve"/>
      <point x="66" y="366"/>
      <point x="67" y="350"/>
      <point x="67" y="327" type="curve" smooth="yes"/>
      <point x="67" y="90" type="line" smooth="yes"/>
      <point x="67" y="63"/>
      <point x="66" y="44"/>
      <point x="63" y="35" type="curve"/>
      <point x="62" y="30"/>
      <point x="35" y="21"/>
      <point x="22" y="21" type="curve" smooth="yes"/>
      <point x="20" y="21"/>
      <point x="20" y="17"/>
      <point x="20" y="8" type="curve" smooth="yes"/>
      <point x="20" y="2"/>
      <point x="20" y="-1"/>
    </contour>
    <contour>
      <point x="178" y="0" type="move" name="bottom"/>
    </contour>
    <contour>
      <point x="178" y="413" type="move" name="top"/>
    </contour>
  </outline>
</glyph>
<glyph name="G" format="1">
  <advance width="460"/>
  <unicode hex="0047"/>
  <outline>
    <contour>
      <point x="255" y="-4" type="curve" smooth="yes"/>
      <point x="296" y="-4"/>
      <point x="347" y="12"/>
      <point x="383" y="31" type="curve"/>
      <point x="392" y="35"/>
      <point x="396" y="42"/>
      <point x="396" y="49" type="curve" smooth="yes"/>
      <point x="396" y="50"/>
      <point x="395" y="52"/>
      <point x="394" y="55" type="curve"/>
      <point x="393" y="59"/>
      <point x="393" y="64"/>
      <point x="393" y="71" type="curve" smooth="yes"/>
      <point x="393" y="107" type="line" smooth="yes"/>
      <point x="393" y="137"/>
      <point x="396" y="154"/>
      <point x="404" y="157" type="curve"/>
      <point x="417" y="164"/>
      <point x="427" y="167"/>
      <point x="437" y="167" type="curve" smooth="yes"/>
      <point x="438" y="167"/>
      <point x="439" y="170"/>
      <point x="439" y="178" type="curve" smooth="yes"/>
      <point x="439" y="183"/>
      <point x="438" y="187"/>
      <point x="437" y="191" type="curve"/>
      <point x="386" y="189"/>
      <point x="357" y="187"/>
      <point x="351" y="187" type="curve" smooth="yes"/>
      <point x="332" y="187"/>
      <point x="277" y="190"/>
      <point x="255" y="191" type="curve"/>
      <point x="254" y="190"/>
      <point x="253" y="185"/>
      <point x="253" y="180" type="curve" smooth="yes"/>
      <point x="253" y="173"/>
      <point x="254" y="167"/>
      <point x="256" y="167" type="curve" smooth="yes"/>
      <point x="282" y="167"/>
      <point x="293" y="162"/>
      <point x="296" y="150" type="curve" smooth="yes"/>
      <point x="299" y="139"/>
      <point x="301" y="123"/>
      <point x="301" y="102" type="curve" smooth="yes"/>
      <point x="301" y="60" type="line" smooth="yes"/>
      <point x="301" y="51"/>
      <point x="298" y="44"/>
      <point x="293" y="40" type="curve"/>
      <point x="286" y="33"/>
      <point x="274" y="30"/>
      <point x="259" y="30" type="curve" smooth="yes"/>
      <point x="182" y="30"/>
      <point x="131" y="103"/>
      <point x="129" y="217" type="curve" smooth="yes"/>
      <point x="128" y="330"/>
      <point x="180" y="383"/>
      <point x="252" y="383" type="curve" smooth="yes"/>
      <point x="305" y="383"/>
      <point x="349" y="354"/>
      <point x="365" y="300" type="curve"/>
      <point x="369" y="298"/>
      <point x="386" y="298"/>
      <point x="393" y="301" type="curve"/>
      <point x="393" y="326"/>
      <point x="386" y="379"/>
      <point x="377" y="400" type="curve"/>
      <point x="335" y="412"/>
      <point x="287" y="419"/>
      <point x="254" y="419" type="curve" smooth="yes"/>
      <point x="129" y="419"/>
      <point x="28" y="330"/>
      <point x="28" y="202" type="curve" smooth="yes"/>
      <point x="28" y="77"/>
      <point x="122" y="-4"/>
    </contour>
    <contour>
      <point x="234" y="0" type="move" name="bottom"/>
    </contour>
    <contour>
      <point x="234" y="413" type="move" name="top"/>
    </contour>
  </outline>
</glyph>
<glyph name="H" format="1">
  <advance width="465"/>
  <unicode hex="0048"/>
  <outline>
    <contour>
      <point x="22" y="-3" type="curve"/>
      <point x="61" y="0"/>
      <point x="100" y="3"/>
      <point x="113" y="3" type="curve" smooth="yes"/>
      <point x="138" y="3"/>
      <point x="159" y="0"/>
      <point x="204" y="-3" type="curve"/>
      <point x="206" y="0"/>
      <point x="206" y="4"/>
      <point x="206" y="9" type="curve" smooth="yes"/>
      <point x="206" y="16"/>
      <point x="205" y="21"/>
      <point x="203" y="21" type="curve" smooth="yes"/>
      <point x="193" y="21"/>
      <point x="166" y="33"/>
      <point x="164" y="37" type="curve"/>
      <point x="161" y="50"/>
      <point x="159" y="68"/>
      <point x="159" y="89" type="curve" smooth="yes"/>
      <point x="159" y="192" type="line"/>
      <point x="160" y="193" type="line"/>
      <point x="170" y="193"/>
      <point x="182" y="195"/>
      <point x="233" y="195" type="curve" smooth="yes"/>
      <point x="255" y="195"/>
      <point x="279" y="195"/>
      <point x="304" y="194" type="curve"/>
      <point x="306" y="191" type="line"/>
      <point x="306" y="87" type="line" smooth="yes"/>
      <point x="306" y="64"/>
      <point x="304" y="47"/>
      <point x="302" y="38" type="curve"/>
      <point x="300" y="32"/>
      <point x="272" y="21"/>
      <point x="260" y="21" type="curve" smooth="yes"/>
      <point x="259" y="21"/>
      <point x="257" y="16"/>
      <point x="257" y="9" type="curve" smooth="yes"/>
      <point x="257" y="5"/>
      <point x="259" y="-1"/>
      <point x="260" y="-3" type="curve"/>
      <point x="287" y="0"/>
      <point x="340" y="3"/>
      <point x="356" y="3" type="curve" smooth="yes"/>
      <point x="373" y="3"/>
      <point x="414" y="-1"/>
      <point x="442" y="-3" type="curve"/>
      <point x="443" y="1"/>
      <point x="444" y="5"/>
      <point x="444" y="8" type="curve" smooth="yes"/>
      <point x="444" y="17"/>
      <point x="443" y="22"/>
      <point x="442" y="22" type="curve" smooth="yes"/>
      <point x="431" y="22"/>
      <point x="404" y="32"/>
      <point x="403" y="37" type="curve" smooth="yes"/>
      <point x="400" y="50"/>
      <point x="398" y="67"/>
      <point x="398" y="89" type="curve" smooth="yes"/>
      <point x="398" y="324" type="line" smooth="yes"/>
      <point x="398" y="347"/>
      <point x="400" y="364"/>
      <point x="403" y="377" type="curve" smooth="yes"/>
      <point x="404" y="381"/>
      <point x="432" y="392"/>
      <point x="442" y="392" type="curve" smooth="yes"/>
      <point x="444" y="392"/>
      <point x="446" y="396"/>
      <point x="446" y="404" type="curve" smooth="yes"/>
      <point x="446" y="408"/>
      <point x="445" y="412"/>
      <point x="444" y="416" type="curve"/>
      <point x="390" y="413"/>
      <point x="362" y="412"/>
      <point x="357" y="412" type="curve" smooth="yes"/>
      <point x="354" y="412"/>
      <point x="324" y="413"/>
      <point x="261" y="416" type="curve"/>
      <point x="260" y="415"/>
      <point x="259" y="409"/>
      <point x="259" y="404" type="curve" smooth="yes"/>
      <point x="259" y="397"/>
      <point x="260" y="392"/>
      <point x="262" y="392" type="curve" smooth="yes"/>
      <point x="273" y="392"/>
      <point x="299" y="381"/>
      <point x="301" y="375" type="curve"/>
      <point x="304" y="364"/>
      <point x="306" y="348"/>
      <point x="306" y="326" type="curve" smooth="yes"/>
      <point x="306" y="236" type="line"/>
      <point x="304" y="233" type="line"/>
      <point x="267" y="233"/>
      <point x="243" y="232"/>
      <point x="233" y="232" type="curve" smooth="yes"/>
      <point x="226" y="232"/>
      <point x="201" y="233"/>
      <point x="161" y="233" type="curve"/>
      <point x="159" y="235" type="line"/>
      <point x="159" y="324" type="line" smooth="yes"/>
      <point x="159" y="351"/>
      <point x="161" y="368"/>
      <point x="164" y="376" type="curve" smooth="yes"/>
      <point x="166" y="381"/>
      <point x="195" y="392"/>
      <point x="204" y="392" type="curve" smooth="yes"/>
      <point x="206" y="392"/>
      <point x="207" y="395"/>
      <point x="207" y="402" type="curve" smooth="yes"/>
      <point x="207" y="409"/>
      <point x="206" y="414"/>
      <point x="205" y="416" type="curve"/>
      <point x="154" y="413"/>
      <point x="122" y="412"/>
      <point x="111" y="412" type="curve"/>
      <point x="22" y="416" type="line"/>
      <point x="22" y="415"/>
      <point x="21" y="411"/>
      <point x="21" y="405" type="curve" smooth="yes"/>
      <point x="21" y="396"/>
      <point x="22" y="392"/>
      <point x="23" y="392" type="curve" smooth="yes"/>
      <point x="38" y="392"/>
      <point x="59" y="382"/>
      <point x="63" y="374" type="curve" smooth="yes"/>
      <point x="66" y="368"/>
      <point x="67" y="352"/>
      <point x="67" y="326" type="curve" smooth="yes"/>
      <point x="67" y="87" type="line" smooth="yes"/>
      <point x="67" y="65"/>
      <point x="66" y="48"/>
      <point x="63" y="37" type="curve"/>
      <point x="61" y="31"/>
      <point x="34" y="21"/>
      <point x="21" y="21" type="curve" smooth="yes"/>
      <point x="20" y="21"/>
      <point x="20" y="17"/>
      <point x="20" y="8" type="curve" smooth="yes"/>
      <point x="20" y="2"/>
      <point x="20" y="-1"/>
    </contour>
    <contour>
      <point x="234" y="0" type="move" name="bottom"/>
    </contour>
    <contour>
      <point x="233" y="313" type="move" name="stroke"/>
    </contour>
    <contour>
      <point x="234" y="413" type="move" name="top"/>
    </contour>
    <contour>
      <point x="17" y="413" type="move" name="topleft"/>
    </contour>
  </outline>
</glyph>
<glyph name="I" format="1">
  <advance width="226"/>
  <unicode hex="0049"/>
  <outline>
    <contour>
      <point x="22" y="-3" type="curve"/>
      <point x="32" y="-2"/>
      <point x="91" y="3"/>
      <point x="115" y="3" type="curve" smooth="yes"/>
      <point x="135" y="3"/>
      <point x="183" y="-1"/>
      <point x="204" y="-3" type="curve"/>
      <point x="205" y="0"/>
      <point x="206" y="4"/>
      <point x="206" y="9" type="curve" smooth="yes"/>
      <point x="206" y="17"/>
      <point x="205" y="21"/>
      <point x="203" y="21" type="curve" smooth="yes"/>
      <point x="196" y="21"/>
      <point x="166" y="32"/>
      <point x="164" y="37" type="curve"/>
      <point x="160" y="57"/>
      <point x="159" y="76"/>
      <point x="159" y="92" type="curve" smooth="yes"/>
      <point x="159" y="334" type="line" smooth="yes"/>
      <point x="159" y="345"/>
      <point x="161" y="367"/>
      <point x="164" y="377" type="curve"/>
      <point x="165" y="382"/>
      <point x="197" y="392"/>
      <point x="204" y="392" type="curve" smooth="yes"/>
      <point x="206" y="392"/>
      <point x="207" y="396"/>
      <point x="207" y="404" type="curve" smooth="yes"/>
      <point x="207" y="408"/>
      <point x="206" y="412"/>
      <point x="205" y="416" type="curve"/>
      <point x="153" y="413"/>
      <point x="122" y="412"/>
      <point x="115" y="412" type="curve" smooth="yes"/>
      <point x="83" y="412"/>
      <point x="51" y="414"/>
      <point x="22" y="416" type="curve"/>
      <point x="22" y="415"/>
      <point x="21" y="411"/>
      <point x="21" y="403" type="curve" smooth="yes"/>
      <point x="21" y="396"/>
      <point x="22" y="392"/>
      <point x="23" y="392" type="curve" smooth="yes"/>
      <point x="33" y="392"/>
      <point x="57" y="383"/>
      <point x="62" y="376" type="curve"/>
      <point x="65" y="371"/>
      <point x="67" y="355"/>
      <point x="67" y="328" type="curve" smooth="yes"/>
      <point x="67" y="87" type="line" smooth="yes"/>
      <point x="67" y="65"/>
      <point x="66" y="49"/>
      <point x="63" y="37" type="curve"/>
      <point x="60" y="31"/>
      <point x="31" y="21"/>
      <point x="21" y="21" type="curve" smooth="yes"/>
      <point x="20" y="21"/>
      <point x="20" y="17"/>
      <point x="20" y="8" type="curve" smooth="yes"/>
      <point x="20" y="2"/>
      <point x="20" y="-1"/>
    </contour>
    <contour>
      <point x="114" y="0" type="move" name="bottom"/>
    </contour>
    <contour>
      <point x="179" y="6" type="move" name="ogonek"/>
    </contour>
    <contour>
      <point x="114" y="413" type="move" name="top"/>
    </contour>
    <contour>
      <point x="17" y="413" type="move" name="topleft"/>
    </contour>
  </outline>
</glyph>
<glyph name="J" format="1">
  <advance width="222"/>
  <unicode hex="004A"/>
  <outline>
    <contour>
      <point x="-19" y="-136" type="curve" smooth="yes"/>
      <point x="80" y="-136"/>
      <point x="158" y="-53"/>
      <point x="158" y="95" type="curve" smooth="yes"/>
      <point x="158" y="324" type="line" smooth="yes"/>
      <point x="158" y="348"/>
      <point x="159" y="366"/>
      <point x="162" y="377" type="curve"/>
      <point x="164" y="382"/>
      <point x="196" y="392"/>
      <point x="203" y="392" type="curve" smooth="yes"/>
      <point x="205" y="392"/>
      <point x="206" y="396"/>
      <point x="206" y="404" type="curve" smooth="yes"/>
      <point x="206" y="408"/>
      <point x="205" y="412"/>
      <point x="204" y="416" type="curve"/>
      <point x="149" y="413"/>
      <point x="121" y="412"/>
      <point x="114" y="412" type="curve"/>
      <point x="21" y="416" type="line"/>
      <point x="20" y="415"/>
      <point x="20" y="411"/>
      <point x="20" y="403" type="curve" smooth="yes"/>
      <point x="20" y="396"/>
      <point x="20" y="392"/>
      <point x="22" y="392" type="curve" smooth="yes"/>
      <point x="31" y="392"/>
      <point x="56" y="383"/>
      <point x="61" y="376" type="curve"/>
      <point x="64" y="371"/>
      <point x="66" y="355"/>
      <point x="66" y="328" type="curve" smooth="yes"/>
      <point x="66" y="90" type="line" smooth="yes"/>
      <point x="66" y="29"/>
      <point x="63" y="-16"/>
      <point x="59" y="-46" type="curve" smooth="yes"/>
      <point x="54" y="-77"/>
      <point x="41" y="-91"/>
      <point x="22" y="-91" type="curve" smooth="yes"/>
      <point x="16" y="-91"/>
      <point x="7" y="-85"/>
      <point x="-5" y="-72" type="curve"/>
      <point x="-16" y="-58"/>
      <point x="-27" y="-52"/>
      <point x="-37" y="-52" type="curve" smooth="yes"/>
      <point x="-58" y="-52"/>
      <point x="-77" y="-70"/>
      <point x="-77" y="-91" type="curve" smooth="yes"/>
      <point x="-77" y="-116"/>
      <point x="-56" y="-136"/>
    </contour>
    <contour>
      <point x="61" y="0" type="move" name="bottom"/>
    </contour>
    <contour>
      <point x="113" y="413" type="move" name="top"/>
    </contour>
  </outline>
</glyph>
<glyph name="K" format="1">
  <advance width="459"/>
  <unicode hex="004B"/>
  <outline>
    <contour>
      <point x="22" y="-3" type="curve"/>
      <point x="31" y="-2"/>
      <point x="92" y="3"/>
      <point x="115" y="3" type="curve" smooth="yes"/>
      <point x="130" y="3"/>
      <point x="180" y="-1"/>
      <point x="204" y="-3" type="curve"/>
      <point x="205" y="0"/>
      <point x="206" y="4"/>
      <point x="206" y="9" type="curve" smooth="yes"/>
      <point x="206" y="18"/>
      <point x="205" y="21"/>
      <point x="203" y="21" type="curve" smooth="yes"/>
      <point x="196" y="21"/>
      <point x="166" y="32"/>
      <point x="164" y="37" type="curve"/>
      <point x="160" y="50"/>
      <point x="159" y="68"/>
      <point x="159" y="92" type="curve" smooth="yes"/>
      <point x="159" y="180" type="line"/>
      <point x="174" y="180" type="line" smooth="yes"/>
      <point x="181" y="180"/>
      <point x="186" y="179"/>
      <point x="193" y="170" type="curve" smooth="yes"/>
      <point x="280" y="64" type="line" smooth="yes"/>
      <point x="290" y="52"/>
      <point x="296" y="41"/>
      <point x="296" y="35" type="curve" smooth="yes"/>
      <point x="296" y="27"/>
      <point x="276" y="21"/>
      <point x="266" y="21" type="curve" smooth="yes"/>
      <point x="264" y="21"/>
      <point x="264" y="18"/>
      <point x="264" y="11" type="curve" smooth="yes"/>
      <point x="264" y="4"/>
      <point x="264" y="-1"/>
      <point x="266" y="-3" type="curve"/>
      <point x="306" y="1"/>
      <point x="334" y="3"/>
      <point x="356" y="3" type="curve" smooth="yes"/>
      <point x="374" y="3"/>
      <point x="440" y="-1"/>
      <point x="456" y="-3" type="curve"/>
      <point x="458" y="1"/>
      <point x="459" y="5"/>
      <point x="459" y="9" type="curve" smooth="yes"/>
      <point x="459" y="18"/>
      <point x="458" y="21"/>
      <point x="456" y="21" type="curve" smooth="yes"/>
      <point x="447" y="21"/>
      <point x="424" y="25"/>
      <point x="415" y="36" type="curve" smooth="yes"/>
      <point x="257" y="229" type="line"/>
      <point x="255" y="231"/>
      <point x="254" y="234"/>
      <point x="254" y="237" type="curve" smooth="yes"/>
      <point x="254" y="240"/>
      <point x="255" y="244"/>
      <point x="258" y="247" type="curve"/>
      <point x="367" y="367" type="line" smooth="yes"/>
      <point x="380" y="382"/>
      <point x="406" y="391"/>
      <point x="442" y="393" type="curve"/>
      <point x="443" y="394"/>
      <point x="445" y="400"/>
      <point x="445" y="406" type="curve" smooth="yes"/>
      <point x="445" y="411"/>
      <point x="444" y="414"/>
      <point x="443" y="416" type="curve"/>
      <point x="388" y="413"/>
      <point x="361" y="412"/>
      <point x="358" y="412" type="curve" smooth="yes"/>
      <point x="349" y="412"/>
      <point x="322" y="413"/>
      <point x="271" y="416" type="curve"/>
      <point x="271" y="411" type="line" smooth="yes"/>
      <point x="271" y="403"/>
      <point x="273" y="393"/>
      <point x="276" y="393" type="curve" smooth="yes"/>
      <point x="287" y="393"/>
      <point x="313" y="390"/>
      <point x="313" y="382" type="curve" smooth="yes"/>
      <point x="313" y="376"/>
      <point x="313" y="370"/>
      <point x="303" y="360" type="curve"/>
      <point x="195" y="244" type="line"/>
      <point x="179" y="228"/>
      <point x="170" y="220"/>
      <point x="168" y="220" type="curve" smooth="yes"/>
      <point x="159" y="220" type="line"/>
      <point x="159" y="324" type="line" smooth="yes"/>
      <point x="159" y="348"/>
      <point x="160" y="366"/>
      <point x="164" y="377" type="curve"/>
      <point x="165" y="382"/>
      <point x="197" y="392"/>
      <point x="204" y="392" type="curve" smooth="yes"/>
      <point x="206" y="392"/>
      <point x="207" y="395"/>
      <point x="207" y="404" type="curve" smooth="yes"/>
      <point x="207" y="408"/>
      <point x="206" y="412"/>
      <point x="205" y="416" type="curve"/>
      <point x="151" y="413"/>
      <point x="122" y="412"/>
      <point x="115" y="412" type="curve"/>
      <point x="22" y="416" type="line"/>
      <point x="22" y="415"/>
      <point x="21" y="411"/>
      <point x="21" y="403" type="curve" smooth="yes"/>
      <point x="21" y="396"/>
      <point x="22" y="392"/>
      <point x="23" y="392" type="curve" smooth="yes"/>
      <point x="33" y="392"/>
      <point x="57" y="383"/>
      <point x="62" y="376" type="curve"/>
      <point x="65" y="371"/>
      <point x="67" y="355"/>
      <point x="67" y="328" type="curve" smooth="yes"/>
      <point x="67" y="87" type="line" smooth="yes"/>
      <point x="67" y="65"/>
      <point x="66" y="49"/>
      <point x="63" y="37" type="curve"/>
      <point x="60" y="31"/>
      <point x="31" y="21"/>
      <point x="21" y="21" type="curve" smooth="yes"/>
      <point x="20" y="21"/>
      <point x="20" y="17"/>
      <point x="20" y="8" type="curve" smooth="yes"/>
      <point x="20" y="2"/>
      <point x="20" y="-1"/>
    </contour>
    <contour>
      <point x="239" y="0" type="move" name="bottom"/>
    </contour>
    <contour>
      <point x="239" y="413" type="move" name="top"/>
    </contour>
  </outline>
</glyph>
<glyph name="L" format="1">
  <advance width="361"/>
  <unicode hex="004C"/>
  <outline>
    <contour>
      <point x="22" y="-3" type="curve"/>
      <point x="47" y="-1"/>
      <point x="84" y="1"/>
      <point x="116" y="1" type="curve" smooth="yes"/>
      <point x="133" y="1"/>
      <point x="166" y="1"/>
      <point x="218" y="0" type="curve" smooth="yes"/>
      <point x="269" y="0"/>
      <point x="307" y="-1"/>
      <point x="331" y="-1" type="curve"/>
      <point x="333" y="13"/>
      <point x="342" y="43"/>
      <point x="365" y="107" type="curve"/>
      <point x="362" y="110"/>
      <point x="356" y="111"/>
      <point x="345" y="111" type="curve" smooth="yes"/>
      <point x="340" y="111"/>
      <point x="337" y="110"/>
      <point x="337" y="107" type="curve"/>
      <point x="318" y="61"/>
      <point x="277" y="35"/>
      <point x="222" y="35" type="curve" smooth="yes"/>
      <point x="207" y="35" type="line" smooth="yes"/>
      <point x="180" y="35"/>
      <point x="166" y="38"/>
      <point x="164" y="45" type="curve" smooth="yes"/>
      <point x="161" y="57"/>
      <point x="159" y="74"/>
      <point x="159" y="89" type="curve" smooth="yes"/>
      <point x="159" y="327" type="line" smooth="yes"/>
      <point x="159" y="355"/>
      <point x="161" y="368"/>
      <point x="164" y="377" type="curve"/>
      <point x="165" y="381"/>
      <point x="194" y="392"/>
      <point x="204" y="392" type="curve" smooth="yes"/>
      <point x="206" y="392"/>
      <point x="207" y="395"/>
      <point x="207" y="404" type="curve" smooth="yes"/>
      <point x="207" y="408"/>
      <point x="206" y="412"/>
      <point x="205" y="416" type="curve"/>
      <point x="157" y="413"/>
      <point x="124" y="412"/>
      <point x="115" y="412" type="curve"/>
      <point x="22" y="416" type="line"/>
      <point x="22" y="415"/>
      <point x="21" y="409"/>
      <point x="21" y="403" type="curve" smooth="yes"/>
      <point x="21" y="395"/>
      <point x="22" y="392"/>
      <point x="23" y="392" type="curve" smooth="yes"/>
      <point x="34" y="392"/>
      <point x="58" y="382"/>
      <point x="62" y="376" type="curve"/>
      <point x="65" y="371"/>
      <point x="67" y="353"/>
      <point x="67" y="330" type="curve" smooth="yes"/>
      <point x="67" y="90" type="line" smooth="yes"/>
      <point x="67" y="64"/>
      <point x="66" y="45"/>
      <point x="63" y="35" type="curve"/>
      <point x="62" y="29"/>
      <point x="37" y="21"/>
      <point x="22" y="21" type="curve" smooth="yes"/>
      <point x="20" y="21"/>
      <point x="20" y="18"/>
      <point x="20" y="8" type="curve" smooth="yes"/>
      <point x="20" y="2"/>
      <point x="20" y="-1"/>
    </contour>
    <contour>
      <point x="193" y="0" type="move" name="bottom"/>
    </contour>
    <contour>
      <point x="126" y="207" type="move" name="center"/>
    </contour>
    <contour>
      <point x="264" y="207" type="move" name="dotacc"/>
    </contour>
    <contour>
      <point x="193" y="413" type="move" name="top"/>
    </contour>
    <contour>
      <point x="247" y="276" type="move" name="topright"/>
    </contour>
  </outline>
</glyph>
<glyph name="M" format="1">
  <advance width="557"/>
  <unicode hex="004D"/>
  <outline>
    <contour>
      <point x="-2" y="-3" type="curve"/>
      <point x="39" y="0"/>
      <point x="55" y="3"/>
      <point x="80" y="3" type="curve" smooth="yes"/>
      <point x="89" y="3"/>
      <point x="116" y="3"/>
      <point x="172" y="-3" type="curve"/>
      <point x="173" y="0"/>
      <point x="173" y="4"/>
      <point x="173" y="8" type="curve" smooth="yes"/>
      <point x="173" y="17"/>
      <point x="173" y="21"/>
      <point x="171" y="21" type="curve" smooth="yes"/>
      <point x="163" y="21"/>
      <point x="110" y="36"/>
      <point x="108" y="48" type="curve"/>
      <point x="107" y="50"/>
      <point x="107" y="57"/>
      <point x="107" y="69" type="curve"/>
      <point x="118" y="331" type="line"/>
      <point x="107" y="328" type="line"/>
      <point x="249" y="13" type="line"/>
      <point x="254" y="3"/>
      <point x="259" y="-1"/>
      <point x="265" y="-1" type="curve" smooth="yes"/>
      <point x="273" y="-1"/>
      <point x="280" y="3"/>
      <point x="287" y="20" type="curve" smooth="yes"/>
      <point x="414" y="343" type="line"/>
      <point x="392" y="312" type="line"/>
      <point x="393" y="307"/>
      <point x="398" y="294"/>
      <point x="399" y="264" type="curve" smooth="yes"/>
      <point x="406" y="67" type="line"/>
      <point x="406" y="52"/>
      <point x="404" y="47"/>
      <point x="401" y="40" type="curve" smooth="yes"/>
      <point x="397" y="31"/>
      <point x="372" y="21"/>
      <point x="362" y="21" type="curve" smooth="yes"/>
      <point x="361" y="21"/>
      <point x="360" y="17"/>
      <point x="360" y="7" type="curve" smooth="yes"/>
      <point x="360" y="3"/>
      <point x="362" y="-1"/>
      <point x="363" y="-3" type="curve"/>
      <point x="378" y="0"/>
      <point x="429" y="3"/>
      <point x="454" y="3" type="curve" smooth="yes"/>
      <point x="478" y="3"/>
      <point x="532" y="-2"/>
      <point x="537" y="-3" type="curve"/>
      <point x="538" y="0"/>
      <point x="538" y="4"/>
      <point x="538" y="8" type="curve" smooth="yes"/>
      <point x="538" y="17"/>
      <point x="538" y="21"/>
      <point x="536" y="21" type="curve" smooth="yes"/>
      <point x="528" y="21"/>
      <point x="503" y="31"/>
      <point x="500" y="39" type="curve" smooth="yes"/>
      <point x="495" y="52"/>
      <point x="492" y="70"/>
      <point x="491" y="96" type="curve" smooth="yes"/>
      <point x="477" y="361" type="line"/>
      <point x="477" y="372"/>
      <point x="480" y="380"/>
      <point x="486" y="385" type="curve"/>
      <point x="493" y="390"/>
      <point x="501" y="392"/>
      <point x="512" y="392" type="curve" smooth="yes"/>
      <point x="514" y="392"/>
      <point x="515" y="396"/>
      <point x="515" y="406" type="curve" smooth="yes"/>
      <point x="515" y="410"/>
      <point x="514" y="413"/>
      <point x="512" y="416" type="curve"/>
      <point x="480" y="412"/>
      <point x="446" y="412"/>
      <point x="432" y="412" type="curve" smooth="yes"/>
      <point x="403" y="412"/>
      <point x="386" y="412"/>
      <point x="381" y="413" type="curve"/>
      <point x="376" y="391"/>
      <point x="363" y="346"/>
      <point x="354" y="323" type="curve" smooth="yes"/>
      <point x="289" y="154" type="line"/>
      <point x="288" y="152"/>
      <point x="288" y="151"/>
      <point x="286" y="151" type="curve" smooth="yes"/>
      <point x="285" y="151"/>
      <point x="284" y="153"/>
      <point x="281" y="160" type="curve" smooth="yes"/>
      <point x="205" y="328" type="line" smooth="yes"/>
      <point x="190" y="362"/>
      <point x="173" y="402"/>
      <point x="168" y="416" type="curve"/>
      <point x="153" y="414"/>
      <point x="110" y="412"/>
      <point x="100" y="412" type="curve" smooth="yes"/>
      <point x="84" y="412"/>
      <point x="47" y="414"/>
      <point x="28" y="416" type="curve"/>
      <point x="26" y="414"/>
      <point x="25" y="411"/>
      <point x="25" y="406" type="curve" smooth="yes"/>
      <point x="25" y="397"/>
      <point x="26" y="393"/>
      <point x="28" y="393" type="curve" smooth="yes"/>
      <point x="38" y="393"/>
      <point x="71" y="386"/>
      <point x="74" y="379" type="curve"/>
      <point x="75" y="377"/>
      <point x="76" y="373"/>
      <point x="75" y="349" type="curve" smooth="yes"/>
      <point x="74" y="326"/>
      <point x="72" y="255"/>
      <point x="68" y="174" type="curve" smooth="yes"/>
      <point x="67" y="132"/>
      <point x="65" y="96"/>
      <point x="62" y="58" type="curve" smooth="yes"/>
      <point x="61" y="48"/>
      <point x="58" y="45"/>
      <point x="52" y="39" type="curve"/>
      <point x="37" y="29"/>
      <point x="8" y="21"/>
      <point x="-3" y="21" type="curve" smooth="yes"/>
      <point x="-4" y="21"/>
      <point x="-4" y="17"/>
      <point x="-4" y="8" type="curve" smooth="yes"/>
      <point x="-4" y="2"/>
      <point x="-4" y="-1"/>
    </contour>
    <contour>
      <point x="268" y="0" type="move" name="bottom"/>
    </contour>
    <contour>
      <point x="268" y="413" type="move" name="top"/>
    </contour>
  </outline>
</glyph>
<glyph name="N" format="1">
  <advance width="468"/>
  <unicode hex="004E"/>
  <outline>
    <contour>
      <point x="8" y="-3" type="curve"/>
      <point x="45" y="-1"/>
      <point x="64" y="3"/>
      <point x="86" y="3" type="curve" smooth="yes"/>
      <point x="107" y="3"/>
      <point x="125" y="0"/>
      <point x="173" y="-3" type="curve"/>
      <point x="174" y="-1"/>
      <point x="175" y="3"/>
      <point x="175" y="8" type="curve" smooth="yes"/>
      <point x="175" y="14"/>
      <point x="173" y="22"/>
      <point x="172" y="22" type="curve" smooth="yes"/>
      <point x="159" y="22"/>
      <point x="123" y="30"/>
      <point x="114" y="46" type="curve"/>
      <point x="111" y="52"/>
      <point x="109" y="66"/>
      <point x="109" y="89" type="curve" smooth="yes"/>
      <point x="109" y="354" type="line"/>
      <point x="91" y="347" type="line"/>
      <point x="366" y="11" type="line"/>
      <point x="375" y="2"/>
      <point x="381" y="-3"/>
      <point x="386" y="-3" type="curve" smooth="yes"/>
      <point x="395" y="-3"/>
      <point x="400" y="-3"/>
      <point x="402" y="-1" type="curve"/>
      <point x="400" y="44"/>
      <point x="399" y="74"/>
      <point x="399" y="87" type="curve" smooth="yes"/>
      <point x="399" y="326" type="line" smooth="yes"/>
      <point x="399" y="349"/>
      <point x="403" y="364"/>
      <point x="409" y="370" type="curve"/>
      <point x="422" y="385"/>
      <point x="436" y="392"/>
      <point x="461" y="392" type="curve" smooth="yes"/>
      <point x="463" y="392"/>
      <point x="464" y="396"/>
      <point x="464" y="404" type="curve" smooth="yes"/>
      <point x="464" y="409"/>
      <point x="464" y="413"/>
      <point x="462" y="416" type="curve"/>
      <point x="453" y="415"/>
      <point x="404" y="411"/>
      <point x="383" y="411" type="curve" smooth="yes"/>
      <point x="366" y="411"/>
      <point x="341" y="412"/>
      <point x="299" y="416" type="curve"/>
      <point x="297" y="415"/>
      <point x="298" y="411"/>
      <point x="298" y="407" type="curve" smooth="yes"/>
      <point x="298" y="400"/>
      <point x="299" y="392"/>
      <point x="301" y="392" type="curve" smooth="yes"/>
      <point x="311" y="392"/>
      <point x="341" y="383"/>
      <point x="350" y="373" type="curve"/>
      <point x="356" y="367"/>
      <point x="358" y="353"/>
      <point x="358" y="329" type="curve" smooth="yes"/>
      <point x="358" y="188" type="line" smooth="yes"/>
      <point x="358" y="162"/>
      <point x="356" y="155"/>
      <point x="355" y="148" type="curve"/>
      <point x="375" y="140" type="line"/>
      <point x="201" y="355" type="line" smooth="yes"/>
      <point x="180" y="380"/>
      <point x="166" y="401"/>
      <point x="159" y="416" type="curve"/>
      <point x="130" y="412"/>
      <point x="105" y="410"/>
      <point x="91" y="410" type="curve" smooth="yes"/>
      <point x="76" y="410"/>
      <point x="21" y="414"/>
      <point x="7" y="416" type="curve"/>
      <point x="6" y="415"/>
      <point x="5" y="410"/>
      <point x="5" y="406" type="curve" smooth="yes"/>
      <point x="5" y="399"/>
      <point x="7" y="392"/>
      <point x="9" y="392" type="curve" smooth="yes"/>
      <point x="21" y="392"/>
      <point x="54" y="387"/>
      <point x="58" y="381" type="curve"/>
      <point x="65" y="374"/>
      <point x="68" y="359"/>
      <point x="68" y="337" type="curve" smooth="yes"/>
      <point x="68" y="90" type="line" smooth="yes"/>
      <point x="68" y="67"/>
      <point x="67" y="53"/>
      <point x="62" y="46" type="curve"/>
      <point x="50" y="27"/>
      <point x="21" y="21"/>
      <point x="8" y="21" type="curve" smooth="yes"/>
      <point x="7" y="21"/>
      <point x="6" y="17"/>
      <point x="6" y="9" type="curve" smooth="yes"/>
      <point x="6" y="3"/>
      <point x="7" y="-1"/>
    </contour>
    <contour>
      <point x="235" y="0" type="move" name="bottom"/>
    </contour>
    <contour>
      <point x="235" y="413" type="move" name="top"/>
    </contour>
  </outline>
</glyph>
<glyph name="O" format="1">
  <advance width="460"/>
  <unicode hex="004F"/>
  <outline>
    <contour>
      <point x="230" y="-6" type="curve" smooth="yes"/>
      <point x="342" y="-6"/>
      <point x="432" y="88"/>
      <point x="432" y="206" type="curve" smooth="yes"/>
      <point x="432" y="324"/>
      <point x="341" y="420"/>
      <point x="230" y="420" type="curve" smooth="yes"/>
      <point x="118" y="420"/>
      <point x="28" y="324"/>
      <point x="28" y="206" type="curve" smooth="yes"/>
      <point x="28" y="88"/>
      <point x="118" y="-6"/>
    </contour>
    <contour>
      <point x="238" y="30" type="curve" smooth="yes"/>
      <point x="172" y="30"/>
      <point x="130" y="118"/>
      <point x="130" y="219" type="curve" smooth="yes"/>
      <point x="130" y="312"/>
      <point x="165" y="383"/>
      <point x="220" y="383" type="curve" smooth="yes"/>
      <point x="287" y="383"/>
      <point x="329" y="295"/>
      <point x="329" y="195" type="curve" smooth="yes"/>
      <point x="329" y="103"/>
      <point x="295" y="30"/>
    </contour>
    <contour>
      <point x="231" y="0" type="move" name="bottom"/>
    </contour>
    <contour>
      <point x="231" y="207" type="move" name="center"/>
    </contour>
    <contour>
      <point x="404" y="6" type="move" name="ogonek"/>
    </contour>
    <contour>
      <point x="231" y="413" type="move" name="top"/>
    </contour>
    <contour>
      <point x="26" y="413" type="move" name="topleft"/>
    </contour>
    <contour>
      <point x="435" y="413" type="move" name="topright"/>
    </contour>
  </outline>
</glyph>
<glyph name="Q" format="1">
  <advance width="460"/>
  <unicode hex="0051"/>
  <outline>
    <contour>
      <point x="357" y="-90" type="curve" smooth="yes"/>
      <point x="393" y="-90"/>
      <point x="446" y="-75"/>
      <point x="483" y="-55" type="curve"/>
      <point x="483" y="-52" type="line" smooth="yes"/>
      <point x="483" y="-44"/>
      <point x="480" y="-39"/>
      <point x="475" y="-39" type="curve" smooth="yes"/>
      <point x="471" y="-39"/>
      <point x="442" y="-46"/>
      <point x="427" y="-46" type="curve" smooth="yes"/>
      <point x="396" y="-46"/>
      <point x="370" y="-40"/>
      <point x="358" y="-34" type="curve" smooth="yes"/>
      <point x="341" y="-26"/>
      <point x="312" y="-8"/>
      <point x="289" y="3" type="curve"/>
      <point x="360" y="23"/>
      <point x="432" y="99"/>
      <point x="432" y="206" type="curve" smooth="yes"/>
      <point x="432" y="324"/>
      <point x="341" y="420"/>
      <point x="230" y="420" type="curve" smooth="yes"/>
      <point x="118" y="420"/>
      <point x="28" y="323"/>
      <point x="28" y="206" type="curve" smooth="yes"/>
      <point x="28" y="151"/>
      <point x="50" y="96"/>
      <point x="81" y="63" type="curve" smooth="yes"/>
      <point x="111" y="30"/>
      <point x="144" y="9"/>
      <point x="174" y="0" type="curve" smooth="yes"/>
      <point x="207" y="-10"/>
      <point x="260" y="-51"/>
      <point x="297" y="-73" type="curve" smooth="yes"/>
      <point x="317" y="-85"/>
      <point x="337" y="-90"/>
    </contour>
    <contour>
      <point x="238" y="30" type="curve" smooth="yes"/>
      <point x="172" y="30"/>
      <point x="130" y="118"/>
      <point x="130" y="219" type="curve" smooth="yes"/>
      <point x="130" y="312"/>
      <point x="165" y="383"/>
      <point x="220" y="383" type="curve" smooth="yes"/>
      <point x="287" y="383"/>
      <point x="329" y="295"/>
      <point x="329" y="195" type="curve" smooth="yes"/>
      <point x="329" y="103"/>
      <point x="295" y="30"/>
    </contour>
    <contour>
      <point x="230" y="0" type="move" name="bottom"/>
    </contour>
    <contour>
      <point x="230" y="413" type="move" name="top"/>
    </contour>
  </outline>
</glyph>
<glyph name="R" format="1">
  <advance width="418"/>
  <unicode hex="0052"/>
  <outline>
    <contour>
      <point x="404" y="-5" type="curve" smooth="yes"/>
      <point x="413" y="-5"/>
      <point x="421" y="-4"/>
      <point x="427" y="-3" type="curve"/>
      <point x="429" y="1"/>
      <point x="429" y="5"/>
      <point x="429" y="10" type="curve" smooth="yes"/>
      <point x="429" y="16"/>
      <point x="429" y="19"/>
      <point x="427" y="21" type="curve"/>
      <point x="392" y="21"/>
      <point x="362" y="58"/>
      <point x="330" y="100" type="curve" smooth="yes"/>
      <point x="303" y="136"/>
      <point x="280" y="171"/>
      <point x="254" y="200" type="curve"/>
      <point x="253" y="189" type="line"/>
      <point x="326" y="215"/>
      <point x="349" y="255"/>
      <point x="349" y="311" type="curve" smooth="yes"/>
      <point x="349" y="372"/>
      <point x="299" y="414"/>
      <point x="217" y="414" type="curve" smooth="yes"/>
      <point x="115" y="414" type="line" smooth="yes"/>
      <point x="92" y="414"/>
      <point x="61" y="415"/>
      <point x="21" y="417" type="curve"/>
      <point x="20" y="416"/>
      <point x="19" y="412"/>
      <point x="19" y="405" type="curve" smooth="yes"/>
      <point x="19" y="398"/>
      <point x="20" y="394"/>
      <point x="21" y="394" type="curve" smooth="yes"/>
      <point x="31" y="394"/>
      <point x="61" y="382"/>
      <point x="63" y="376" type="curve" smooth="yes"/>
      <point x="66" y="366"/>
      <point x="67" y="350"/>
      <point x="67" y="327" type="curve" smooth="yes"/>
      <point x="67" y="90" type="line" smooth="yes"/>
      <point x="67" y="64"/>
      <point x="66" y="45"/>
      <point x="63" y="35" type="curve" smooth="yes"/>
      <point x="61" y="28"/>
      <point x="32" y="21"/>
      <point x="22" y="21" type="curve" smooth="yes"/>
      <point x="20" y="21"/>
      <point x="20" y="16"/>
      <point x="20" y="8" type="curve" smooth="yes"/>
      <point x="20" y="2"/>
      <point x="20" y="-1"/>
      <point x="22" y="-3" type="curve"/>
      <point x="54" y="-1"/>
      <point x="85" y="1"/>
      <point x="116" y="1" type="curve" smooth="yes"/>
      <point x="130" y="1"/>
      <point x="163" y="0"/>
      <point x="214" y="-3" type="curve"/>
      <point x="214" y="0"/>
      <point x="215" y="4"/>
      <point x="215" y="9" type="curve" smooth="yes"/>
      <point x="215" y="17"/>
      <point x="214" y="21"/>
      <point x="213" y="21" type="curve" smooth="yes"/>
      <point x="200" y="21"/>
      <point x="166" y="27"/>
      <point x="164" y="37" type="curve" smooth="yes"/>
      <point x="161" y="51"/>
      <point x="159" y="68"/>
      <point x="159" y="88" type="curve" smooth="yes"/>
      <point x="159" y="182" type="line"/>
      <point x="161" y="183"/>
      <point x="162" y="183"/>
      <point x="163" y="183" type="curve" smooth="yes"/>
      <point x="167" y="183"/>
      <point x="171" y="179"/>
      <point x="173" y="177" type="curve"/>
      <point x="236" y="83" type="line" smooth="yes"/>
      <point x="276" y="23"/>
      <point x="315" y="-5"/>
    </contour>
    <contour>
      <point x="178" y="218" type="line" smooth="yes"/>
      <point x="171" y="218"/>
      <point x="164" y="219"/>
      <point x="159" y="220" type="curve"/>
      <point x="159" y="310" type="line" smooth="yes"/>
      <point x="159" y="349"/>
      <point x="161" y="371"/>
      <point x="165" y="374" type="curve" smooth="yes"/>
      <point x="169" y="377"/>
      <point x="175" y="379"/>
      <point x="188" y="379" type="curve" smooth="yes"/>
      <point x="225" y="379"/>
      <point x="248" y="352"/>
      <point x="248" y="298" type="curve" smooth="yes"/>
      <point x="248" y="249"/>
      <point x="227" y="218"/>
      <point x="180" y="218" type="curve" smooth="yes"/>
    </contour>
    <contour>
      <point x="229" y="0" type="move" name="bottom"/>
    </contour>
    <contour>
      <point x="229" y="413" type="move" name="top"/>
    </contour>
  </outline>
</glyph>
<glyph name="S" format="1">
  <advance width="311"/>
  <unicode hex="0053"/>
  <outline>
    <contour>
      <point x="134" y="-6" type="curve" smooth="yes"/>
      <point x="217" y="-6"/>
      <point x="291" y="37"/>
      <point x="291" y="115" type="curve" smooth="yes"/>
      <point x="291" y="168"/>
      <point x="272" y="193"/>
      <point x="190" y="242" type="curve" smooth="yes"/>
      <point x="124" y="282"/>
      <point x="109" y="305"/>
      <point x="109" y="334" type="curve" smooth="yes"/>
      <point x="109" y="367"/>
      <point x="131" y="385"/>
      <point x="160" y="385" type="curve" smooth="yes"/>
      <point x="202" y="385"/>
      <point x="226" y="354"/>
      <point x="241" y="295" type="curve"/>
      <point x="241" y="292"/>
      <point x="246" y="291"/>
      <point x="255" y="291" type="curve" smooth="yes"/>
      <point x="263" y="291"/>
      <point x="268" y="293"/>
      <point x="270" y="297" type="curve"/>
      <point x="270" y="325"/>
      <point x="268" y="360"/>
      <point x="264" y="404" type="curve"/>
      <point x="226" y="416"/>
      <point x="191" y="421"/>
      <point x="171" y="421" type="curve" smooth="yes"/>
      <point x="85" y="421"/>
      <point x="21" y="365"/>
      <point x="21" y="305" type="curve" smooth="yes"/>
      <point x="21" y="254"/>
      <point x="37" y="228"/>
      <point x="115" y="179" type="curve" smooth="yes"/>
      <point x="181" y="138"/>
      <point x="199" y="117"/>
      <point x="199" y="85" type="curve" smooth="yes"/>
      <point x="199" y="53"/>
      <point x="180" y="30"/>
      <point x="143" y="30" type="curve" smooth="yes"/>
      <point x="88" y="30"/>
      <point x="57" y="71"/>
      <point x="45" y="118" type="curve"/>
      <point x="45" y="120"/>
      <point x="39" y="121"/>
      <point x="29" y="121" type="curve" smooth="yes"/>
      <point x="19" y="121"/>
      <point x="15" y="119"/>
      <point x="13" y="115" type="curve"/>
      <point x="13" y="95"/>
      <point x="21" y="34"/>
      <point x="27" y="10" type="curve"/>
      <point x="75" y="0"/>
      <point x="99" y="-6"/>
    </contour>
    <contour>
      <point x="156" y="0" type="move" name="bottom"/>
    </contour>
    <contour>
      <point x="156" y="413" type="move" name="top"/>
    </contour>
  </outline>
</glyph>
<glyph name="T" format="1">
  <advance width="413"/>
  <unicode hex="0054"/>
  <outline>
    <contour>
      <point x="103" y="-3" type="curve"/>
      <point x="131" y="-1"/>
      <point x="184" y="3"/>
      <point x="208" y="3" type="curve" smooth="yes"/>
      <point x="242" y="3"/>
      <point x="280" y="-1"/>
      <point x="310" y="-3" type="curve"/>
      <point x="311" y="0"/>
      <point x="311" y="4"/>
      <point x="311" y="9" type="curve" smooth="yes"/>
      <point x="311" y="17"/>
      <point x="311" y="21"/>
      <point x="309" y="21" type="curve" smooth="yes"/>
      <point x="287" y="21"/>
      <point x="259" y="33"/>
      <point x="258" y="37" type="curve"/>
      <point x="254" y="50"/>
      <point x="253" y="67"/>
      <point x="253" y="87" type="curve" smooth="yes"/>
      <point x="253" y="314" type="line" smooth="yes"/>
      <point x="253" y="339"/>
      <point x="254" y="360"/>
      <point x="258" y="372" type="curve"/>
      <point x="259" y="380"/>
      <point x="283" y="381"/>
      <point x="316" y="381" type="curve" smooth="yes"/>
      <point x="349" y="381"/>
      <point x="372" y="358"/>
      <point x="383" y="318" type="curve"/>
      <point x="383" y="316"/>
      <point x="385" y="314"/>
      <point x="389" y="314" type="curve" smooth="yes"/>
      <point x="399" y="314"/>
      <point x="405" y="316"/>
      <point x="408" y="319" type="curve"/>
      <point x="396" y="424" type="line"/>
      <point x="380" y="420"/>
      <point x="366" y="417"/>
      <point x="352" y="417" type="curve"/>
      <point x="313" y="414"/>
      <point x="246" y="413"/>
      <point x="207" y="413" type="curve" smooth="yes"/>
      <point x="168" y="413"/>
      <point x="102" y="414"/>
      <point x="63" y="417" type="curve"/>
      <point x="49" y="417"/>
      <point x="35" y="420"/>
      <point x="19" y="424" type="curve"/>
      <point x="7" y="320" type="line"/>
      <point x="10" y="316"/>
      <point x="16" y="315"/>
      <point x="26" y="315" type="curve" smooth="yes"/>
      <point x="30" y="315"/>
      <point x="32" y="316"/>
      <point x="32" y="318" type="curve"/>
      <point x="43" y="360"/>
      <point x="65" y="381"/>
      <point x="99" y="381" type="curve" smooth="yes"/>
      <point x="134" y="381"/>
      <point x="151" y="381"/>
      <point x="155" y="372" type="curve"/>
      <point x="158" y="366"/>
      <point x="160" y="344"/>
      <point x="160" y="312" type="curve" smooth="yes"/>
      <point x="160" y="85" type="line" smooth="yes"/>
      <point x="160" y="65"/>
      <point x="159" y="49"/>
      <point x="156" y="37" type="curve"/>
      <point x="154" y="32"/>
      <point x="127" y="21"/>
      <point x="102" y="21" type="curve" smooth="yes"/>
      <point x="101" y="21"/>
      <point x="100" y="17"/>
      <point x="100" y="8" type="curve" smooth="yes"/>
      <point x="100" y="2"/>
      <point x="101" y="-1"/>
    </contour>
    <contour>
      <point x="209" y="0" type="move" name="bottom"/>
    </contour>
    <contour>
      <point x="209" y="207" type="move" name="stroke"/>
    </contour>
    <contour>
      <point x="209" y="413" type="move" name="top"/>
    </contour>
  </outline>
</glyph>
<glyph name="U" format="1">
  <advance width="463"/>
  <unicode hex="0055"/>
  <outline>
    <contour>
      <point x="242" y="-4" type="curve" smooth="yes"/>
      <point x="337" y="-4"/>
      <point x="398" y="60"/>
      <point x="398" y="176" type="curve" smooth="yes"/>
      <point x="398" y="326" type="line" smooth="yes"/>
      <point x="398" y="349"/>
      <point x="401" y="364"/>
      <point x="407" y="370" type="curve" smooth="yes"/>
      <point x="421" y="385"/>
      <point x="435" y="392"/>
      <point x="460" y="392" type="curve" smooth="yes"/>
      <point x="462" y="392"/>
      <point x="463" y="396"/>
      <point x="463" y="404" type="curve" smooth="yes"/>
      <point x="463" y="409"/>
      <point x="462" y="413"/>
      <point x="460" y="416" type="curve"/>
      <point x="451" y="415"/>
      <point x="403" y="411"/>
      <point x="381" y="411" type="curve" smooth="yes"/>
      <point x="364" y="411"/>
      <point x="336" y="413"/>
      <point x="297" y="416" type="curve"/>
      <point x="297" y="415"/>
      <point x="296" y="412"/>
      <point x="296" y="407" type="curve" smooth="yes"/>
      <point x="296" y="398"/>
      <point x="298" y="392"/>
      <point x="300" y="392" type="curve" smooth="yes"/>
      <point x="314" y="392"/>
      <point x="342" y="381"/>
      <point x="348" y="373" type="curve"/>
      <point x="354" y="367"/>
      <point x="357" y="353"/>
      <point x="357" y="329" type="curve" smooth="yes"/>
      <point x="357" y="179" type="line" smooth="yes"/>
      <point x="357" y="88"/>
      <point x="319" y="49"/>
      <point x="261" y="49" type="curve" smooth="yes"/>
      <point x="193" y="49"/>
      <point x="157" y="86"/>
      <point x="157" y="160" type="curve" smooth="yes"/>
      <point x="157" y="324" type="line" smooth="yes"/>
      <point x="157" y="348"/>
      <point x="158" y="366"/>
      <point x="161" y="377" type="curve" smooth="yes"/>
      <point x="162" y="381"/>
      <point x="192" y="392"/>
      <point x="202" y="392" type="curve" smooth="yes"/>
      <point x="204" y="392"/>
      <point x="204" y="396"/>
      <point x="204" y="404" type="curve" smooth="yes"/>
      <point x="204" y="408"/>
      <point x="204" y="412"/>
      <point x="203" y="416" type="curve"/>
      <point x="151" y="413"/>
      <point x="121" y="412"/>
      <point x="113" y="412" type="curve" smooth="yes"/>
      <point x="97" y="412"/>
      <point x="73" y="413"/>
      <point x="20" y="416" type="curve"/>
      <point x="19" y="415"/>
      <point x="18" y="411"/>
      <point x="18" y="403" type="curve" smooth="yes"/>
      <point x="18" y="396"/>
      <point x="19" y="392"/>
      <point x="21" y="392" type="curve" smooth="yes"/>
      <point x="31" y="392"/>
      <point x="55" y="382"/>
      <point x="59" y="376" type="curve"/>
      <point x="63" y="371"/>
      <point x="65" y="355"/>
      <point x="65" y="328" type="curve" smooth="yes"/>
      <point x="65" y="182" type="line" smooth="yes"/>
      <point x="65" y="53"/>
      <point x="125" y="-4"/>
    </contour>
    <contour>
      <point x="242" y="0" type="move" name="bottom"/>
    </contour>
    <contour>
      <point x="328" y="6" type="move" name="ogonek"/>
    </contour>
    <contour>
      <point x="242" y="413" type="move" name="top"/>
    </contour>
    <contour>
      <point x="467" y="413" type="move" name="topright"/>
    </contour>
  </outline>
</glyph>
<glyph name="V" format="1">
  <advance width="440"/>
  <unicode hex="0056"/>
  <outline>
    <contour>
      <point x="216" y="-6" type="curve" smooth="yes"/>
      <point x="226" y="-6"/>
      <point x="235" y="2"/>
      <point x="239" y="12" type="curve" smooth="yes"/>
      <point x="379" y="331" type="line" smooth="yes"/>
      <point x="391" y="359"/>
      <point x="399" y="373"/>
      <point x="401" y="374" type="curve"/>
      <point x="415" y="384"/>
      <point x="441" y="393"/>
      <point x="449" y="393" type="curve" smooth="yes"/>
      <point x="450" y="393"/>
      <point x="450" y="397"/>
      <point x="450" y="406" type="curve" smooth="yes"/>
      <point x="450" y="411"/>
      <point x="450" y="414"/>
      <point x="448" y="416" type="curve"/>
      <point x="407" y="414"/>
      <point x="384" y="411"/>
      <point x="375" y="411" type="curve" smooth="yes"/>
      <point x="366" y="411"/>
      <point x="354" y="412"/>
      <point x="301" y="416" type="curve"/>
      <point x="301" y="413"/>
      <point x="300" y="409"/>
      <point x="300" y="402" type="curve" smooth="yes"/>
      <point x="300" y="396"/>
      <point x="301" y="393"/>
      <point x="302" y="392" type="curve"/>
      <point x="329" y="392"/>
      <point x="347" y="382"/>
      <point x="347" y="370" type="curve" smooth="yes"/>
      <point x="347" y="361"/>
      <point x="342" y="346"/>
      <point x="334" y="328" type="curve" smooth="yes"/>
      <point x="237" y="102" type="line"/>
      <point x="256" y="102" type="line"/>
      <point x="164" y="329" type="line" smooth="yes"/>
      <point x="155" y="352"/>
      <point x="150" y="365"/>
      <point x="150" y="369" type="curve" smooth="yes"/>
      <point x="150" y="384"/>
      <point x="177" y="392"/>
      <point x="192" y="392" type="curve" smooth="yes"/>
      <point x="194" y="392"/>
      <point x="194" y="395"/>
      <point x="194" y="403" type="curve" smooth="yes"/>
      <point x="194" y="410"/>
      <point x="194" y="414"/>
      <point x="192" y="416" type="curve"/>
      <point x="129" y="412"/>
      <point x="104" y="410"/>
      <point x="92" y="410" type="curve" smooth="yes"/>
      <point x="82" y="410"/>
      <point x="27" y="413"/>
      <point x="2" y="416" type="curve"/>
      <point x="1" y="415"/>
      <point x="1" y="410"/>
      <point x="1" y="403" type="curve" smooth="yes"/>
      <point x="1" y="396"/>
      <point x="1" y="392"/>
      <point x="3" y="392" type="curve" smooth="yes"/>
      <point x="15" y="392"/>
      <point x="45" y="384"/>
      <point x="50" y="370" type="curve"/>
      <point x="50" y="368"/>
      <point x="57" y="352"/>
      <point x="70" y="320" type="curve" smooth="yes"/>
      <point x="196" y="8" type="line"/>
      <point x="200" y="-3"/>
      <point x="208" y="-6"/>
    </contour>
    <contour>
      <point x="221" y="0" type="move" name="bottom"/>
    </contour>
    <contour>
      <point x="221" y="413" type="move" name="top"/>
    </contour>
  </outline>
</glyph>
<glyph name="X" format="1">
  <advance width="451"/>
  <unicode hex="0058"/>
  <outline>
    <contour>
      <point x="4" y="-3" type="line"/>
      <point x="55" y="0"/>
      <point x="82" y="1"/>
      <point x="84" y="1" type="curve" smooth="yes"/>
      <point x="99" y="1"/>
      <point x="130" y="0"/>
      <point x="172" y="-3" type="curve"/>
      <point x="172" y="-1"/>
      <point x="173" y="3"/>
      <point x="173" y="8" type="curve" smooth="yes"/>
      <point x="173" y="17"/>
      <point x="172" y="21"/>
      <point x="170" y="21" type="curve" smooth="yes"/>
      <point x="148" y="21"/>
      <point x="123" y="29"/>
      <point x="123" y="42" type="curve" smooth="yes"/>
      <point x="123" y="49"/>
      <point x="127" y="56"/>
      <point x="137" y="70" type="curve" smooth="yes"/>
      <point x="206" y="167" type="line"/>
      <point x="281" y="53" type="line"/>
      <point x="286" y="46"/>
      <point x="288" y="41"/>
      <point x="288" y="39" type="curve" smooth="yes"/>
      <point x="288" y="29"/>
      <point x="263" y="21"/>
      <point x="253" y="21" type="curve" smooth="yes"/>
      <point x="251" y="21"/>
      <point x="249" y="14"/>
      <point x="249" y="7" type="curve" smooth="yes"/>
      <point x="249" y="3"/>
      <point x="250" y="-1"/>
      <point x="251" y="-3" type="curve"/>
      <point x="268" y="-1"/>
      <point x="334" y="1"/>
      <point x="351" y="1" type="curve" smooth="yes"/>
      <point x="363" y="1"/>
      <point x="395" y="0"/>
      <point x="446" y="-3" type="curve"/>
      <point x="448" y="0"/>
      <point x="448" y="3"/>
      <point x="448" y="7" type="curve" smooth="yes"/>
      <point x="448" y="17"/>
      <point x="448" y="21"/>
      <point x="447" y="21" type="curve" smooth="yes"/>
      <point x="438" y="21"/>
      <point x="406" y="28"/>
      <point x="382" y="63" type="curve" smooth="yes"/>
      <point x="275" y="223" type="line"/>
      <point x="383" y="367" type="line" smooth="yes"/>
      <point x="397" y="386"/>
      <point x="426" y="392"/>
      <point x="438" y="392" type="curve" smooth="yes"/>
      <point x="440" y="392"/>
      <point x="440" y="395"/>
      <point x="440" y="402" type="curve" smooth="yes"/>
      <point x="440" y="409"/>
      <point x="440" y="414"/>
      <point x="438" y="416" type="curve"/>
      <point x="387" y="413"/>
      <point x="359" y="412"/>
      <point x="353" y="412" type="curve" smooth="yes"/>
      <point x="349" y="412"/>
      <point x="325" y="413"/>
      <point x="278" y="416" type="curve"/>
      <point x="277" y="415"/>
      <point x="275" y="409"/>
      <point x="275" y="404" type="curve" smooth="yes"/>
      <point x="275" y="398"/>
      <point x="277" y="392"/>
      <point x="278" y="392" type="curve" smooth="yes"/>
      <point x="301" y="392"/>
      <point x="325" y="384"/>
      <point x="325" y="376" type="curve" smooth="yes"/>
      <point x="325" y="367"/>
      <point x="319" y="358"/>
      <point x="306" y="339" type="curve" smooth="yes"/>
      <point x="250" y="261" type="line"/>
      <point x="181" y="366" type="line"/>
      <point x="178" y="371"/>
      <point x="176" y="375"/>
      <point x="176" y="380" type="curve"/>
      <point x="177" y="387"/>
      <point x="197" y="392"/>
      <point x="209" y="392" type="curve" smooth="yes"/>
      <point x="210" y="392"/>
      <point x="211" y="399"/>
      <point x="211" y="406" type="curve" smooth="yes"/>
      <point x="211" y="411"/>
      <point x="211" y="414"/>
      <point x="210" y="416" type="curve"/>
      <point x="159" y="413"/>
      <point x="128" y="412"/>
      <point x="118" y="412" type="curve" smooth="yes"/>
      <point x="103" y="412"/>
      <point x="53" y="414"/>
      <point x="29" y="416" type="curve"/>
      <point x="27" y="414"/>
      <point x="26" y="410"/>
      <point x="26" y="403" type="curve" smooth="yes"/>
      <point x="26" y="396"/>
      <point x="27" y="392"/>
      <point x="29" y="392" type="curve" smooth="yes"/>
      <point x="42" y="392"/>
      <point x="53" y="389"/>
      <point x="62" y="383" type="curve"/>
      <point x="65" y="380"/>
      <point x="76" y="363"/>
      <point x="94" y="336" type="curve" smooth="yes"/>
      <point x="180" y="205" type="line"/>
      <point x="59" y="43" type="line" smooth="yes"/>
      <point x="50" y="31"/>
      <point x="14" y="21"/>
      <point x="3" y="21" type="curve" smooth="yes"/>
      <point x="2" y="21"/>
      <point x="1" y="16"/>
      <point x="1" y="6" type="curve"/>
    </contour>
    <contour>
      <point x="227" y="0" type="move" name="bottom"/>
    </contour>
    <contour>
      <point x="227" y="413" type="move" name="top"/>
    </contour>
  </outline>
</glyph>
<glyph name="Z" format="1">
  <advance width="408"/>
  <unicode hex="005A"/>
  <outline>
    <contour>
      <point x="27" y="0" type="curve"/>
      <point x="353" y="0" type="line"/>
      <point x="355" y="21"/>
      <point x="381" y="91"/>
      <point x="388" y="110" type="curve"/>
      <point x="385" y="112"/>
      <point x="378" y="113"/>
      <point x="368" y="113" type="curve" smooth="yes"/>
      <point x="363" y="113"/>
      <point x="361" y="112"/>
      <point x="360" y="109" type="curve" smooth="yes"/>
      <point x="346" y="69"/>
      <point x="307" y="36"/>
      <point x="247" y="36" type="curve" smooth="yes"/>
      <point x="127" y="36" type="line"/>
      <point x="127" y="20" type="line"/>
      <point x="376" y="398" type="line"/>
      <point x="376" y="404"/>
      <point x="372" y="418"/>
      <point x="370" y="418" type="curve"/>
      <point x="312" y="414"/>
      <point x="262" y="412"/>
      <point x="222" y="412" type="curve" smooth="yes"/>
      <point x="154" y="412" type="line" smooth="yes"/>
      <point x="91" y="412"/>
      <point x="62" y="413"/>
      <point x="51" y="415" type="curve"/>
      <point x="49" y="394"/>
      <point x="43" y="356"/>
      <point x="33" y="302" type="curve"/>
      <point x="35" y="300"/>
      <point x="41" y="300"/>
      <point x="54" y="300" type="curve" smooth="yes"/>
      <point x="58" y="300"/>
      <point x="61" y="301"/>
      <point x="62" y="304" type="curve" smooth="yes"/>
      <point x="82" y="363"/>
      <point x="100" y="376"/>
      <point x="150" y="376" type="curve" smooth="yes"/>
      <point x="282" y="376" type="line"/>
      <point x="270" y="399" type="line"/>
      <point x="24" y="27" type="line"/>
      <point x="22" y="25"/>
      <point x="21" y="21"/>
      <point x="21" y="16" type="curve" smooth="yes"/>
      <point x="21" y="9"/>
      <point x="23" y="4"/>
    </contour>
    <contour>
      <point x="204" y="0" type="move" name="bottom"/>
    </contour>
    <contour>
      <point x="204" y="207" type="move" name="center"/>
    </contour>
    <contour>
      <point x="204" y="413" type="move" name="top"/>
    </contour>
  </outline>
</glyph>
<glyph name="bracketleft" format="1">
  <advance width="247"/>
  <unicode hex="005B"/>
  <outline>
    <contour>
      <point x="150" y="-38" type="curve"/>
      <point x="150" y="454" type="line"/>
      <point x="168" y="456"/>
      <point x="203" y="462"/>
      <point x="229" y="472" type="curve"/>
      <point x="232" y="477"/>
      <point x="232" y="482"/>
      <point x="232" y="490" type="curve"/>
      <point x="232" y="495"/>
      <point x="231" y="500"/>
      <point x="229" y="502" type="curve"/>
      <point x="176" y="491"/>
      <point x="128" y="486"/>
      <point x="79" y="486" type="curve"/>
      <point x="71" y="486"/>
      <point x="67" y="482"/>
      <point x="67" y="474" type="curve"/>
      <point x="67" y="-58" type="line" smooth="yes"/>
      <point x="67" y="-65"/>
      <point x="71" y="-70"/>
      <point x="79" y="-70" type="curve"/>
      <point x="128" y="-70"/>
      <point x="176" y="-75"/>
      <point x="229" y="-85" type="curve"/>
      <point x="231" y="-83"/>
      <point x="232" y="-79"/>
      <point x="232" y="-74" type="curve"/>
      <point x="232" y="-65"/>
      <point x="232" y="-61"/>
      <point x="229" y="-56" type="curve"/>
      <point x="203" y="-46"/>
      <point x="168" y="-39"/>
    </contour>
  </outline>
</glyph>
<glyph name="backslash" format="1">
  <advance width="267"/>
  <unicode hex="005C"/>
  <outline>
    <contour>
      <point x="64" y="474" type="line"/>
      <point x="11" y="474" type="line"/>
      <point x="201" y="-18" type="line"/>
      <point x="253" y="-18" type="line"/>
    </contour>
  </outline>
</glyph>
<glyph name="bracketright" format="1">
  <advance width="247"/>
  <unicode hex="005D"/>
  <outline>
    <contour>
      <point x="97" y="454" type="curve"/>
      <point x="97" y="-38" type="line"/>
      <point x="79" y="-39"/>
      <point x="44" y="-46"/>
      <point x="18" y="-56" type="curve"/>
      <point x="15" y="-61"/>
      <point x="15" y="-65"/>
      <point x="15" y="-74" type="curve"/>
      <point x="15" y="-79"/>
      <point x="16" y="-83"/>
      <point x="18" y="-85" type="curve"/>
      <point x="71" y="-75"/>
      <point x="119" y="-70"/>
      <point x="168" y="-70" type="curve"/>
      <point x="176" y="-70"/>
      <point x="180" y="-65"/>
      <point x="180" y="-58" type="curve"/>
      <point x="180" y="474" type="line" smooth="yes"/>
      <point x="180" y="482"/>
      <point x="176" y="486"/>
      <point x="168" y="486" type="curve"/>
      <point x="119" y="486"/>
      <point x="71" y="491"/>
      <point x="18" y="502" type="curve"/>
      <point x="16" y="500"/>
      <point x="15" y="495"/>
      <point x="15" y="490" type="curve"/>
      <point x="15" y="482"/>
      <point x="15" y="477"/>
      <point x="18" y="472" type="curve"/>
      <point x="44" y="462"/>
      <point x="79" y="456"/>
    </contour>
  </outline>
</glyph>
<glyph name="asciicircum" format="1">
  <advance width="352"/>
  <unicode hex="005E"/>
  <outline>
    <contour>
      <point x="273" y="75" type="line"/>
      <point x="320" y="97" type="line"/>
      <point x="199" y="336" type="line"/>
      <point x="152" y="336" type="line"/>
      <point x="31" y="97" type="line"/>
      <point x="79" y="75" type="line"/>
      <point x="188" y="291" type="line"/>
      <point x="163" y="291" type="line"/>
    </contour>
  </outline>
</glyph>
<glyph name="underscore" format="1">
  <advance width="314"/>
  <unicode hex="005F"/>
  <outline>
    <contour>
      <point x="295" y="0" type="curve"/>
      <point x="26" y="0" type="line" smooth="yes"/>
      <point x="20" y="0"/>
      <point x="17" y="-24"/>
      <point x="17" y="-34" type="curve"/>
      <point x="17" y="-40"/>
      <point x="18" y="-45"/>
      <point x="19" y="-47" type="curve"/>
      <point x="288" y="-47" type="line" smooth="yes"/>
      <point x="294" y="-47"/>
      <point x="297" y="-23"/>
      <point x="297" y="-13" type="curve"/>
      <point x="297" y="-7"/>
      <point x="296" y="-3"/>
    </contour>
  </outline>
</glyph>
<glyph name="a" format="1">
  <advance width="307"/>
  <unicode hex="0061"/>
  <outline>
    <contour>
      <point x="97" y="-4" type="curve" smooth="yes"/>
      <point x="130" y="-4"/>
      <point x="156" y="12"/>
      <point x="187" y="48" type="curve"/>
      <point x="167" y="41" type="line"/>
      <point x="185" y="13"/>
      <point x="199" y="-4"/>
      <point x="228" y="-4" type="curve" smooth="yes"/>
      <point x="250" y="-4"/>
      <point x="283" y="9"/>
      <point x="297" y="23" type="curve"/>
      <point x="300" y="28"/>
      <point x="302" y="36"/>
      <point x="302" y="48" type="curve" smooth="yes"/>
      <point x="302" y="52"/>
      <point x="300" y="56"/>
      <point x="297" y="58" type="curve"/>
      <point x="290" y="52"/>
      <point x="283" y="50"/>
      <point x="276" y="50" type="curve" smooth="yes"/>
      <point x="261" y="50"/>
      <point x="255" y="62"/>
      <point x="255" y="87" type="curve" smooth="yes"/>
      <point x="255" y="199" type="line" smooth="yes"/>
      <point x="255" y="262"/>
      <point x="226" y="282"/>
      <point x="174" y="282" type="curve" smooth="yes"/>
      <point x="110" y="282"/>
      <point x="24" y="231"/>
      <point x="24" y="196" type="curve" smooth="yes"/>
      <point x="24" y="184"/>
      <point x="34" y="172"/>
      <point x="62" y="172" type="curve" smooth="yes"/>
      <point x="86" y="172"/>
      <point x="100" y="184"/>
      <point x="102" y="202" type="curve" smooth="yes"/>
      <point x="106" y="234"/>
      <point x="117" y="246"/>
      <point x="140" y="246" type="curve" smooth="yes"/>
      <point x="159" y="246"/>
      <point x="169" y="232"/>
      <point x="169" y="210" type="curve" smooth="yes"/>
      <point x="169" y="171" type="line" smooth="yes"/>
      <point x="169" y="166"/>
      <point x="167" y="163"/>
      <point x="164" y="162" type="curve" smooth="yes"/>
      <point x="81" y="136" type="line" smooth="yes"/>
      <point x="41" y="123"/>
      <point x="18" y="97"/>
      <point x="18" y="62" type="curve" smooth="yes"/>
      <point x="18" y="22"/>
      <point x="52" y="-4"/>
    </contour>
    <contour>
      <point x="139" y="46" type="curve" smooth="yes"/>
      <point x="117" y="46"/>
      <point x="104" y="61"/>
      <point x="104" y="81" type="curve" smooth="yes"/>
      <point x="104" y="99"/>
      <point x="114" y="112"/>
      <point x="132" y="118" type="curve" smooth="yes"/>
      <point x="169" y="131" type="line"/>
      <point x="169" y="63" type="line" smooth="yes"/>
      <point x="169" y="51"/>
      <point x="154" y="46"/>
    </contour>
    <contour>
      <point x="157" y="0" type="move" name="bottom"/>
    </contour>
    <contour>
      <point x="247" y="6" type="move" name="ogonek"/>
    </contour>
    <contour>
      <point x="157" y="276" type="move" name="top"/>
    </contour>
  </outline>
</glyph>
<glyph name="b" format="1">
  <advance width="350"/>
  <unicode hex="0062"/>
  <outline>
    <contour>
      <point x="65" y="-6" type="curve"/>
      <point x="76" y="-1"/>
      <point x="91" y="7"/>
      <point x="103" y="7" type="curve" smooth="yes"/>
      <point x="123" y="7"/>
      <point x="144" y="-5"/>
      <point x="183" y="-5" type="curve" smooth="yes"/>
      <point x="261" y="-5"/>
      <point x="335" y="66"/>
      <point x="335" y="141" type="curve" smooth="yes"/>
      <point x="335" y="221"/>
      <point x="273" y="281"/>
      <point x="199" y="281" type="curve" smooth="yes"/>
      <point x="181" y="281"/>
      <point x="161" y="277"/>
      <point x="134" y="258" type="curve"/>
      <point x="134" y="361" type="line" smooth="yes"/>
      <point x="134" y="384"/>
      <point x="137" y="406"/>
      <point x="141" y="426" type="curve"/>
      <point x="140" y="432"/>
      <point x="136" y="437"/>
      <point x="133" y="437" type="curve"/>
      <point x="86" y="424"/>
      <point x="46" y="416"/>
      <point x="6" y="412" type="curve"/>
      <point x="4" y="412"/>
      <point x="3" y="408"/>
      <point x="3" y="400" type="curve" smooth="yes"/>
      <point x="3" y="391"/>
      <point x="4" y="386"/>
      <point x="6" y="386" type="curve" smooth="yes"/>
      <point x="12" y="386" type="line" smooth="yes"/>
      <point x="31" y="386"/>
      <point x="43" y="383"/>
      <point x="45" y="376" type="curve"/>
      <point x="47" y="364"/>
      <point x="48" y="349"/>
      <point x="48" y="331" type="curve" smooth="yes"/>
      <point x="48" y="80" type="line" smooth="yes"/>
      <point x="48" y="57"/>
      <point x="43" y="13"/>
      <point x="44" y="10" type="curve"/>
      <point x="48" y="3"/>
      <point x="58" y="-5"/>
    </contour>
    <contour>
      <point x="180" y="30" type="curve" smooth="yes"/>
      <point x="155" y="30"/>
      <point x="134" y="50"/>
      <point x="134" y="76" type="curve" smooth="yes"/>
      <point x="134" y="210" type="line" smooth="yes"/>
      <point x="134" y="223"/>
      <point x="142" y="234"/>
      <point x="163" y="234" type="curve" smooth="yes"/>
      <point x="207" y="234"/>
      <point x="239" y="185"/>
      <point x="239" y="120" type="curve" smooth="yes"/>
      <point x="239" y="56"/>
      <point x="217" y="30"/>
    </contour>
    <contour>
      <point x="169" y="0" type="move" name="bottom"/>
    </contour>
    <contour>
      <point x="169" y="413" type="move" name="top"/>
    </contour>
  </outline>
</glyph>
<glyph name="c" format="1">
  <advance width="288"/>
  <unicode hex="0063"/>
  <outline>
    <contour>
      <point x="157" y="-4" type="curve" smooth="yes"/>
      <point x="211" y="-4"/>
      <point x="253" y="25"/>
      <point x="269" y="58" type="curve"/>
      <point x="271" y="61"/>
      <point x="271" y="65"/>
      <point x="271" y="72" type="curve" smooth="yes"/>
      <point x="271" y="77"/>
      <point x="269" y="81"/>
      <point x="265" y="84" type="curve"/>
      <point x="243" y="62"/>
      <point x="220" y="55"/>
      <point x="192" y="55" type="curve" smooth="yes"/>
      <point x="143" y="55"/>
      <point x="109" y="91"/>
      <point x="109" y="162" type="curve" smooth="yes"/>
      <point x="109" y="210"/>
      <point x="128" y="246"/>
      <point x="161" y="246" type="curve" smooth="yes"/>
      <point x="177" y="246"/>
      <point x="187" y="238"/>
      <point x="194" y="220" type="curve" smooth="yes"/>
      <point x="202" y="198"/>
      <point x="216" y="187"/>
      <point x="235" y="187" type="curve" smooth="yes"/>
      <point x="257" y="187"/>
      <point x="272" y="204"/>
      <point x="272" y="224" type="curve" smooth="yes"/>
      <point x="272" y="255"/>
      <point x="237" y="282"/>
      <point x="171" y="282" type="curve" smooth="yes"/>
      <point x="83" y="282"/>
      <point x="15" y="221"/>
      <point x="15" y="136" type="curve" smooth="yes"/>
      <point x="15" y="55"/>
      <point x="76" y="-4"/>
    </contour>
    <contour>
      <point x="147" y="0" type="move" name="bottom"/>
    </contour>
    <contour>
      <point x="147" y="276" type="move" name="top"/>
    </contour>
  </outline>
</glyph>
<glyph name="d" format="1">
  <advance width="350"/>
  <unicode hex="0064"/>
  <outline>
    <contour>
      <point x="135" y="-4" type="curve" smooth="yes"/>
      <point x="158" y="-4"/>
      <point x="187" y="8"/>
      <point x="215" y="29" type="curve"/>
      <point x="215" y="6" type="line" smooth="yes"/>
      <point x="215" y="0"/>
      <point x="218" y="-4"/>
      <point x="223" y="-4" type="curve"/>
      <point x="250" y="1"/>
      <point x="315" y="11"/>
      <point x="340" y="13" type="curve"/>
      <point x="342" y="13"/>
      <point x="344" y="18"/>
      <point x="344" y="29" type="curve" smooth="yes"/>
      <point x="344" y="34"/>
      <point x="343" y="37"/>
      <point x="342" y="38" type="curve"/>
      <point x="335" y="38" type="line" smooth="yes"/>
      <point x="319" y="38"/>
      <point x="306" y="42"/>
      <point x="304" y="49" type="curve"/>
      <point x="302" y="61"/>
      <point x="301" y="76"/>
      <point x="301" y="94" type="curve" smooth="yes"/>
      <point x="301" y="361" type="line" smooth="yes"/>
      <point x="301" y="382"/>
      <point x="303" y="403"/>
      <point x="308" y="426" type="curve"/>
      <point x="306" y="432"/>
      <point x="303" y="437"/>
      <point x="299" y="437" type="curve" smooth="yes"/>
      <point x="298" y="437" type="line"/>
      <point x="291" y="435" type="line" smooth="yes"/>
      <point x="250" y="424"/>
      <point x="208" y="416"/>
      <point x="170" y="412" type="curve"/>
      <point x="167" y="412"/>
      <point x="166" y="408"/>
      <point x="166" y="400" type="curve" smooth="yes"/>
      <point x="166" y="391"/>
      <point x="167" y="386"/>
      <point x="170" y="386" type="curve" smooth="yes"/>
      <point x="176" y="386" type="line" smooth="yes"/>
      <point x="198" y="386"/>
      <point x="209" y="383"/>
      <point x="211" y="376" type="curve"/>
      <point x="213" y="364"/>
      <point x="215" y="349"/>
      <point x="215" y="331" type="curve" smooth="yes"/>
      <point x="215" y="273" type="line"/>
      <point x="195" y="279"/>
      <point x="182" y="281"/>
      <point x="169" y="281" type="curve" smooth="yes"/>
      <point x="86" y="281"/>
      <point x="15" y="209"/>
      <point x="15" y="127" type="curve" smooth="yes"/>
      <point x="15" y="56"/>
      <point x="71" y="-4"/>
    </contour>
    <contour>
      <point x="182" y="49" type="curve" smooth="yes"/>
      <point x="138" y="49"/>
      <point x="109" y="94"/>
      <point x="109" y="151" type="curve" smooth="yes"/>
      <point x="109" y="207"/>
      <point x="135" y="244"/>
      <point x="170" y="244" type="curve" smooth="yes"/>
      <point x="194" y="244"/>
      <point x="215" y="229"/>
      <point x="215" y="210" type="curve" smooth="yes"/>
      <point x="215" y="84" type="line" smooth="yes"/>
      <point x="215" y="65"/>
      <point x="200" y="49"/>
    </contour>
    <contour>
      <point x="180" y="0" type="move" name="bottom"/>
    </contour>
    <contour>
      <point x="180" y="136" type="move" name="center"/>
    </contour>
    <contour>
      <point x="229" y="333" type="move" name="stroke"/>
    </contour>
    <contour>
      <point x="180" y="413" type="move" name="top"/>
    </contour>
    <contour>
      <point x="319" y="276" type="move" name="topright"/>
    </contour>
  </outline>
</glyph>
<glyph name="e" format="1">
  <advance width="293"/>
  <unicode hex="0065"/>
  <outline>
    <contour>
      <point x="160" y="-4" type="curve" smooth="yes"/>
      <point x="217" y="-4"/>
      <point x="259" y="26"/>
      <point x="275" y="58" type="curve"/>
      <point x="276" y="61"/>
      <point x="277" y="66"/>
      <point x="277" y="72" type="curve" smooth="yes"/>
      <point x="277" y="77"/>
      <point x="274" y="81"/>
      <point x="271" y="84" type="curve"/>
      <point x="256" y="64"/>
      <point x="229" y="55"/>
      <point x="203" y="55" type="curve" smooth="yes"/>
      <point x="139" y="55"/>
      <point x="106" y="91"/>
      <point x="106" y="169" type="curve" smooth="yes"/>
      <point x="106" y="218"/>
      <point x="124" y="246"/>
      <point x="154" y="246" type="curve" smooth="yes"/>
      <point x="179" y="246"/>
      <point x="195" y="219"/>
      <point x="195" y="185" type="curve" smooth="yes"/>
      <point x="195" y="177"/>
      <point x="192" y="173"/>
      <point x="186" y="173" type="curve" smooth="yes"/>
      <point x="95" y="173" type="line"/>
      <point x="94" y="137" type="line"/>
      <point x="259" y="137" type="line" smooth="yes"/>
      <point x="275" y="137"/>
      <point x="281" y="143"/>
      <point x="281" y="160" type="curve" smooth="yes"/>
      <point x="281" y="229"/>
      <point x="228" y="282"/>
      <point x="157" y="282" type="curve" smooth="yes"/>
      <point x="85" y="282"/>
      <point x="15" y="228"/>
      <point x="15" y="136" type="curve" smooth="yes"/>
      <point x="15" y="55"/>
      <point x="76" y="-4"/>
    </contour>
    <contour>
      <point x="147" y="0" type="move" name="bottom"/>
    </contour>
    <contour>
      <point x="248" y="6" type="move" name="ogonek"/>
    </contour>
    <contour>
      <point x="147" y="276" type="move" name="top"/>
    </contour>
  </outline>
</glyph>
<glyph name="f" format="1">
  <advance width="210"/>
  <unicode hex="0066"/>
  <outline>
    <contour>
      <point x="9" y="-3" type="curve"/>
      <point x="34" y="-1"/>
      <point x="87" y="3"/>
      <point x="98" y="3" type="curve" smooth="yes"/>
      <point x="119" y="3"/>
      <point x="184" y="-2"/>
      <point x="190" y="-3" type="curve"/>
      <point x="191" y="7" type="line"/>
      <point x="191" y="14"/>
      <point x="190" y="21"/>
      <point x="188" y="21" type="curve" smooth="yes"/>
      <point x="178" y="21"/>
      <point x="146" y="33"/>
      <point x="145" y="37" type="curve" smooth="yes"/>
      <point x="142" y="48"/>
      <point x="141" y="67"/>
      <point x="141" y="95" type="curve" smooth="yes"/>
      <point x="141" y="237" type="line"/>
      <point x="140" y="256" type="line"/>
      <point x="140" y="298" type="line" smooth="yes"/>
      <point x="140" y="366"/>
      <point x="156" y="408"/>
      <point x="181" y="408" type="curve" smooth="yes"/>
      <point x="207" y="408"/>
      <point x="206" y="353"/>
      <point x="239" y="353" type="curve" smooth="yes"/>
      <point x="258" y="353"/>
      <point x="271" y="367"/>
      <point x="271" y="385" type="curve" smooth="yes"/>
      <point x="271" y="415"/>
      <point x="240" y="437"/>
      <point x="196" y="437" type="curve" smooth="yes"/>
      <point x="125" y="437"/>
      <point x="55" y="361"/>
      <point x="55" y="286" type="curve" smooth="yes"/>
      <point x="55" y="84" type="line" smooth="yes"/>
      <point x="55" y="65"/>
      <point x="54" y="49"/>
      <point x="51" y="37" type="curve"/>
      <point x="50" y="32"/>
      <point x="20" y="21"/>
      <point x="9" y="21" type="curve" smooth="yes"/>
      <point x="7" y="21"/>
      <point x="7" y="18"/>
      <point x="7" y="11" type="curve" smooth="yes"/>
      <point x="7" y="4"/>
      <point x="7" y="-1"/>
    </contour>
    <contour>
      <point x="9" y="232" type="curve" smooth="yes"/>
      <point x="209" y="232" type="line"/>
      <point x="214" y="242"/>
      <point x="217" y="254"/>
      <point x="217" y="267" type="curve" smooth="yes"/>
      <point x="217" y="270"/>
      <point x="216" y="271"/>
      <point x="214" y="271" type="curve" smooth="yes"/>
      <point x="33" y="271" type="line" smooth="yes"/>
      <point x="22" y="271"/>
      <point x="7" y="251"/>
      <point x="7" y="236" type="curve" smooth="yes"/>
      <point x="7" y="233"/>
      <point x="7" y="232"/>
    </contour>
    <contour>
      <point x="98" y="0" type="move" name="bottom"/>
    </contour>
    <contour>
      <point x="105" y="413" type="move" name="top"/>
    </contour>
  </outline>
</glyph>
<glyph name="g" format="1">
  <advance width="306"/>
  <unicode hex="0067"/>
  <outline>
    <contour>
      <point x="142" y="-143" type="curve" smooth="yes"/>
      <point x="212" y="-143"/>
      <point x="299" y="-82"/>
      <point x="296" y="-16" type="curve" smooth="yes"/>
      <point x="295" y="2"/>
      <point x="285" y="15"/>
      <point x="265" y="26" type="curve" smooth="yes"/>
      <point x="245" y="37"/>
      <point x="204" y="47"/>
      <point x="159" y="47" type="curve" smooth="yes"/>
      <point x="109" y="46"/>
      <point x="86" y="53"/>
      <point x="86" y="71" type="curve" smooth="yes"/>
      <point x="86" y="76"/>
      <point x="91" y="89"/>
      <point x="107" y="99" type="curve"/>
      <point x="87" y="106" type="line"/>
      <point x="46" y="84"/>
      <point x="25" y="59"/>
      <point x="25" y="36" type="curve" smooth="yes"/>
      <point x="25" y="13"/>
      <point x="55" y="-13"/>
      <point x="84" y="-14" type="curve" smooth="yes"/>
      <point x="99" y="-15" type="line"/>
      <point x="196" y="-14"/>
      <point x="227" y="-24"/>
      <point x="227" y="-53" type="curve" smooth="yes"/>
      <point x="227" y="-88"/>
      <point x="194" y="-113"/>
      <point x="151" y="-113" type="curve" smooth="yes"/>
      <point x="116" y="-113"/>
      <point x="81" y="-88"/>
      <point x="81" y="-58" type="curve" smooth="yes"/>
      <point x="81" y="-39"/>
      <point x="92" y="-21"/>
      <point x="122" y="-11" type="curve"/>
      <point x="96" y="-8" type="line"/>
      <point x="48" y="-22"/>
      <point x="16" y="-49"/>
      <point x="16" y="-77" type="curve" smooth="yes"/>
      <point x="16" y="-113"/>
      <point x="66" y="-143"/>
    </contour>
    <contour>
      <point x="145" y="118" type="curve" smooth="yes"/>
      <point x="124" y="118"/>
      <point x="108" y="151"/>
      <point x="108" y="195" type="curve" smooth="yes"/>
      <point x="108" y="232"/>
      <point x="118" y="252"/>
      <point x="137" y="252" type="curve" smooth="yes"/>
      <point x="157" y="252"/>
      <point x="174" y="217"/>
      <point x="174" y="175" type="curve" smooth="yes"/>
      <point x="174" y="139"/>
      <point x="163" y="118"/>
    </contour>
    <contour>
      <point x="136" y="87" type="curve" smooth="yes"/>
      <point x="204" y="87"/>
      <point x="253" y="134"/>
      <point x="253" y="191" type="curve" smooth="yes"/>
      <point x="253" y="214"/>
      <point x="245" y="226"/>
      <point x="229" y="245" type="curve"/>
      <point x="227" y="231" type="line"/>
      <point x="287" y="231" type="line" smooth="yes"/>
      <point x="290" y="231"/>
      <point x="294" y="241"/>
      <point x="294" y="249" type="curve" smooth="yes"/>
      <point x="294" y="257"/>
      <point x="292" y="267"/>
      <point x="290" y="268" type="curve"/>
      <point x="239" y="268" type="line" smooth="yes"/>
      <point x="210" y="268"/>
      <point x="173" y="283"/>
      <point x="141" y="283" type="curve" smooth="yes"/>
      <point x="72" y="283"/>
      <point x="26" y="244"/>
      <point x="26" y="184" type="curve" smooth="yes"/>
      <point x="26" y="124"/>
      <point x="86" y="87"/>
    </contour>
    <contour>
      <point x="153" y="-140" type="move" name="bottom"/>
    </contour>
    <contour>
      <point x="153" y="276" type="move" name="top"/>
    </contour>
  </outline>
</glyph>
<glyph name="h" format="1">
  <advance width="374"/>
  <unicode hex="0068"/>
  <outline>
    <contour>
      <point x="8" y="-3" type="curve"/>
      <point x="13" y="-2"/>
      <point x="74" y="3"/>
      <point x="96" y="3" type="curve" smooth="yes"/>
      <point x="118" y="3"/>
      <point x="173" y="-2"/>
      <point x="179" y="-3" type="curve"/>
      <point x="180" y="-1"/>
      <point x="181" y="3"/>
      <point x="181" y="7" type="curve" smooth="yes"/>
      <point x="181" y="14"/>
      <point x="179" y="21"/>
      <point x="178" y="21" type="curve" smooth="yes"/>
      <point x="169" y="21"/>
      <point x="145" y="33"/>
      <point x="144" y="37" type="curve" smooth="yes"/>
      <point x="141" y="48"/>
      <point x="140" y="67"/>
      <point x="140" y="95" type="curve"/>
      <point x="139" y="183" type="line"/>
      <point x="139" y="208"/>
      <point x="162" y="225"/>
      <point x="188" y="225" type="curve" smooth="yes"/>
      <point x="214" y="225"/>
      <point x="236" y="207"/>
      <point x="236" y="152" type="curve" smooth="yes"/>
      <point x="236" y="86" type="line" smooth="yes"/>
      <point x="236" y="66"/>
      <point x="235" y="50"/>
      <point x="232" y="37" type="curve"/>
      <point x="230" y="32"/>
      <point x="205" y="21"/>
      <point x="196" y="21" type="curve" smooth="yes"/>
      <point x="194" y="21"/>
      <point x="193" y="18"/>
      <point x="193" y="11" type="curve" smooth="yes"/>
      <point x="193" y="4"/>
      <point x="194" y="-1"/>
      <point x="196" y="-3" type="curve"/>
      <point x="202" y="-2"/>
      <point x="258" y="3"/>
      <point x="279" y="3" type="curve" smooth="yes"/>
      <point x="299" y="3"/>
      <point x="361" y="-2"/>
      <point x="367" y="-3" type="curve"/>
      <point x="368" y="-1"/>
      <point x="369" y="3"/>
      <point x="369" y="7" type="curve" smooth="yes"/>
      <point x="369" y="14"/>
      <point x="367" y="21"/>
      <point x="366" y="21" type="curve" smooth="yes"/>
      <point x="359" y="21"/>
      <point x="328" y="32"/>
      <point x="326" y="37" type="curve" smooth="yes"/>
      <point x="322" y="48"/>
      <point x="322" y="67"/>
      <point x="322" y="95" type="curve" smooth="yes"/>
      <point x="322" y="152" type="line" smooth="yes"/>
      <point x="322" y="251"/>
      <point x="283" y="281"/>
      <point x="233" y="281" type="curve" smooth="yes"/>
      <point x="197" y="281"/>
      <point x="167" y="261"/>
      <point x="140" y="235" type="curve"/>
      <point x="140" y="361" type="line" smooth="yes"/>
      <point x="140" y="384"/>
      <point x="142" y="406"/>
      <point x="147" y="426" type="curve"/>
      <point x="147" y="430"/>
      <point x="142" y="436"/>
      <point x="138" y="437" type="curve"/>
      <point x="98" y="425"/>
      <point x="56" y="417"/>
      <point x="12" y="412" type="curve"/>
      <point x="10" y="412"/>
      <point x="8" y="408"/>
      <point x="8" y="401" type="curve" smooth="yes"/>
      <point x="8" y="391"/>
      <point x="10" y="387"/>
      <point x="12" y="387" type="curve" smooth="yes"/>
      <point x="18" y="387" type="line" smooth="yes"/>
      <point x="24" y="387"/>
      <point x="43" y="384"/>
      <point x="47" y="378" type="curve" smooth="yes"/>
      <point x="52" y="370"/>
      <point x="54" y="353"/>
      <point x="54" y="324" type="curve" smooth="yes"/>
      <point x="54" y="86" type="line" smooth="yes"/>
      <point x="54" y="66"/>
      <point x="52" y="50"/>
      <point x="49" y="37" type="curve"/>
      <point x="47" y="32"/>
      <point x="17" y="21"/>
      <point x="8" y="21" type="curve" smooth="yes"/>
      <point x="6" y="21"/>
      <point x="6" y="18"/>
      <point x="6" y="11" type="curve" smooth="yes"/>
      <point x="6" y="4"/>
      <point x="6" y="-1"/>
    </contour>
    <contour>
      <point x="187" y="0" type="move" name="bottom"/>
    </contour>
    <contour>
      <point x="187" y="207" type="move" name="center"/>
    </contour>
    <contour>
      <point x="125" y="333" type="move" name="stroke"/>
    </contour>
    <contour>
      <point x="187" y="413" type="move" name="top"/>
    </contour>
  </outline>
</glyph>
<glyph name="i" format="1">
  <advance width="196"/>
  <unicode hex="0069"/>
  <outline>
    <component base="dotaccentcomb.i" xOffset="4" yOffset="6"/>
    <component base="idotless"/>
    <contour>
      <point x="107" y="0" type="move" name="bottom"/>
    </contour>
  </outline>
</glyph>
<glyph name="j" format="1">
  <advance width="185"/>
  <unicode hex="006A"/>
  <outline>
    <contour>
      <point x="51" y="167" type="curve" smooth="yes"/>
      <point x="51" y="45" type="line" smooth="yes"/>
      <point x="51" y="-57"/>
      <point x="29" y="-99"/>
      <point x="-21" y="-121" type="curve"/>
      <point x="-21" y="-128"/>
      <point x="-16" y="-142"/>
      <point x="-10" y="-144" type="curve"/>
      <point x="108" y="-102"/>
      <point x="137" y="-55"/>
      <point x="137" y="64" type="curve" smooth="yes"/>
      <point x="137" y="174" type="line" smooth="yes"/>
      <point x="137" y="216"/>
      <point x="142" y="256"/>
      <point x="142" y="271" type="curve" smooth="yes"/>
      <point x="142" y="275"/>
      <point x="138" y="279"/>
      <point x="134" y="279" type="curve" smooth="yes"/>
      <point x="130" y="279"/>
      <point x="122" y="277"/>
      <point x="120" y="277" type="curve"/>
      <point x="97" y="270"/>
      <point x="40" y="257"/>
      <point x="10" y="254" type="curve"/>
      <point x="8" y="255"/>
      <point x="7" y="245"/>
      <point x="7" y="231" type="curve"/>
      <point x="19" y="229"/>
      <point x="31" y="224"/>
      <point x="39" y="216" type="curve" smooth="yes"/>
      <point x="47" y="208"/>
      <point x="51" y="192"/>
    </contour>
    <contour>
      <point x="94" y="347" type="curve" smooth="yes"/>
      <point x="121" y="347"/>
      <point x="142" y="367"/>
      <point x="142" y="395" type="curve" smooth="yes"/>
      <point x="142" y="423"/>
      <point x="121" y="443"/>
      <point x="94" y="443" type="curve" smooth="yes"/>
      <point x="66" y="443"/>
      <point x="45" y="423"/>
      <point x="45" y="395" type="curve" smooth="yes"/>
      <point x="45" y="367"/>
      <point x="66" y="347"/>
    </contour>
  </outline>
</glyph>
<glyph name="k" format="1">
  <advance width="364"/>
  <unicode hex="006B"/>
  <outline>
    <contour>
      <point x="7" y="-3" type="curve"/>
      <point x="15" y="-2"/>
      <point x="76" y="3"/>
      <point x="96" y="3" type="curve" smooth="yes"/>
      <point x="116" y="3"/>
      <point x="171" y="-2"/>
      <point x="176" y="-3" type="curve"/>
      <point x="177" y="-1"/>
      <point x="178" y="3"/>
      <point x="178" y="7" type="curve" smooth="yes"/>
      <point x="178" y="14"/>
      <point x="176" y="21"/>
      <point x="175" y="21" type="curve"/>
      <point x="168" y="22"/>
      <point x="145" y="33"/>
      <point x="144" y="37" type="curve" smooth="yes"/>
      <point x="141" y="49"/>
      <point x="139" y="68"/>
      <point x="140" y="95" type="curve"/>
      <point x="140" y="127" type="line"/>
      <point x="147" y="129" type="line"/>
      <point x="222" y="36" type="line"/>
      <point x="224" y="34"/>
      <point x="225" y="32"/>
      <point x="225" y="29" type="curve" smooth="yes"/>
      <point x="225" y="25"/>
      <point x="210" y="21"/>
      <point x="199" y="21" type="curve" smooth="yes"/>
      <point x="197" y="21"/>
      <point x="196" y="18"/>
      <point x="196" y="11" type="curve" smooth="yes"/>
      <point x="196" y="4"/>
      <point x="197" y="-1"/>
      <point x="198" y="-3" type="curve"/>
      <point x="232" y="-1"/>
      <point x="275" y="2"/>
      <point x="287" y="2" type="curve" smooth="yes"/>
      <point x="295" y="2"/>
      <point x="321" y="1"/>
      <point x="369" y="-2" type="curve"/>
      <point x="369" y="0"/>
      <point x="370" y="3"/>
      <point x="370" y="9" type="curve" smooth="yes"/>
      <point x="370" y="18"/>
      <point x="369" y="21"/>
      <point x="367" y="21" type="curve"/>
      <point x="344" y="24"/>
      <point x="330" y="34"/>
      <point x="316" y="51" type="curve" smooth="yes"/>
      <point x="215" y="172" type="line"/>
      <point x="195" y="147" type="line"/>
      <point x="262" y="209" type="line"/>
      <point x="285" y="232"/>
      <point x="313" y="246"/>
      <point x="340" y="246" type="curve" smooth="yes"/>
      <point x="342" y="246"/>
      <point x="343" y="252"/>
      <point x="343" y="257" type="curve" smooth="yes"/>
      <point x="343" y="263"/>
      <point x="341" y="270"/>
      <point x="340" y="272" type="curve"/>
      <point x="320" y="271"/>
      <point x="301" y="270"/>
      <point x="275" y="270" type="curve" smooth="yes"/>
      <point x="257" y="270"/>
      <point x="232" y="270"/>
      <point x="200" y="271" type="curve"/>
      <point x="198" y="270"/>
      <point x="198" y="267"/>
      <point x="198" y="261" type="curve" smooth="yes"/>
      <point x="198" y="255"/>
      <point x="198" y="250"/>
      <point x="199" y="247" type="curve"/>
      <point x="225" y="245"/>
      <point x="228" y="242"/>
      <point x="228" y="237" type="curve" smooth="yes"/>
      <point x="228" y="230"/>
      <point x="224" y="225"/>
      <point x="218" y="219" type="curve" smooth="yes"/>
      <point x="162" y="165" type="line" smooth="yes"/>
      <point x="159" y="162"/>
      <point x="151" y="160"/>
      <point x="140" y="156" type="curve"/>
      <point x="140" y="361" type="line" smooth="yes"/>
      <point x="140" y="384"/>
      <point x="142" y="406"/>
      <point x="147" y="426" type="curve"/>
      <point x="147" y="430"/>
      <point x="142" y="436"/>
      <point x="138" y="437" type="curve"/>
      <point x="98" y="425"/>
      <point x="56" y="417"/>
      <point x="12" y="412" type="curve"/>
      <point x="10" y="412"/>
      <point x="8" y="408"/>
      <point x="8" y="401" type="curve" smooth="yes"/>
      <point x="8" y="391"/>
      <point x="10" y="387"/>
      <point x="12" y="387" type="curve" smooth="yes"/>
      <point x="18" y="387" type="line" smooth="yes"/>
      <point x="24" y="387"/>
      <point x="42" y="384"/>
      <point x="46" y="379" type="curve" smooth="yes"/>
      <point x="52" y="372"/>
      <point x="54" y="353"/>
      <point x="54" y="324" type="curve" smooth="yes"/>
      <point x="54" y="86" type="line" smooth="yes"/>
      <point x="54" y="66"/>
      <point x="52" y="50"/>
      <point x="49" y="37" type="curve"/>
      <point x="47" y="32"/>
      <point x="17" y="21"/>
      <point x="8" y="21" type="curve" smooth="yes"/>
      <point x="6" y="21"/>
      <point x="6" y="18"/>
      <point x="6" y="11" type="curve" smooth="yes"/>
      <point x="6" y="4"/>
      <point x="6" y="-1"/>
    </contour>
    <contour>
      <point x="197" y="0" type="move" name="bottom"/>
    </contour>
    <contour>
      <point x="197" y="413" type="move" name="top"/>
    </contour>
  </outline>
</glyph>
<glyph name="l" format="1">
  <advance width="189"/>
  <unicode hex="006C"/>
  <outline>
    <contour>
      <point x="8" y="-3" type="curve"/>
      <point x="29" y="-1"/>
      <point x="76" y="3"/>
      <point x="96" y="3" type="curve" smooth="yes"/>
      <point x="116" y="3"/>
      <point x="164" y="-1"/>
      <point x="186" y="-3" type="curve"/>
      <point x="186" y="-1"/>
      <point x="187" y="3"/>
      <point x="187" y="7" type="curve" smooth="yes"/>
      <point x="187" y="14"/>
      <point x="186" y="21"/>
      <point x="184" y="21" type="curve" smooth="yes"/>
      <point x="177" y="21"/>
      <point x="146" y="32"/>
      <point x="145" y="37" type="curve"/>
      <point x="142" y="49"/>
      <point x="140" y="67"/>
      <point x="140" y="95" type="curve" smooth="yes"/>
      <point x="140" y="361" type="line" smooth="yes"/>
      <point x="140" y="384"/>
      <point x="142" y="406"/>
      <point x="147" y="426" type="curve"/>
      <point x="147" y="430"/>
      <point x="142" y="436"/>
      <point x="138" y="437" type="curve"/>
      <point x="98" y="425"/>
      <point x="56" y="417"/>
      <point x="12" y="412" type="curve"/>
      <point x="10" y="412"/>
      <point x="8" y="408"/>
      <point x="8" y="401" type="curve" smooth="yes"/>
      <point x="8" y="391"/>
      <point x="10" y="387"/>
      <point x="12" y="387" type="curve" smooth="yes"/>
      <point x="18" y="387" type="line" smooth="yes"/>
      <point x="24" y="387"/>
      <point x="43" y="384"/>
      <point x="47" y="378" type="curve" smooth="yes"/>
      <point x="52" y="370"/>
      <point x="54" y="353"/>
      <point x="54" y="324" type="curve" smooth="yes"/>
      <point x="54" y="86" type="line" smooth="yes"/>
      <point x="54" y="66"/>
      <point x="52" y="50"/>
      <point x="49" y="37" type="curve"/>
      <point x="47" y="32"/>
      <point x="17" y="21"/>
      <point x="8" y="21" type="curve" smooth="yes"/>
      <point x="6" y="21"/>
      <point x="6" y="18"/>
      <point x="6" y="11" type="curve" smooth="yes"/>
      <point x="6" y="4"/>
      <point x="6" y="-1"/>
    </contour>
    <contour>
      <point x="97" y="0" type="move" name="bottom"/>
    </contour>
    <contour>
      <point x="97" y="207" type="move" name="center"/>
    </contour>
    <contour>
      <point x="207" y="207" type="move" name="dotacc"/>
    </contour>
    <contour>
      <point x="97" y="413" type="move" name="top"/>
    </contour>
    <contour>
      <point x="158" y="276" type="move" name="topright"/>
    </contour>
  </outline>
</glyph>
<glyph name="m" format="1">
  <advance width="545"/>
  <unicode hex="006D"/>
  <outline>
    <contour>
      <point x="10" y="-3" type="curve"/>
      <point x="16" y="-2"/>
      <point x="77" y="3"/>
      <point x="98" y="3" type="curve" smooth="yes"/>
      <point x="119" y="3"/>
      <point x="171" y="-2"/>
      <point x="178" y="-3" type="curve"/>
      <point x="178" y="-1"/>
      <point x="179" y="3"/>
      <point x="179" y="7" type="curve" smooth="yes"/>
      <point x="179" y="14"/>
      <point x="178" y="21"/>
      <point x="176" y="21" type="curve"/>
      <point x="168" y="23"/>
      <point x="147" y="33"/>
      <point x="146" y="37" type="curve"/>
      <point x="143" y="46"/>
      <point x="142" y="62"/>
      <point x="142" y="95" type="curve" smooth="yes"/>
      <point x="142" y="184" type="line" smooth="yes"/>
      <point x="142" y="208"/>
      <point x="163" y="225"/>
      <point x="187" y="225" type="curve" smooth="yes"/>
      <point x="211" y="225"/>
      <point x="233" y="209"/>
      <point x="233" y="156" type="curve" smooth="yes"/>
      <point x="233" y="86" type="line" smooth="yes"/>
      <point x="233" y="64"/>
      <point x="232" y="49"/>
      <point x="228" y="37" type="curve"/>
      <point x="226" y="32"/>
      <point x="206" y="23"/>
      <point x="196" y="21" type="curve"/>
      <point x="194" y="21"/>
      <point x="194" y="19"/>
      <point x="194" y="11" type="curve" smooth="yes"/>
      <point x="194" y="3"/>
      <point x="194" y="-1"/>
      <point x="196" y="-3" type="curve"/>
      <point x="203" y="-2"/>
      <point x="255" y="3"/>
      <point x="276" y="3" type="curve" smooth="yes"/>
      <point x="296" y="3"/>
      <point x="349" y="-2"/>
      <point x="355" y="-3" type="curve"/>
      <point x="356" y="-1"/>
      <point x="356" y="4"/>
      <point x="356" y="7" type="curve" smooth="yes"/>
      <point x="356" y="14"/>
      <point x="355" y="21"/>
      <point x="354" y="21" type="curve"/>
      <point x="344" y="23"/>
      <point x="324" y="33"/>
      <point x="323" y="37" type="curve" smooth="yes"/>
      <point x="321" y="46"/>
      <point x="319" y="62"/>
      <point x="319" y="95" type="curve" smooth="yes"/>
      <point x="319" y="156" type="line" smooth="yes"/>
      <point x="319" y="253"/>
      <point x="280" y="281"/>
      <point x="232" y="281" type="curve" smooth="yes"/>
      <point x="199" y="281"/>
      <point x="169" y="261"/>
      <point x="141" y="235" type="curve"/>
      <point x="142" y="252"/>
      <point x="145" y="264"/>
      <point x="145" y="272" type="curve" smooth="yes"/>
      <point x="145" y="276"/>
      <point x="142" y="279"/>
      <point x="138" y="279" type="curve" smooth="yes"/>
      <point x="133" y="279"/>
      <point x="128" y="278"/>
      <point x="124" y="277" type="curve"/>
      <point x="101" y="270"/>
      <point x="45" y="254"/>
      <point x="15" y="254" type="curve"/>
      <point x="13" y="255"/>
      <point x="12" y="245"/>
      <point x="12" y="231" type="curve"/>
      <point x="24" y="229"/>
      <point x="36" y="224"/>
      <point x="44" y="216" type="curve" smooth="yes"/>
      <point x="52" y="208"/>
      <point x="56" y="192"/>
      <point x="56" y="167" type="curve" smooth="yes"/>
      <point x="56" y="86" type="line" smooth="yes"/>
      <point x="56" y="64"/>
      <point x="54" y="49"/>
      <point x="51" y="37" type="curve"/>
      <point x="49" y="32"/>
      <point x="21" y="21"/>
      <point x="10" y="21" type="curve" smooth="yes"/>
      <point x="8" y="21"/>
      <point x="7" y="19"/>
      <point x="7" y="11" type="curve" smooth="yes"/>
      <point x="7" y="3"/>
      <point x="8" y="-1"/>
    </contour>
    <contour>
      <point x="374" y="-3" type="curve"/>
      <point x="380" y="-2"/>
      <point x="431" y="3"/>
      <point x="452" y="3" type="curve" smooth="yes"/>
      <point x="472" y="3"/>
      <point x="531" y="-2"/>
      <point x="537" y="-3" type="curve"/>
      <point x="538" y="7" type="line"/>
      <point x="538" y="14"/>
      <point x="537" y="21"/>
      <point x="535" y="21" type="curve" smooth="yes"/>
      <point x="526" y="21"/>
      <point x="500" y="33"/>
      <point x="499" y="37" type="curve" smooth="yes"/>
      <point x="497" y="46"/>
      <point x="495" y="62"/>
      <point x="495" y="95" type="curve" smooth="yes"/>
      <point x="495" y="156" type="line" smooth="yes"/>
      <point x="495" y="253"/>
      <point x="456" y="281"/>
      <point x="409" y="281" type="curve" smooth="yes"/>
      <point x="369" y="281"/>
      <point x="333" y="257"/>
      <point x="300" y="226" type="curve"/>
      <point x="314" y="185" type="line"/>
      <point x="314" y="207"/>
      <point x="336" y="225"/>
      <point x="361" y="225" type="curve" smooth="yes"/>
      <point x="387" y="225"/>
      <point x="409" y="209"/>
      <point x="409" y="156" type="curve" smooth="yes"/>
      <point x="409" y="86" type="line" smooth="yes"/>
      <point x="409" y="64"/>
      <point x="408" y="49"/>
      <point x="405" y="37" type="curve"/>
      <point x="403" y="32"/>
      <point x="383" y="21"/>
      <point x="374" y="21" type="curve" smooth="yes"/>
      <point x="372" y="21"/>
      <point x="371" y="19"/>
      <point x="371" y="11" type="curve" smooth="yes"/>
      <point x="371" y="3"/>
      <point x="372" y="-1"/>
    </contour>
    <contour>
      <point x="273" y="0" type="move" name="bottom"/>
    </contour>
    <contour>
      <point x="273" y="276" type="move" name="top"/>
    </contour>
  </outline>
</glyph>
<glyph name="n" format="1">
  <advance width="376"/>
  <unicode hex="006E"/>
  <outline>
    <contour>
      <point x="10" y="-3" type="curve"/>
      <point x="15" y="-2"/>
      <point x="76" y="3"/>
      <point x="98" y="3" type="curve" smooth="yes"/>
      <point x="118" y="3"/>
      <point x="174" y="-2"/>
      <point x="181" y="-3" type="curve"/>
      <point x="181" y="-1"/>
      <point x="182" y="3"/>
      <point x="182" y="7" type="curve" smooth="yes"/>
      <point x="182" y="14"/>
      <point x="181" y="21"/>
      <point x="179" y="21" type="curve" smooth="yes"/>
      <point x="171" y="21"/>
      <point x="146" y="33"/>
      <point x="145" y="37" type="curve" smooth="yes"/>
      <point x="143" y="46"/>
      <point x="141" y="62"/>
      <point x="141" y="95" type="curve" smooth="yes"/>
      <point x="141" y="183" type="line" smooth="yes"/>
      <point x="141" y="208"/>
      <point x="163" y="225"/>
      <point x="189" y="225" type="curve" smooth="yes"/>
      <point x="216" y="225"/>
      <point x="237" y="207"/>
      <point x="237" y="152" type="curve" smooth="yes"/>
      <point x="237" y="86" type="line" smooth="yes"/>
      <point x="237" y="64"/>
      <point x="236" y="49"/>
      <point x="233" y="37" type="curve"/>
      <point x="231" y="32"/>
      <point x="207" y="21"/>
      <point x="197" y="21" type="curve" smooth="yes"/>
      <point x="195" y="21"/>
      <point x="195" y="19"/>
      <point x="195" y="11" type="curve" smooth="yes"/>
      <point x="195" y="3"/>
      <point x="195" y="-1"/>
      <point x="197" y="-3" type="curve"/>
      <point x="204" y="-2"/>
      <point x="259" y="3"/>
      <point x="280" y="3" type="curve" smooth="yes"/>
      <point x="300" y="3"/>
      <point x="363" y="-2"/>
      <point x="369" y="-3" type="curve"/>
      <point x="370" y="7" type="line"/>
      <point x="370" y="14"/>
      <point x="369" y="21"/>
      <point x="367" y="21" type="curve" smooth="yes"/>
      <point x="358" y="21"/>
      <point x="329" y="33"/>
      <point x="328" y="37" type="curve"/>
      <point x="325" y="46"/>
      <point x="323" y="62"/>
      <point x="323" y="95" type="curve" smooth="yes"/>
      <point x="323" y="152" type="line" smooth="yes"/>
      <point x="323" y="251"/>
      <point x="284" y="281"/>
      <point x="234" y="281" type="curve" smooth="yes"/>
      <point x="198" y="281"/>
      <point x="168" y="261"/>
      <point x="140" y="235" type="curve"/>
      <point x="141" y="252"/>
      <point x="144" y="264"/>
      <point x="144" y="272" type="curve" smooth="yes"/>
      <point x="144" y="276"/>
      <point x="141" y="279"/>
      <point x="137" y="279" type="curve" smooth="yes"/>
      <point x="133" y="279"/>
      <point x="128" y="278"/>
      <point x="123" y="277" type="curve"/>
      <point x="100" y="270"/>
      <point x="44" y="254"/>
      <point x="14" y="254" type="curve"/>
      <point x="12" y="255"/>
      <point x="11" y="245"/>
      <point x="11" y="231" type="curve"/>
      <point x="23" y="229"/>
      <point x="36" y="224"/>
      <point x="43" y="216" type="curve"/>
      <point x="51" y="208"/>
      <point x="55" y="192"/>
      <point x="55" y="167" type="curve" smooth="yes"/>
      <point x="55" y="86" type="line" smooth="yes"/>
      <point x="55" y="64"/>
      <point x="54" y="49"/>
      <point x="51" y="37" type="curve"/>
      <point x="49" y="32"/>
      <point x="20" y="21"/>
      <point x="9" y="21" type="curve" smooth="yes"/>
      <point x="7" y="21"/>
      <point x="7" y="19"/>
      <point x="7" y="11" type="curve" smooth="yes"/>
      <point x="7" y="3"/>
      <point x="7" y="-1"/>
    </contour>
    <contour>
      <point x="188" y="0" type="move" name="bottom"/>
    </contour>
    <contour>
      <point x="188" y="276" type="move" name="top"/>
    </contour>
  </outline>
</glyph>
<glyph name="o" format="1">
  <advance width="329"/>
  <unicode hex="006F"/>
  <outline>
    <contour>
      <point x="166" y="-4" type="curve" smooth="yes"/>
      <point x="250" y="-4"/>
      <point x="313" y="56"/>
      <point x="313" y="139" type="curve" smooth="yes"/>
      <point x="313" y="217"/>
      <point x="246" y="282"/>
      <point x="162" y="282" type="curve" smooth="yes"/>
      <point x="79" y="282"/>
      <point x="15" y="220"/>
      <point x="15" y="139" type="curve" smooth="yes"/>
      <point x="15" y="56"/>
      <point x="78" y="-4"/>
    </contour>
    <contour>
      <point x="176" y="32" type="curve" smooth="yes"/>
      <point x="139" y="32"/>
      <point x="109" y="89"/>
      <point x="109" y="151" type="curve" smooth="yes"/>
      <point x="109" y="215"/>
      <point x="124" y="245"/>
      <point x="153" y="245" type="curve" smooth="yes"/>
      <point x="187" y="245"/>
      <point x="220" y="190"/>
      <point x="220" y="129" type="curve" smooth="yes"/>
      <point x="220" y="65"/>
      <point x="205" y="32"/>
    </contour>
    <contour>
      <point x="165" y="0" type="move" name="bottom"/>
    </contour>
    <contour>
      <point x="165" y="136" type="move" name="center"/>
    </contour>
    <contour>
      <point x="297" y="6" type="move" name="ogonek"/>
    </contour>
    <contour>
      <point x="165" y="276" type="move" name="top"/>
    </contour>
    <contour>
      <point x="317" y="271" type="move" name="topright"/>
    </contour>
  </outline>
</glyph>
<glyph name="p" format="1">
  <advance width="355"/>
  <unicode hex="0070"/>
  <outline>
    <contour>
      <point x="8" y="-136" type="curve"/>
      <point x="22" y="-135"/>
      <point x="69" y="-131"/>
      <point x="97" y="-131" type="curve" smooth="yes"/>
      <point x="124" y="-131"/>
      <point x="171" y="-135"/>
      <point x="185" y="-136" type="curve"/>
      <point x="186" y="-135"/>
      <point x="186" y="-131"/>
      <point x="186" y="-126" type="curve" smooth="yes"/>
      <point x="186" y="-119"/>
      <point x="185" y="-112"/>
      <point x="184" y="-112" type="curve" smooth="yes"/>
      <point x="176" y="-112"/>
      <point x="146" y="-102"/>
      <point x="144" y="-96" type="curve" smooth="yes"/>
      <point x="140" y="-85"/>
      <point x="140" y="-66"/>
      <point x="140" y="-39" type="curve" smooth="yes"/>
      <point x="140" y="3" type="line"/>
      <point x="150" y="-2"/>
      <point x="178" y="-5"/>
      <point x="189" y="-5" type="curve" smooth="yes"/>
      <point x="266" y="-5"/>
      <point x="340" y="66"/>
      <point x="340" y="141" type="curve" smooth="yes"/>
      <point x="340" y="221"/>
      <point x="278" y="281"/>
      <point x="204" y="281" type="curve" smooth="yes"/>
      <point x="186" y="281"/>
      <point x="166" y="277"/>
      <point x="140" y="249" type="curve"/>
      <point x="140" y="262"/>
      <point x="142" y="269"/>
      <point x="142" y="272" type="curve" smooth="yes"/>
      <point x="142" y="278"/>
      <point x="140" y="279"/>
      <point x="137" y="279" type="curve" smooth="yes"/>
      <point x="132" y="279"/>
      <point x="127" y="278"/>
      <point x="122" y="277" type="curve"/>
      <point x="99" y="270"/>
      <point x="43" y="254"/>
      <point x="13" y="254" type="curve"/>
      <point x="11" y="255"/>
      <point x="10" y="245"/>
      <point x="10" y="231" type="curve"/>
      <point x="22" y="229"/>
      <point x="34" y="224"/>
      <point x="42" y="216" type="curve" smooth="yes"/>
      <point x="50" y="208"/>
      <point x="54" y="192"/>
      <point x="54" y="167" type="curve" smooth="yes"/>
      <point x="54" y="-48" type="line" smooth="yes"/>
      <point x="54" y="-68"/>
      <point x="52" y="-84"/>
      <point x="49" y="-96" type="curve"/>
      <point x="47" y="-102"/>
      <point x="18" y="-112"/>
      <point x="8" y="-112" type="curve" smooth="yes"/>
      <point x="6" y="-112"/>
      <point x="6" y="-116"/>
      <point x="6" y="-123" type="curve" smooth="yes"/>
      <point x="6" y="-131"/>
      <point x="6" y="-134"/>
    </contour>
    <contour>
      <point x="186" y="30" type="curve" smooth="yes"/>
      <point x="160" y="30"/>
      <point x="140" y="50"/>
      <point x="140" y="76" type="curve" smooth="yes"/>
      <point x="140" y="194" type="line" smooth="yes"/>
      <point x="140" y="220"/>
      <point x="156" y="234"/>
      <point x="174" y="234" type="curve" smooth="yes"/>
      <point x="213" y="234"/>
      <point x="245" y="185"/>
      <point x="245" y="120" type="curve" smooth="yes"/>
      <point x="245" y="56"/>
      <point x="223" y="30"/>
    </contour>
    <contour>
      <point x="178" y="0" type="move" name="bottom"/>
    </contour>
    <contour>
      <point x="178" y="276" type="move" name="top"/>
    </contour>
  </outline>
</glyph>
<glyph name="q" format="1">
  <advance width="349"/>
  <unicode hex="0071"/>
  <outline>
    <contour>
      <point x="169" y="-136" type="curve"/>
      <point x="183" y="-135"/>
      <point x="230" y="-131"/>
      <point x="257" y="-131" type="curve" smooth="yes"/>
      <point x="285" y="-131"/>
      <point x="332" y="-135"/>
      <point x="346" y="-136" type="curve"/>
      <point x="347" y="-135"/>
      <point x="347" y="-131"/>
      <point x="347" y="-126" type="curve" smooth="yes"/>
      <point x="347" y="-119"/>
      <point x="346" y="-112"/>
      <point x="345" y="-112" type="curve" smooth="yes"/>
      <point x="337" y="-112"/>
      <point x="307" y="-102"/>
      <point x="305" y="-96" type="curve" smooth="yes"/>
      <point x="301" y="-85"/>
      <point x="301" y="-66"/>
      <point x="301" y="-39" type="curve" smooth="yes"/>
      <point x="301" y="196" type="line" smooth="yes"/>
      <point x="301" y="220"/>
      <point x="306" y="264"/>
      <point x="305" y="266" type="curve" smooth="yes"/>
      <point x="301" y="274"/>
      <point x="291" y="282"/>
      <point x="284" y="282" type="curve"/>
      <point x="273" y="277"/>
      <point x="258" y="270"/>
      <point x="246" y="270" type="curve" smooth="yes"/>
      <point x="226" y="270"/>
      <point x="208" y="281"/>
      <point x="169" y="281" type="curve" smooth="yes"/>
      <point x="86" y="281"/>
      <point x="15" y="209"/>
      <point x="15" y="127" type="curve" smooth="yes"/>
      <point x="15" y="56"/>
      <point x="71" y="-4"/>
      <point x="135" y="-4" type="curve" smooth="yes"/>
      <point x="158" y="-4"/>
      <point x="187" y="8"/>
      <point x="215" y="29" type="curve"/>
      <point x="215" y="-48" type="line" smooth="yes"/>
      <point x="215" y="-68"/>
      <point x="213" y="-84"/>
      <point x="210" y="-96" type="curve"/>
      <point x="208" y="-102"/>
      <point x="178" y="-112"/>
      <point x="169" y="-112" type="curve" smooth="yes"/>
      <point x="167" y="-112"/>
      <point x="167" y="-116"/>
      <point x="167" y="-123" type="curve" smooth="yes"/>
      <point x="167" y="-131"/>
      <point x="167" y="-134"/>
    </contour>
    <contour>
      <point x="182" y="49" type="curve" smooth="yes"/>
      <point x="138" y="49"/>
      <point x="109" y="94"/>
      <point x="109" y="151" type="curve" smooth="yes"/>
      <point x="109" y="207"/>
      <point x="135" y="244"/>
      <point x="170" y="244" type="curve" smooth="yes"/>
      <point x="194" y="244"/>
      <point x="215" y="229"/>
      <point x="215" y="210" type="curve" smooth="yes"/>
      <point x="215" y="84" type="line" smooth="yes"/>
      <point x="215" y="65"/>
      <point x="200" y="49"/>
    </contour>
    <contour>
      <point x="162" y="0" type="move" name="bottom"/>
    </contour>
    <contour>
      <point x="162" y="276" type="move" name="top"/>
    </contour>
  </outline>
</glyph>
<glyph name="r" format="1">
  <advance width="271"/>
  <unicode hex="0072"/>
  <outline>
    <contour>
      <point x="9" y="-3" type="curve"/>
      <point x="34" y="-1"/>
      <point x="73" y="3"/>
      <point x="98" y="3" type="curve" smooth="yes"/>
      <point x="123" y="3"/>
      <point x="177" y="-2"/>
      <point x="184" y="-3" type="curve"/>
      <point x="185" y="-1"/>
      <point x="186" y="3"/>
      <point x="186" y="7" type="curve" smooth="yes"/>
      <point x="186" y="14"/>
      <point x="185" y="21"/>
      <point x="183" y="21" type="curve" smooth="yes"/>
      <point x="173" y="21"/>
      <point x="146" y="32"/>
      <point x="145" y="37" type="curve"/>
      <point x="142" y="49"/>
      <point x="141" y="68"/>
      <point x="141" y="94" type="curve" smooth="yes"/>
      <point x="141" y="140" type="line" smooth="yes"/>
      <point x="141" y="190"/>
      <point x="154" y="221"/>
      <point x="176" y="221" type="curve" smooth="yes"/>
      <point x="200" y="221"/>
      <point x="212" y="191"/>
      <point x="232" y="191" type="curve" smooth="yes"/>
      <point x="256" y="191"/>
      <point x="270" y="209"/>
      <point x="270" y="237" type="curve" smooth="yes"/>
      <point x="270" y="265"/>
      <point x="253" y="282"/>
      <point x="221" y="282" type="curve" smooth="yes"/>
      <point x="190" y="282"/>
      <point x="162" y="264"/>
      <point x="140" y="229" type="curve"/>
      <point x="140" y="246"/>
      <point x="144" y="265"/>
      <point x="144" y="272" type="curve" smooth="yes"/>
      <point x="144" y="276"/>
      <point x="141" y="279"/>
      <point x="137" y="279" type="curve" smooth="yes"/>
      <point x="134" y="279"/>
      <point x="129" y="278"/>
      <point x="123" y="277" type="curve"/>
      <point x="102" y="270"/>
      <point x="46" y="254"/>
      <point x="14" y="254" type="curve"/>
      <point x="12" y="255"/>
      <point x="11" y="245"/>
      <point x="11" y="231" type="curve"/>
      <point x="24" y="229"/>
      <point x="36" y="224"/>
      <point x="43" y="216" type="curve"/>
      <point x="51" y="208"/>
      <point x="55" y="192"/>
      <point x="55" y="167" type="curve" smooth="yes"/>
      <point x="55" y="86" type="line" smooth="yes"/>
      <point x="55" y="66"/>
      <point x="54" y="50"/>
      <point x="51" y="37" type="curve"/>
      <point x="49" y="32"/>
      <point x="21" y="21"/>
      <point x="9" y="21" type="curve" smooth="yes"/>
      <point x="7" y="21"/>
      <point x="7" y="18"/>
      <point x="7" y="11" type="curve" smooth="yes"/>
      <point x="7" y="4"/>
      <point x="7" y="-1"/>
    </contour>
    <contour>
      <point x="98" y="0" type="move" name="bottom"/>
    </contour>
    <contour>
      <point x="140" y="276" type="move" name="top"/>
    </contour>
  </outline>
</glyph>
<glyph name="s" format="1">
  <advance width="250"/>
  <unicode hex="0073"/>
  <outline>
    <contour>
      <point x="121" y="-6" type="curve" smooth="yes"/>
      <point x="193" y="-6"/>
      <point x="237" y="46"/>
      <point x="237" y="85" type="curve" smooth="yes"/>
      <point x="237" y="117"/>
      <point x="210" y="145"/>
      <point x="150" y="175" type="curve" smooth="yes"/>
      <point x="115" y="192"/>
      <point x="103" y="203"/>
      <point x="103" y="220" type="curve" smooth="yes"/>
      <point x="103" y="237"/>
      <point x="117" y="247"/>
      <point x="138" y="247" type="curve" smooth="yes"/>
      <point x="169" y="247"/>
      <point x="186" y="229"/>
      <point x="195" y="189" type="curve"/>
      <point x="195" y="186"/>
      <point x="203" y="184"/>
      <point x="210" y="184" type="curve" smooth="yes"/>
      <point x="222" y="184"/>
      <point x="225" y="186"/>
      <point x="225" y="190" type="curve" smooth="yes"/>
      <point x="225" y="224"/>
      <point x="223" y="250"/>
      <point x="219" y="270" type="curve"/>
      <point x="195" y="278"/>
      <point x="173" y="283"/>
      <point x="149" y="283" type="curve" smooth="yes"/>
      <point x="79" y="283"/>
      <point x="25" y="244"/>
      <point x="25" y="193" type="curve" smooth="yes"/>
      <point x="25" y="157"/>
      <point x="44" y="130"/>
      <point x="95" y="108" type="curve" smooth="yes"/>
      <point x="148" y="85"/>
      <point x="159" y="70"/>
      <point x="159" y="58" type="curve" smooth="yes"/>
      <point x="159" y="40"/>
      <point x="145" y="30"/>
      <point x="124" y="30" type="curve" smooth="yes"/>
      <point x="82" y="30"/>
      <point x="61" y="49"/>
      <point x="53" y="93" type="curve"/>
      <point x="53" y="97"/>
      <point x="45" y="99"/>
      <point x="35" y="99" type="curve" smooth="yes"/>
      <point x="27" y="99"/>
      <point x="23" y="98"/>
      <point x="22" y="96" type="curve"/>
      <point x="22" y="74"/>
      <point x="24" y="49"/>
      <point x="27" y="11" type="curve"/>
      <point x="48" y="6"/>
      <point x="87" y="-6"/>
    </contour>
    <contour>
      <point x="130" y="0" type="move" name="bottom"/>
    </contour>
    <contour>
      <point x="130" y="276" type="move" name="top"/>
    </contour>
  </outline>
</glyph>
<glyph name="t" format="1">
  <advance width="227"/>
  <unicode hex="0074"/>
  <outline>
    <contour>
      <point x="136" y="-4" type="curve" smooth="yes"/>
      <point x="169" y="-4"/>
      <point x="203" y="15"/>
      <point x="218" y="31" type="curve"/>
      <point x="218" y="36"/>
      <point x="213" y="50"/>
      <point x="209" y="55" type="curve"/>
      <point x="208" y="53"/>
      <point x="187" y="45"/>
      <point x="174" y="45" type="curve" smooth="yes"/>
      <point x="148" y="45"/>
      <point x="134" y="69"/>
      <point x="134" y="105" type="curve" smooth="yes"/>
      <point x="134" y="232" type="line"/>
      <point x="213" y="232" type="line"/>
      <point x="217" y="240"/>
      <point x="219" y="251"/>
      <point x="219" y="264" type="curve" smooth="yes"/>
      <point x="219" y="268"/>
      <point x="217" y="270"/>
      <point x="214" y="270" type="curve" smooth="yes"/>
      <point x="134" y="270" type="line"/>
      <point x="134" y="331" type="line"/>
      <point x="131" y="335"/>
      <point x="116" y="343"/>
      <point x="110" y="343" type="curve"/>
      <point x="79" y="314"/>
      <point x="48" y="282"/>
      <point x="3" y="260" type="curve"/>
      <point x="2" y="258"/>
      <point x="1" y="256"/>
      <point x="1" y="252" type="curve" smooth="yes"/>
      <point x="1" y="239"/>
      <point x="3" y="232"/>
      <point x="7" y="232" type="curve" smooth="yes"/>
      <point x="48" y="232" type="line"/>
      <point x="48" y="76" type="line" smooth="yes"/>
      <point x="48" y="30"/>
      <point x="78" y="-4"/>
    </contour>
    <contour>
      <point x="133" y="0" type="move" name="bottom"/>
    </contour>
    <contour>
      <point x="107" y="169" type="move" name="center"/>
    </contour>
    <contour>
      <point x="91" y="321" type="move" name="top"/>
    </contour>
    <contour>
      <point x="152" y="276" type="move" name="topright"/>
    </contour>
  </outline>
</glyph>
<glyph name="u" format="1">
  <advance width="370"/>
  <unicode hex="0075"/>
  <outline>
    <contour>
      <point x="138" y="-4" type="curve" smooth="yes"/>
      <point x="173" y="-4"/>
      <point x="203" y="15"/>
      <point x="231" y="41" type="curve"/>
      <point x="230" y="24"/>
      <point x="227" y="13"/>
      <point x="227" y="4" type="curve" smooth="yes"/>
      <point x="227" y="0"/>
      <point x="230" y="-3"/>
      <point x="234" y="-3" type="curve" smooth="yes"/>
      <point x="239" y="-3"/>
      <point x="244" y="-1"/>
      <point x="248" y="0" type="curve" smooth="yes"/>
      <point x="271" y="6"/>
      <point x="327" y="23"/>
      <point x="357" y="22" type="curve" smooth="yes"/>
      <point x="359" y="22"/>
      <point x="360" y="31"/>
      <point x="360" y="45" type="curve"/>
      <point x="348" y="48"/>
      <point x="336" y="52"/>
      <point x="328" y="60" type="curve"/>
      <point x="320" y="69"/>
      <point x="317" y="85"/>
      <point x="317" y="109" type="curve" smooth="yes"/>
      <point x="317" y="174" type="line" smooth="yes"/>
      <point x="317" y="216"/>
      <point x="322" y="256"/>
      <point x="322" y="271" type="curve" smooth="yes"/>
      <point x="322" y="275"/>
      <point x="318" y="279"/>
      <point x="314" y="279" type="curve" smooth="yes"/>
      <point x="310" y="279"/>
      <point x="305" y="278"/>
      <point x="300" y="277" type="curve"/>
      <point x="277" y="270"/>
      <point x="220" y="254"/>
      <point x="190" y="254" type="curve"/>
      <point x="188" y="255"/>
      <point x="187" y="245"/>
      <point x="187" y="231" type="curve"/>
      <point x="199" y="229"/>
      <point x="211" y="224"/>
      <point x="219" y="216" type="curve" smooth="yes"/>
      <point x="227" y="208"/>
      <point x="231" y="192"/>
      <point x="231" y="167" type="curve" smooth="yes"/>
      <point x="231" y="94" type="line" smooth="yes"/>
      <point x="231" y="68"/>
      <point x="209" y="52"/>
      <point x="182" y="52" type="curve" smooth="yes"/>
      <point x="157" y="52"/>
      <point x="137" y="70"/>
      <point x="137" y="111" type="curve" smooth="yes"/>
      <point x="137" y="174" type="line" smooth="yes"/>
      <point x="137" y="216"/>
      <point x="143" y="256"/>
      <point x="143" y="271" type="curve" smooth="yes"/>
      <point x="143" y="275"/>
      <point x="138" y="279"/>
      <point x="134" y="279" type="curve" smooth="yes"/>
      <point x="130" y="279"/>
      <point x="125" y="278"/>
      <point x="120" y="277" type="curve"/>
      <point x="98" y="270"/>
      <point x="40" y="257"/>
      <point x="10" y="254" type="curve"/>
      <point x="8" y="255"/>
      <point x="7" y="245"/>
      <point x="7" y="231" type="curve"/>
      <point x="19" y="229"/>
      <point x="31" y="224"/>
      <point x="39" y="216" type="curve" smooth="yes"/>
      <point x="47" y="208"/>
      <point x="51" y="192"/>
      <point x="51" y="167" type="curve" smooth="yes"/>
      <point x="51" y="111" type="line" smooth="yes"/>
      <point x="51" y="26"/>
      <point x="88" y="-4"/>
    </contour>
    <contour>
      <point x="183" y="0" type="move" name="bottom"/>
    </contour>
    <contour>
      <point x="347" y="6" type="move" name="ogonek"/>
    </contour>
    <contour>
      <point x="183" y="276" type="move" name="top"/>
    </contour>
    <contour>
      <point x="365" y="271" type="move" name="topright"/>
    </contour>
  </outline>
</glyph>
<glyph name="v" format="1">
  <advance width="328"/>
  <unicode hex="0076"/>
  <outline>
    <contour>
      <point x="158" y="-7" type="curve" smooth="yes"/>
      <point x="164" y="-7"/>
      <point x="170" y="0"/>
      <point x="177" y="12" type="curve"/>
      <point x="289" y="229" type="line" smooth="yes"/>
      <point x="296" y="242"/>
      <point x="310" y="251"/>
      <point x="339" y="255" type="curve"/>
      <point x="341" y="255"/>
      <point x="342" y="259"/>
      <point x="342" y="268" type="curve" smooth="yes"/>
      <point x="342" y="274"/>
      <point x="341" y="277"/>
      <point x="339" y="279" type="curve"/>
      <point x="315" y="277"/>
      <point x="282" y="274"/>
      <point x="265" y="274" type="curve" smooth="yes"/>
      <point x="249" y="274"/>
      <point x="219" y="277"/>
      <point x="195" y="279" type="curve"/>
      <point x="194" y="276"/>
      <point x="193" y="272"/>
      <point x="193" y="265" type="curve" smooth="yes"/>
      <point x="193" y="259"/>
      <point x="194" y="256"/>
      <point x="195" y="255" type="curve"/>
      <point x="230" y="251"/>
      <point x="238" y="246"/>
      <point x="238" y="236" type="curve" smooth="yes"/>
      <point x="238" y="228"/>
      <point x="236" y="221"/>
      <point x="233" y="215" type="curve" smooth="yes"/>
      <point x="185" y="116" type="line"/>
      <point x="140" y="223" type="line"/>
      <point x="138" y="229"/>
      <point x="137" y="234"/>
      <point x="137" y="237" type="curve" smooth="yes"/>
      <point x="137" y="246"/>
      <point x="147" y="251"/>
      <point x="179" y="255" type="curve"/>
      <point x="181" y="255"/>
      <point x="182" y="258"/>
      <point x="182" y="266" type="curve" smooth="yes"/>
      <point x="182" y="273"/>
      <point x="181" y="277"/>
      <point x="179" y="279" type="curve"/>
      <point x="166" y="278"/>
      <point x="110" y="274"/>
      <point x="91" y="274" type="curve" smooth="yes"/>
      <point x="72" y="274"/>
      <point x="21" y="277"/>
      <point x="-1" y="279" type="curve"/>
      <point x="-3" y="277"/>
      <point x="-4" y="273"/>
      <point x="-4" y="268" type="curve" smooth="yes"/>
      <point x="-4" y="260"/>
      <point x="-3" y="255"/>
      <point x="-1" y="255" type="curve" smooth="yes"/>
      <point x="18" y="255"/>
      <point x="39" y="244"/>
      <point x="43" y="233" type="curve"/>
      <point x="146" y="3" type="line" smooth="yes"/>
      <point x="149" y="-4"/>
      <point x="152" y="-7"/>
    </contour>
    <contour>
      <point x="171" y="0" type="move" name="bottom"/>
    </contour>
    <contour>
      <point x="171" y="276" type="move" name="top"/>
    </contour>
  </outline>
</glyph>
<glyph name="w" format="1">
  <advance width="516"/>
  <unicode hex="0077"/>
  <outline>
    <contour>
      <point x="343" y="-7" type="curve" smooth="yes"/>
      <point x="350" y="-7"/>
      <point x="356" y="0"/>
      <point x="363" y="12" type="curve"/>
      <point x="475" y="229" type="line" smooth="yes"/>
      <point x="482" y="242"/>
      <point x="496" y="255"/>
      <point x="526" y="255" type="curve" smooth="yes"/>
      <point x="528" y="255"/>
      <point x="528" y="259"/>
      <point x="528" y="268" type="curve" smooth="yes"/>
      <point x="528" y="274"/>
      <point x="528" y="277"/>
      <point x="525" y="279" type="curve"/>
      <point x="502" y="277"/>
      <point x="468" y="274"/>
      <point x="452" y="274" type="curve" smooth="yes"/>
      <point x="435" y="274"/>
      <point x="405" y="277"/>
      <point x="382" y="279" type="curve"/>
      <point x="381" y="276"/>
      <point x="380" y="272"/>
      <point x="380" y="265" type="curve" smooth="yes"/>
      <point x="380" y="259"/>
      <point x="381" y="256"/>
      <point x="382" y="255" type="curve"/>
      <point x="416" y="251"/>
      <point x="424" y="246"/>
      <point x="424" y="236" type="curve" smooth="yes"/>
      <point x="424" y="228"/>
      <point x="422" y="221"/>
      <point x="419" y="215" type="curve" smooth="yes"/>
      <point x="371" y="116" type="line"/>
      <point x="325" y="223" type="line"/>
      <point x="323" y="229"/>
      <point x="322" y="234"/>
      <point x="322" y="237" type="curve" smooth="yes"/>
      <point x="322" y="246"/>
      <point x="332" y="255"/>
      <point x="364" y="255" type="curve" smooth="yes"/>
      <point x="366" y="255"/>
      <point x="367" y="258"/>
      <point x="367" y="266" type="curve" smooth="yes"/>
      <point x="367" y="273"/>
      <point x="366" y="277"/>
      <point x="364" y="279" type="curve"/>
      <point x="351" y="278"/>
      <point x="295" y="274"/>
      <point x="276" y="274" type="curve" smooth="yes"/>
      <point x="257" y="274"/>
      <point x="201" y="277"/>
      <point x="192" y="279" type="curve"/>
      <point x="191" y="277"/>
      <point x="190" y="273"/>
      <point x="190" y="268" type="curve" smooth="yes"/>
      <point x="190" y="260"/>
      <point x="191" y="256"/>
      <point x="192" y="255" type="curve"/>
      <point x="210" y="249"/>
      <point x="223" y="244"/>
      <point x="228" y="233" type="curve" smooth="yes"/>
      <point x="331" y="3" type="line" smooth="yes"/>
      <point x="334" y="-4"/>
      <point x="337" y="-7"/>
    </contour>
    <contour>
      <point x="159" y="-7" type="curve" smooth="yes"/>
      <point x="165" y="-7"/>
      <point x="172" y="0"/>
      <point x="178" y="12" type="curve" smooth="yes"/>
      <point x="292" y="233" type="line"/>
      <point x="249" y="237" type="line"/>
      <point x="186" y="116" type="line"/>
      <point x="141" y="223" type="line"/>
      <point x="139" y="229"/>
      <point x="138" y="234"/>
      <point x="138" y="237" type="curve" smooth="yes"/>
      <point x="138" y="246"/>
      <point x="153" y="255"/>
      <point x="171" y="255" type="curve" smooth="yes"/>
      <point x="173" y="255"/>
      <point x="174" y="258"/>
      <point x="174" y="266" type="curve" smooth="yes"/>
      <point x="174" y="273"/>
      <point x="173" y="277"/>
      <point x="171" y="279" type="curve"/>
      <point x="158" y="278"/>
      <point x="111" y="274"/>
      <point x="92" y="274" type="curve" smooth="yes"/>
      <point x="73" y="274"/>
      <point x="22" y="277"/>
      <point x="0" y="279" type="curve"/>
      <point x="-2" y="277"/>
      <point x="-3" y="273"/>
      <point x="-3" y="268" type="curve" smooth="yes"/>
      <point x="-3" y="260"/>
      <point x="-2" y="255"/>
      <point x="0" y="255" type="curve" smooth="yes"/>
      <point x="18" y="255"/>
      <point x="39" y="244"/>
      <point x="44" y="233" type="curve" smooth="yes"/>
      <point x="147" y="3" type="line" smooth="yes"/>
      <point x="150" y="-4"/>
      <point x="153" y="-7"/>
    </contour>
    <contour>
      <point x="258" y="0" type="move" name="bottom"/>
    </contour>
    <contour>
      <point x="258" y="276" type="move" name="top"/>
    </contour>
  </outline>
</glyph>
<glyph name="x" format="1">
  <advance width="349"/>
  <unicode hex="0078"/>
  <outline>
    <contour>
      <point x="173" y="-3" type="curve"/>
      <point x="193" y="-1"/>
      <point x="244" y="3"/>
      <point x="263" y="3" type="curve" smooth="yes"/>
      <point x="281" y="3"/>
      <point x="330" y="-1"/>
      <point x="349" y="-3" type="curve"/>
      <point x="351" y="-1"/>
      <point x="352" y="2"/>
      <point x="352" y="6" type="curve" smooth="yes"/>
      <point x="352" y="15"/>
      <point x="351" y="20"/>
      <point x="349" y="20" type="curve"/>
      <point x="330" y="24"/>
      <point x="314" y="36"/>
      <point x="299" y="54" type="curve" smooth="yes"/>
      <point x="143" y="232" type="line"/>
      <point x="141" y="234"/>
      <point x="140" y="237"/>
      <point x="140" y="239" type="curve" smooth="yes"/>
      <point x="140" y="248"/>
      <point x="157" y="255"/>
      <point x="169" y="255" type="curve" smooth="yes"/>
      <point x="171" y="255"/>
      <point x="172" y="259"/>
      <point x="172" y="267" type="curve" smooth="yes"/>
      <point x="172" y="273"/>
      <point x="171" y="277"/>
      <point x="170" y="279" type="curve"/>
      <point x="83" y="274" type="line"/>
      <point x="78" y="274"/>
      <point x="55" y="276"/>
      <point x="-1" y="279" type="curve"/>
      <point x="-2" y="276"/>
      <point x="-3" y="272"/>
      <point x="-3" y="267" type="curve" smooth="yes"/>
      <point x="-3" y="258"/>
      <point x="-1" y="254"/>
      <point x="1" y="254" type="curve" smooth="yes"/>
      <point x="14" y="254"/>
      <point x="30" y="245"/>
      <point x="42" y="231" type="curve" smooth="yes"/>
      <point x="197" y="52" type="line"/>
      <point x="201" y="47"/>
      <point x="203" y="42"/>
      <point x="203" y="39" type="curve" smooth="yes"/>
      <point x="203" y="31"/>
      <point x="187" y="23"/>
      <point x="174" y="21" type="curve"/>
      <point x="172" y="21"/>
      <point x="172" y="16"/>
      <point x="172" y="5" type="curve" smooth="yes"/>
      <point x="172" y="4"/>
      <point x="172" y="2"/>
    </contour>
    <contour>
      <point x="0" y="-3" type="curve"/>
      <point x="17" y="-1"/>
      <point x="63" y="3"/>
      <point x="80" y="3" type="curve" smooth="yes"/>
      <point x="103" y="3"/>
      <point x="151" y="-2"/>
      <point x="155" y="-3" type="curve"/>
      <point x="157" y="-1"/>
      <point x="158" y="3"/>
      <point x="158" y="10" type="curve" smooth="yes"/>
      <point x="158" y="15"/>
      <point x="157" y="20"/>
      <point x="157" y="21" type="curve"/>
      <point x="124" y="27"/>
      <point x="116" y="30"/>
      <point x="116" y="38" type="curve" smooth="yes"/>
      <point x="116" y="43"/>
      <point x="118" y="46"/>
      <point x="120" y="50" type="curve"/>
      <point x="161" y="100" type="line"/>
      <point x="138" y="133" type="line"/>
      <point x="54" y="43" type="line" smooth="yes"/>
      <point x="46" y="35"/>
      <point x="21" y="24"/>
      <point x="1" y="21" type="curve"/>
      <point x="-1" y="21"/>
      <point x="-2" y="17"/>
      <point x="-2" y="10" type="curve" smooth="yes"/>
      <point x="-2" y="5"/>
      <point x="-1" y="1"/>
    </contour>
    <contour>
      <point x="204" y="149" type="line"/>
      <point x="288" y="238" type="line"/>
      <point x="295" y="246"/>
      <point x="314" y="252"/>
      <point x="344" y="255" type="curve"/>
      <point x="345" y="255"/>
      <point x="346" y="259"/>
      <point x="346" y="267" type="curve" smooth="yes"/>
      <point x="346" y="273"/>
      <point x="345" y="277"/>
      <point x="344" y="279" type="curve"/>
      <point x="297" y="276"/>
      <point x="271" y="274"/>
      <point x="267" y="274" type="curve"/>
      <point x="186" y="279" type="line"/>
      <point x="184" y="277"/>
      <point x="183" y="272"/>
      <point x="183" y="267" type="curve" smooth="yes"/>
      <point x="183" y="259"/>
      <point x="184" y="255"/>
      <point x="186" y="255" type="curve" smooth="yes"/>
      <point x="212" y="255"/>
      <point x="225" y="250"/>
      <point x="225" y="242" type="curve" smooth="yes"/>
      <point x="225" y="239"/>
      <point x="222" y="233"/>
      <point x="217" y="226" type="curve"/>
      <point x="179" y="177" type="line"/>
    </contour>
    <contour>
      <point x="175" y="0" type="move" name="bottom"/>
    </contour>
    <contour>
      <point x="175" y="276" type="move" name="top"/>
    </contour>
  </outline>
</glyph>
<glyph name="y" format="1">
  <advance width="328"/>
  <unicode hex="0079"/>
  <outline>
    <contour>
      <point x="32" y="-136" type="curve" smooth="yes"/>
      <point x="79" y="-136"/>
      <point x="118" y="-100"/>
      <point x="161" y="-17" type="curve" smooth="yes"/>
      <point x="289" y="229" type="line" smooth="yes"/>
      <point x="296" y="243"/>
      <point x="312" y="251"/>
      <point x="339" y="255" type="curve"/>
      <point x="341" y="255"/>
      <point x="342" y="259"/>
      <point x="342" y="268" type="curve" smooth="yes"/>
      <point x="342" y="273"/>
      <point x="341" y="277"/>
      <point x="339" y="279" type="curve"/>
      <point x="318" y="277"/>
      <point x="275" y="274"/>
      <point x="265" y="274" type="curve" smooth="yes"/>
      <point x="245" y="274"/>
      <point x="204" y="278"/>
      <point x="194" y="279" type="curve"/>
      <point x="194" y="275"/>
      <point x="193" y="270"/>
      <point x="193" y="267" type="curve" smooth="yes"/>
      <point x="193" y="258"/>
      <point x="194" y="255"/>
      <point x="196" y="255" type="curve"/>
      <point x="229" y="251"/>
      <point x="238" y="247"/>
      <point x="238" y="236" type="curve" smooth="yes"/>
      <point x="238" y="230"/>
      <point x="236" y="221"/>
      <point x="233" y="215" type="curve" smooth="yes"/>
      <point x="173" y="91" type="line"/>
      <point x="149" y="49" type="line"/>
      <point x="106" y="-23" type="line" smooth="yes"/>
      <point x="92" y="-47"/>
      <point x="75" y="-56"/>
      <point x="19" y="-68" type="curve" smooth="yes"/>
      <point x="0" y="-72"/>
      <point x="-11" y="-84"/>
      <point x="-11" y="-103" type="curve" smooth="yes"/>
      <point x="-11" y="-122"/>
      <point x="8" y="-136"/>
    </contour>
    <contour>
      <point x="145" y="5" type="line"/>
      <point x="191" y="101" type="line"/>
      <point x="140" y="223" type="line"/>
      <point x="138" y="229"/>
      <point x="137" y="234"/>
      <point x="137" y="237" type="curve" smooth="yes"/>
      <point x="137" y="247"/>
      <point x="148" y="251"/>
      <point x="179" y="255" type="curve"/>
      <point x="181" y="255"/>
      <point x="182" y="258"/>
      <point x="182" y="266" type="curve" smooth="yes"/>
      <point x="182" y="274"/>
      <point x="181" y="277"/>
      <point x="179" y="279" type="curve"/>
      <point x="156" y="277"/>
      <point x="106" y="274"/>
      <point x="91" y="274" type="curve" smooth="yes"/>
      <point x="79" y="274"/>
      <point x="45" y="276"/>
      <point x="-1" y="279" type="curve"/>
      <point x="-3" y="277"/>
      <point x="-4" y="274"/>
      <point x="-4" y="268" type="curve" smooth="yes"/>
      <point x="-4" y="259"/>
      <point x="-3" y="255"/>
      <point x="-1" y="255" type="curve" smooth="yes"/>
      <point x="17" y="255"/>
      <point x="39" y="245"/>
      <point x="43" y="233" type="curve"/>
    </contour>
    <contour>
      <point x="227" y="0" type="move" name="bottom"/>
    </contour>
    <contour>
      <point x="165" y="276" type="move" name="top"/>
    </contour>
  </outline>
</glyph>
<glyph name="z" format="1">
  <advance width="275"/>
  <unicode hex="007A"/>
  <outline>
    <contour>
      <point x="252" y="-3" type="curve"/>
      <point x="262" y="92" type="line"/>
      <point x="260" y="93"/>
      <point x="254" y="95"/>
      <point x="249" y="95" type="curve" smooth="yes"/>
      <point x="242" y="95"/>
      <point x="239" y="94"/>
      <point x="238" y="90" type="curve"/>
      <point x="225" y="50"/>
      <point x="208" y="35"/>
      <point x="176" y="35" type="curve" smooth="yes"/>
      <point x="108" y="35" type="line"/>
      <point x="111" y="28" type="line"/>
      <point x="259" y="261" type="line"/>
      <point x="259" y="269"/>
      <point x="259" y="274"/>
      <point x="257" y="276" type="curve"/>
      <point x="230" y="273"/>
      <point x="202" y="271"/>
      <point x="176" y="271" type="curve" smooth="yes"/>
      <point x="83" y="271" type="line" smooth="yes"/>
      <point x="68" y="271"/>
      <point x="48" y="272"/>
      <point x="24" y="274" type="curve"/>
      <point x="23" y="263"/>
      <point x="21" y="248"/>
      <point x="18" y="224" type="curve" smooth="yes"/>
      <point x="15" y="200"/>
      <point x="14" y="188"/>
      <point x="14" y="185" type="curve" smooth="yes"/>
      <point x="14" y="183"/>
      <point x="18" y="181"/>
      <point x="24" y="181" type="curve" smooth="yes"/>
      <point x="31" y="181"/>
      <point x="36" y="182"/>
      <point x="37" y="185" type="curve"/>
      <point x="46" y="221"/>
      <point x="60" y="236"/>
      <point x="88" y="236" type="curve" smooth="yes"/>
      <point x="171" y="236" type="line"/>
      <point x="160" y="254" type="line"/>
      <point x="16" y="17" type="line"/>
      <point x="15" y="16"/>
      <point x="15" y="16"/>
      <point x="15" y="14" type="curve" smooth="yes"/>
      <point x="15" y="9"/>
      <point x="17" y="5"/>
      <point x="21" y="0" type="curve"/>
      <point x="190" y="0" type="line" smooth="yes"/>
      <point x="205" y="0"/>
      <point x="220" y="-1"/>
    </contour>
    <contour>
      <point x="140" y="0" type="move" name="bottom"/>
    </contour>
    <contour>
      <point x="140" y="136" type="move" name="center"/>
    </contour>
    <contour>
      <point x="140" y="276" type="move" name="top"/>
    </contour>
  </outline>
</glyph>
<glyph name="braceleft" format="1">
  <advance width="206"/>
  <unicode hex="007B"/>
  <outline>
    <contour>
      <point x="126" y="6" type="curve"/>
      <point x="126" y="50"/>
      <point x="148" y="85"/>
      <point x="148" y="124" type="curve"/>
      <point x="148" y="162"/>
      <point x="118" y="190"/>
      <point x="66" y="194" type="curve"/>
      <point x="118" y="198"/>
      <point x="148" y="226"/>
      <point x="148" y="264" type="curve"/>
      <point x="148" y="303"/>
      <point x="126" y="338"/>
      <point x="126" y="382" type="curve"/>
      <point x="126" y="413"/>
      <point x="134" y="441"/>
      <point x="185" y="443" type="curve"/>
      <point x="187" y="446"/>
      <point x="187" y="452"/>
      <point x="187" y="457" type="curve"/>
      <point x="187" y="462"/>
      <point x="187" y="467"/>
      <point x="185" y="468" type="curve"/>
      <point x="105" y="467"/>
      <point x="50" y="429"/>
      <point x="50" y="365" type="curve"/>
      <point x="50" y="323"/>
      <point x="76" y="277"/>
      <point x="76" y="251" type="curve"/>
      <point x="76" y="220"/>
      <point x="50" y="210"/>
      <point x="12" y="207" type="curve"/>
      <point x="11" y="203"/>
      <point x="10" y="197"/>
      <point x="10" y="194" type="curve"/>
      <point x="10" y="191"/>
      <point x="11" y="185"/>
      <point x="12" y="181" type="curve"/>
      <point x="50" y="178"/>
      <point x="76" y="169"/>
      <point x="76" y="138" type="curve"/>
      <point x="76" y="111"/>
      <point x="50" y="65"/>
      <point x="50" y="23" type="curve"/>
      <point x="50" y="-41"/>
      <point x="105" y="-79"/>
      <point x="185" y="-80" type="curve"/>
      <point x="187" y="-78"/>
      <point x="187" y="-74"/>
      <point x="187" y="-69" type="curve"/>
      <point x="187" y="-64"/>
      <point x="187" y="-58"/>
      <point x="185" y="-55" type="curve"/>
      <point x="134" y="-53"/>
      <point x="126" y="-25"/>
    </contour>
  </outline>
</glyph>
<glyph name="bar" format="1">
  <advance width="189"/>
  <unicode hex="007C"/>
  <outline>
    <contour>
      <point x="66" y="-72" type="line"/>
      <point x="123" y="-72" type="line"/>
      <point x="123" y="480" type="line"/>
      <point x="66" y="480" type="line"/>
    </contour>
  </outline>
</glyph>
